# Aspose.3D Wavefront OBJ Exporter
# Copyright 2004-2024 Aspose Pty Ltd.
# File created: 05/14/2024 13:20:50

g obj_33234854

#
# object obj_33234854
#

v 0.024837045 0.080000006 0.0028497854
v 0.024837045 0.05 0.0028497854
v 0.025 0.080000006 -3.0616171E-18
v 0.025 0.05 -3.0616171E-18
v 0.024837045 0.080000006 -0.0028497854
v 0.024837045 0.05 -0.0028497854
v 0.024350299 0.080000006 -0.0056624194
v 0.024350299 0.05 -0.0056624194
v 0.023546109 0.080000006 -0.008401235
v 0.023546109 0.05 -0.008401235
v 0.022434963 0.080000006 -0.011030528
v 0.022434963 0.05 -0.011030528
v 0.021031339 0.080000006 -0.013516021
v 0.021031339 0.05 -0.013516021
v 0.01935354 0.080000006 -0.015825313
v 0.01935354 0.05 -0.015825313
v 0.01742344 0.080000006 -0.017928297
v 0.01742344 0.05 -0.017928297
v 0.015266198 0.080000006 -0.019797556
v 0.015266198 0.05 -0.019797556
v 0.012909938 0.080000006 -0.021408727
v 0.012909938 0.05 -0.021408727
v 0.0103853755 0.080000006 -0.0227408
v 0.0103853755 0.05 -0.0227408
v 0.007725425 0.080000006 -0.023776414
v 0.007725425 0.05 -0.023776414
v 0.004964762 0.080000006 -0.024502065
v 0.004964762 0.05 -0.024502065
v 0.0021393753 0.080000006 -0.024908293
v 0.0021393753 0.05 -0.024908293
v -0.0007139013 0.080000006 -0.024989806
v -0.0007139013 0.05 -0.024989806
v -0.003557871 0.080000006 -0.024745539
v -0.003557871 0.05 -0.024745539
v -0.0063554584 0.080000006 -0.024178673
v -0.0063554584 0.05 -0.024178673
v -0.009070192 0.080000006 -0.023296602
v -0.009070192 0.05 -0.023296602
v -0.0116666835 0.080000006 -0.022110824
v -0.0116666835 0.05 -0.022110824
v -0.014111081 0.080000006 -0.020636799
v -0.014111081 0.05 -0.020636799
v -0.01637152 0.080000006 -0.018893741
v -0.01637152 0.05 -0.018893741
v -0.018418528 0.080000006 -0.016904375
v -0.018418528 0.05 -0.016904375
v -0.020225426 0.080000006 -0.014694632
v -0.020225426 0.05 -0.014694632
v -0.021768654 0.080000006 -0.012293324
v -0.021768654 0.05 -0.012293324
v -0.023028092 0.080000006 -0.009731753
v -0.023028092 0.05 -0.009731753
v -0.023987325 0.080000006 -0.007043314
v -0.023987325 0.05 -0.007043314
v -0.024633847 0.080000006 -0.004263055
v -0.024633847 0.05 -0.004263055
v -0.024959229 0.080000006 -0.0014272203
v -0.024959229 0.05 -0.0014272203
v -0.024959229 0.080000006 0.0014272203
v -0.024959229 0.05 0.0014272203
v -0.024633847 0.080000006 0.004263055
v -0.024633847 0.05 0.004263055
v -0.023987325 0.080000006 0.007043314
v -0.023987325 0.05 0.007043314
v -0.023028092 0.080000006 0.009731753
v -0.023028092 0.05 0.009731753
v -0.021768654 0.080000006 0.012293324
v -0.021768654 0.05 0.012293324
v -0.020225426 0.080000006 0.014694632
v -0.020225426 0.05 0.014694632
v -0.018418528 0.080000006 0.016904375
v -0.018418528 0.05 0.016904375
v -0.01637152 0.080000006 0.018893741
v -0.01637152 0.05 0.018893741
v -0.014111081 0.080000006 0.020636799
v -0.014111081 0.05 0.020636799
v -0.0116666835 0.080000006 0.022110824
v -0.0116666835 0.05 0.022110824
v -0.009070192 0.080000006 0.023296602
v -0.009070192 0.05 0.023296602
v -0.0063554584 0.080000006 0.024178673
v -0.0063554584 0.05 0.024178673
v -0.003557871 0.080000006 0.024745539
v -0.003557871 0.05 0.024745539
v -0.0007139013 0.080000006 0.024989806
v -0.0007139013 0.05 0.024989806
v 0.0021393753 0.080000006 0.024908293
v 0.0021393753 0.05 0.024908293
v 0.004964762 0.080000006 0.024502065
v 0.004964762 0.05 0.024502065
v 0.007725425 0.080000006 0.023776414
v 0.007725425 0.05 0.023776414
v 0.0103853755 0.080000006 0.0227408
v 0.0103853755 0.05 0.0227408
v 0.012909938 0.080000006 0.021408727
v 0.012909938 0.05 0.021408727
v 0.015266198 0.080000006 0.019797556
v 0.015266198 0.05 0.019797556
v 0.01742344 0.080000006 0.017928297
v 0.01742344 0.05 0.017928297
v 0.01935354 0.080000006 0.015825313
v 0.01935354 0.05 0.015825313
v 0.021031339 0.080000006 0.013516021
v 0.021031339 0.05 0.013516021
v 0.022434963 0.080000006 0.011030528
v 0.022434963 0.05 0.011030528
v 0.023546109 0.080000006 0.008401235
v 0.023546109 0.05 0.008401235
v 0.024350299 0.080000006 0.0056624194
v 0.024350299 0.05 0.0056624194
v -0.1 0.025 -0.025
v -0.1 -0.05 -0.05
v -0.1 -0.025 -0.025
v -0.1 -0.05 0.05
v -0.1 -0.025 0.025
v -0.1 0.025 0.025
v -0.1 0.05 0.05
v -0.1 0.05 -0.05
v 0.1 0.025 -0.025
v 0.1 0.025 0.025
v 0.1 -0.025 0.025
v 0.1 -0.025 -0.025
v 0.1 -0.05 -0.05
v 0.1 -0.05 0.05
v 0.1 0.05 0.05
v 0.1 0.05 -0.05
# 126 vertices

vn 0.99836916 0 0.057088364
vn 0.99836916 0 -0.057088364
vn 0.9853537 0 -0.17052254
vn 0.9853538 0 -0.1705225
vn 0.95949286 0 -0.28173283
vn 0.95949286 0 -0.28173292
vn 0.92112404 0 -0.38926917
vn 0.9211238 0 -0.38926962
vn 0.87074596 0 -0.4917331
vn 0.8707458 0 -0.49173334
vn 0.8090169 0 -0.5877854
vn 0.8090173 0 -0.5877849
vn 0.73674154 0 -0.6761744
vn 0.7367406 0 -0.67617536
vn 0.6548601 0 -0.7557501
vn 0.6548608 0 -0.7557495
vn 0.56444484 0 -0.8254708
vn 0.56444293 0 -0.82547206
vn 0.46666622 0 -0.8844335
vn 0.4666673 0 -0.884433
vn 0.36280835 0 -0.9318637
vn 0.36280707 0 -0.9318642
vn 0.25421977 0 -0.9671465
vn 0.25421724 0 -0.9671472
vn 0.14231421 0 -0.9898215
vn 0.14231549 0 -0.9898213
vn 0.028555542 0 -0.9995921
vn 0.028556902 0 -0.9995921
vn -0.0855742 0 -0.9963317
vn -0.19859187 0 -0.9800822
vn -0.19859052 0 -0.9800826
vn -0.30901724 0 -0.9510564
vn -0.30901703 0 -0.9510565
vn -0.41541553 0 -0.9096317
vn -0.41541415 0 -0.9096323
vn -0.5163968 0 -0.8563494
vn -0.51639783 0 -0.8563488
vn -0.6106479 0 -0.7919021
vn -0.610647 0 -0.7919029
vn -0.6969379 0 -0.71713144
vn -0.69693786 0 -0.7171315
vn -0.77414155 0 -0.6330125
vn -0.7741415 0 -0.6330126
vn -0.84125364 0 -0.5406406
vn -0.84125316 0 -0.5406413
vn -0.8973986 0 -0.4412207
vn -0.89739853 0 -0.44122085
vn -0.94184434 0 -0.33604944
vn -0.9418445 0 -0.33604893
vn -0.97401184 0 -0.226497
vn -0.9740119 0 -0.22649701
vn -0.9934817 0 -0.113991395
vn -0.9934817 0 -0.11399142
vn -1 0 0
vn -0.9934817 0 0.11399142
vn -0.9934817 0 0.113991395
vn -0.9740119 0 0.22649692
vn -0.97401184 0 0.22649708
vn -0.9418445 0 0.33604902
vn -0.94184434 0 0.33604938
vn -0.8973986 0 0.4412207
vn -0.89739853 0 0.44122085
vn -0.8412532 0 0.5406412
vn -0.8412536 0 0.5406407
vn -0.77414155 0 0.6330125
vn -0.7741415 0 0.6330126
vn -0.6969379 0 0.71713144
vn -0.69693786 0 0.7171315
vn -0.6106471 0 0.7919028
vn -0.61064786 0 0.79190224
vn -0.51639783 0 0.8563488
vn -0.5163968 0 0.8563494
vn -0.41541442 0 0.90963227
vn -0.4154153 0 0.90963185
vn -0.30901724 0 0.9510564
vn -0.30901703 0 0.9510565
vn -0.19859059 0 0.9800826
vn -0.19859181 0 0.9800822
vn -0.0855742 0 0.9963317
vn 0.028556902 0 0.9995921
vn 0.028555542 0 0.9995921
vn 0.14231554 0 0.9898213
vn 0.14231415 0 0.9898215
vn 0.25421724 0 0.9671472
vn 0.25421977 0 0.9671465
vn 0.36280718 0 0.9318642
vn 0.36280826 0 0.93186384
vn 0.4666673 0 0.884433
vn 0.46666622 0 0.8844335
vn 0.56444293 0 0.82547206
vn 0.56444484 0 0.8254708
vn 0.65486085 0 0.7557494
vn 0.65485996 0 0.7557502
vn 0.7367406 0 0.67617536
vn 0.73674154 0 0.6761744
vn 0.80901736 0 0.58778477
vn 0.80901676 0 0.5877855
vn 0.87074596 0 0.4917331
vn 0.8707458 0 0.49173334
vn 0.9211239 0 0.38926938
vn 0.921124 0 0.38926938
vn 0.95949286 0 0.28173292
vn 0.95949286 0 0.28173283
vn 0.9853538 0 0.1705225
vn 0.9853537 0 0.17052254
vn 0 1 0
vn 0 0.99999994 0
vn 0 1 4.3077084E-06
vn 0 1 -3.1177124E-06
vn 0 1 3.068181E-06
vn 0 1 4.384489E-06
vn 0 1 -5.4516786E-06
vn 0 1 -8.07727E-07
vn 0 1 -3.8491157E-06
vn 0 1 3.5471587E-06
vn 0 1 -3.442102E-06
vn 0 1 -3.4421046E-06
vn 0 1 1.6627299E-06
vn 0 1 -3.6085441E-07
vn 0 1 2.6924235E-06
vn 0 1 -4.6155774E-06
vn 0 1 3.119501E-07
vn 0 1 3.762549E-06
vn 0 1 6.7285455E-06
vn 0 1 -1.9056721E-06
vn 0 1 -1.2833974E-06
vn 0 1 7.519069E-06
vn 0 1 -9.4982015E-06
vn 0 0.99999994 1.558851E-06
vn 0 1 -3.1956567E-06
vn 0 0.99999994 2.1119067E-05
vn 0 0.99999994 -2.0981595E-05
vn -1 -3.7252903E-07 0
vn -1 7.4505806E-07 0
vn 0 -1 0
vn 0 0 -1
vn 0 0 1
vn 0 1 1.917516E-06
vn 0 1 -1.8834236E-06
vn 0 1 -3.7631405E-06
vn 0 1 3.823558E-06
vn 0 0.99999994 4.9488167E-06
vn 0 1 -5.633652E-06
vn 0 1 3.7237717E-07
vn 0 1 -7.431477E-06
vn 0 1 6.0990765E-06
vn 0 1 -1.8963169E-06
vn 0 1 2.0369462E-06
vn 0 1 -2.0369462E-06
vn 0 1 1.8963169E-06
vn 0 1 -6.0990765E-06
vn 0 1 7.431477E-06
vn 0 1 -3.7237717E-07
vn 0 1 5.633652E-06
vn 0 0.99999994 -4.9488167E-06
vn 0 1 4.4843E-06
vn 0 1 -3.823558E-06
vn 0 1 1.8815703E-06
vn 0 1 1.8834236E-06
vn 0 1 -1.917516E-06
vn 1 0 0
vn 1 1.862645E-07 0
vn 1 7.4505806E-07 0
# 163 vertex normals

s 1
f 1//1 2//1 3//1
f 3//1 2//1 4//1
f 3//2 4//2 5//2
f 5//2 4//2 6//2
f 5//3 6//3 7//3
f 7//4 6//4 8//4
f 7//5 8//5 9//5
f 9//6 8//6 10//6
f 9//7 10//7 11//7
f 11//8 10//8 12//8
f 11//9 12//9 13//9
f 13//10 12//10 14//10
f 13//11 14//11 15//11
f 15//12 14//12 16//12
f 15//13 16//13 17//13
f 17//14 16//14 18//14
f 17//15 18//15 19//15
f 19//16 18//16 20//16
f 19//17 20//17 21//17
f 21//18 20//18 22//18
f 21//19 22//19 23//19
f 23//20 22//20 24//20
f 23//21 24//21 25//21
f 25//22 24//22 26//22
f 25//23 26//23 27//23
f 27//24 26//24 28//24
f 27//25 28//25 29//25
f 29//26 28//26 30//26
f 29//27 30//27 31//27
f 31//28 30//28 32//28
f 31//29 32//29 33//29
f 33//29 32//29 34//29
f 33//30 34//30 35//30
f 35//31 34//31 36//31
f 35//32 36//32 37//32
f 37//33 36//33 38//33
f 37//34 38//34 39//34
f 39//35 38//35 40//35
f 39//36 40//36 41//36
f 41//37 40//37 42//37
f 41//38 42//38 43//38
f 43//39 42//39 44//39
f 43//40 44//40 45//40
f 45//41 44//41 46//41
f 45//42 46//42 47//42
f 47//43 46//43 48//43
f 47//44 48//44 49//44
f 49//45 48//45 50//45
f 49//46 50//46 51//46
f 51//47 50//47 52//47
f 51//48 52//48 53//48
f 53//49 52//49 54//49
f 53//50 54//50 55//50
f 55//51 54//51 56//51
f 55//52 56//52 57//52
f 57//53 56//53 58//53
f 57//54 58//54 59//54
f 59//54 58//54 60//54
f 59//55 60//55 61//55
f 61//56 60//56 62//56
f 61//57 62//57 63//57
f 63//58 62//58 64//58
f 63//59 64//59 65//59
f 65//60 64//60 66//60
f 65//61 66//61 67//61
f 67//62 66//62 68//62
f 67//63 68//63 69//63
f 69//64 68//64 70//64
f 69//65 70//65 71//65
f 71//66 70//66 72//66
f 71//67 72//67 73//67
f 73//68 72//68 74//68
f 73//69 74//69 75//69
f 75//70 74//70 76//70
f 75//71 76//71 77//71
f 77//72 76//72 78//72
f 77//73 78//73 79//73
f 79//74 78//74 80//74
f 79//75 80//75 81//75
f 81//76 80//76 82//76
f 81//77 82//77 83//77
f 83//78 82//78 84//78
f 83//79 84//79 85//79
f 85//79 84//79 86//79
f 85//80 86//80 87//80
f 87//81 86//81 88//81
f 87//82 88//82 89//82
f 89//83 88//83 90//83
f 89//84 90//84 91//84
f 91//85 90//85 92//85
f 91//86 92//86 93//86
f 93//87 92//87 94//87
f 93//88 94//88 95//88
f 95//89 94//89 96//89
f 95//90 96//90 97//90
f 97//91 96//91 98//91
f 97//92 98//92 99//92
f 99//93 98//93 100//93
f 99//94 100//94 101//94
f 101//95 100//95 102//95
f 101//96 102//96 103//96
f 103//97 102//97 104//97
f 103//98 104//98 105//98
f 105//99 104//99 106//99
f 105//100 106//100 107//100
f 107//101 106//101 108//101
f 107//102 108//102 109//102
f 109//103 108//103 110//103
f 109//104 110//104 1//104
f 1//105 110//105 2//105
f 3//106 5//106 1//106
f 1//106 5//106 109//106
f 109//106 5//106 107//106
f 107//107 5//107 105//107
f 105//108 5//108 103//108
f 103//109 5//109 101//109
f 101//106 5//106 99//106
f 99//106 5//106 97//106
f 97//110 5//110 95//110
f 95//106 5//106 93//106
f 93//111 5//111 91//111
f 91//106 5//106 89//106
f 89//106 5//106 87//106
f 87//106 5//106 85//106
f 85//112 5//112 83//112
f 83//106 5//106 81//106
f 81//106 5//106 79//106
f 79//113 5//113 7//113
f 79//106 7//106 77//106
f 77//114 7//114 75//114
f 75//106 7//106 73//106
f 73//115 7//115 71//115
f 71//116 7//116 69//116
f 69//106 7//106 67//106
f 67//106 7//106 65//106
f 65//106 7//106 63//106
f 63//106 7//106 61//106
f 61//106 7//106 59//106
f 59//106 7//106 57//106
f 57//106 7//106 55//106
f 55//117 7//117 53//117
f 53//118 7//118 9//118
f 53//106 9//106 51//106
f 51//119 9//119 11//119
f 51//106 11//106 49//106
f 49//120 11//120 13//120
f 49//121 13//121 47//121
f 47//122 13//122 15//122
f 47//106 15//106 45//106
f 45//123 15//123 17//123
f 45//124 17//124 43//124
f 43//125 17//125 19//125
f 43//106 19//106 41//106
f 41//126 19//126 21//126
f 41//106 21//106 39//106
f 39//127 21//127 23//127
f 39//128 23//128 37//128
f 37//129 23//129 25//129
f 37//106 25//106 35//106
f 35//130 25//130 27//130
f 35//131 27//131 33//131
f 33//132 27//132 29//132
f 33//106 29//106 31//106
f 111//54 112//54 113//54
f 113//54 112//54 114//54
f 113//133 114//133 115//133
f 115//54 114//54 116//54
f 116//54 114//54 117//54
f 116//54 117//54 118//54
f 112//54 111//54 118//54
f 118//134 111//134 116//134
f 119//135 120//135 111//135
f 111//135 120//135 116//135
f 120//136 121//136 116//136
f 116//136 121//136 115//136
f 121//106 122//106 115//106
f 115//106 122//106 113//106
f 122//137 119//137 113//137
f 113//137 119//137 111//137
f 123//135 124//135 112//135
f 112//135 124//135 114//135
f 124//137 125//137 114//137
f 114//137 125//137 117//137
f 2//106 125//106 4//106
f 4//106 125//106 126//106
f 4//106 126//106 6//106
f 6//106 126//106 8//106
f 8//138 126//138 10//138
f 10//139 126//139 12//139
f 12//140 126//140 14//140
f 14//141 126//141 16//141
f 16//106 126//106 18//106
f 18//106 126//106 20//106
f 20//106 126//106 22//106
f 22//142 126//142 24//142
f 24//143 126//143 26//143
f 26//106 126//106 28//106
f 28//106 126//106 30//106
f 30//107 126//107 32//107
f 32//144 126//144 118//144
f 32//107 118//107 34//107
f 34//145 118//145 36//145
f 36//146 118//146 38//146
f 38//106 118//106 40//106
f 40//106 118//106 42//106
f 42//106 118//106 44//106
f 44//106 118//106 46//106
f 46//107 118//107 48//107
f 48//106 118//106 50//106
f 50//106 118//106 52//106
f 52//147 118//147 54//147
f 54//106 118//106 56//106
f 56//148 118//148 58//148
f 58//106 118//106 117//106
f 58//106 117//106 60//106
f 60//149 117//149 62//149
f 62//106 117//106 64//106
f 64//150 117//150 66//150
f 66//106 117//106 68//106
f 68//106 117//106 70//106
f 70//107 117//107 72//107
f 72//106 117//106 74//106
f 74//106 117//106 76//106
f 76//106 117//106 78//106
f 78//106 117//106 80//106
f 80//151 117//151 82//151
f 82//152 117//152 84//152
f 84//107 117//107 86//107
f 86//153 117//153 125//153
f 86//107 125//107 88//107
f 88//106 125//106 90//106
f 90//106 125//106 92//106
f 92//154 125//154 94//154
f 94//155 125//155 96//155
f 96//156 125//156 98//156
f 98//106 125//106 100//106
f 100//106 125//106 102//106
f 102//157 125//157 104//157
f 104//158 125//158 106//158
f 106//159 125//159 108//159
f 108//160 125//160 110//160
f 110//106 125//106 2//106
f 126//136 123//136 118//136
f 118//136 123//136 112//136
f 122//161 123//161 119//161
f 119//161 123//161 126//161
f 119//161 126//161 125//161
f 122//161 121//161 123//161
f 123//162 121//162 124//162
f 124//161 121//161 120//161
f 124//161 120//161 125//161
f 125//163 120//163 119//163
#252 polygons

