# File generated by ImageToStl.com - Free Image and 3D model conversion tools

o obj1
v 0.02 -0.255 -0.50999999
v 0.02 -0.27500001 -0.50999999
v -0.02 -0.255 -0.50999999
v -0.02 -0.27500001 -0.50999999
v -0.02 -0.255 -0.23828427
v -0.02 -0.27500001 -0.23828427
v -0.29171574 -0.255 -0.50999999
v -0.29171574 -0.27500001 -0.50999999
v -0.31999999 -0.255 -0.50999999
v -0.31999999 -0.27500001 -0.50999999
v -0.02 -0.255 -0.20999999
v -0.02 -0.27500001 -0.20999999
v 0.02 0.255 -0.50999999
v 0.02 0.27500001 -0.50999999
v 0.02 0.255 -0.01999999
v 0.02 0.27500001 -1E-08
v 0.02 -0.255 -0.01999999
v 0.02 -0.27500001 -1E-08
v -0.02 0.255 -0.50999999
v -0.02 0.27500001 -0.50999999
v -0.02 0.255 -0.23828427
v -0.02 0.27500001 -0.23828427
v -0.29171574 0.255 -0.50999999
v -0.29171574 0.27500001 -0.50999999
v -0.31999999 0.255 -0.50999999
v -0.31999999 0.27500001 -0.50999999
v -0.02 0.255 -0.20999999
v -0.02 0.27500001 -0.20999999
v -0.02 -0.255 -0.01999999
v -0.02 -0.27500001 -1E-08
v -0.02 0.255 -0.01999999
v -0.02 0.27500001 -1E-08
vn 0 0 -1
vn -1 0 0
vn 0.70711 0 -0.70711
vn -0.70711 0 0.70711
vn 1 0 0
vn -1 0 0
vn 0 0 1
vn 0 1 0
vn 0 -1 0
f 1//1 2//1 3//1
f 3//1 2//1 4//1
f 3//2 4//2 5//2
f 5//2 4//2 6//2
f 5//3 6//3 7//3
f 7//3 6//3 8//3
f 7//1 8//1 9//1
f 9//1 8//1 10//1
f 9//4 10//4 11//4
f 11//4 10//4 12//4
f 13//5 14//5 15//5
f 15//5 14//5 16//5
f 15//5 16//5 17//5
f 17//5 16//5 18//5
f 17//5 18//5 1//5
f 1//5 18//5 2//5
f 19//1 20//1 13//1
f 13//1 20//1 14//1
f 21//2 22//2 19//2
f 19//2 22//2 20//2
f 23//3 24//3 21//3
f 21//3 24//3 22//3
f 25//1 26//1 23//1
f 23//1 26//1 24//1
f 27//4 28//4 25//4
f 25//4 28//4 26//4
f 11//6 12//6 29//6
f 29//6 12//6 30//6
f 29//6 30//6 31//6
f 31//6 30//6 32//6
f 31//6 32//6 27//6
f 27//6 32//6 28//6
f 16//7 32//7 18//7
f 18//7 32//7 30//7
f 14//8 20//8 16//8
f 16//8 20//8 22//8
f 32//8 16//8 28//8
f 28//8 16//8 22//8
f 28//8 22//8 26//8
f 26//8 22//8 24//8
f 6//9 4//9 2//9
f 18//9 30//9 12//9
f 10//9 8//9 12//9
f 12//9 8//9 6//9
f 12//9 6//9 18//9
f 18//9 6//9 2//9
f 1//8 3//8 17//8
f 17//8 3//8 5//8
f 29//8 17//8 11//8
f 11//8 17//8 5//8
f 11//8 5//8 9//8
f 9//8 5//8 7//8
f 17//1 29//1 15//1
f 15//1 29//1 31//1
f 21//9 19//9 13//9
f 15//9 31//9 27//9
f 25//9 23//9 27//9
f 27//9 23//9 21//9
f 27//9 21//9 15//9
f 15//9 21//9 13//9
# Vertices: 32, normals: 9, texture coordinates: 0, faces: 60

