# File generated by ImageToStl.com - Free Image and 3D model conversion tools

mtllib pacs_full_riser.mtl

o obj1
v -0.31999999 0.29500002 0
v -0.31999999 0.29500002 0.00635001
v 0.31999999 0.29500002 0.00635001
v 0.31999999 0.29500002 0
v 0.31999999 -0.29500002 0.00635001
v -0.31999999 -0.29500002 0
v 0.31999999 -0.29500002 0
v -0.31999999 -0.29500002 0.00635001
v 0.33500004 0.28 0
v 0.33500004 0.28 0.00635001
v 0.33500004 -0.28 0.00635001
v 0.33500004 -0.28 0
v -0.33500004 0.28 0
v -0.33500004 0.28 0.00635001
v -0.33500004 -0.28 0
v -0.33500004 -0.28 0.00635001
vn 0 1 0
vn 0 -1 -0
vn 0.70711 0.70711 0
vn 0.70711 -0.70711 0
vn 1 0 0
vn -0.70711 0.70711 0
vn 0 0 -1
vn -0.70711 -0.70711 -0
vn -1 0 0
vn 0 0 1
usemtl mat1
f 1//1 2//1 3//1
f 1//1 3//1 4//1
f 5//2 6//2 7//2
f 5//2 8//2 6//2
f 9//3 4//3 3//3
f 9//3 3//3 10//3
f 11//4 5//4 7//4
f 11//5 12//5 9//5
f 11//4 7//4 12//4
f 11//5 9//5 10//5
f 13//6 14//6 2//6
f 13//6 2//6 1//6
f 13//7 1//7 4//7
f 13//7 4//7 9//7
f 13//7 9//7 12//7
f 13//7 12//7 7//7
f 13//7 7//7 6//7
f 13//7 6//7 15//7
f 16//8 15//8 6//8
f 16//9 13//9 15//9
f 16//10 8//10 5//10
f 16//8 6//8 8//8
f 16//9 14//9 13//9
f 16//10 2//10 14//10
f 16//10 5//10 11//10
f 16//10 3//10 2//10
f 16//10 11//10 10//10
f 16//10 10//10 3//10
# Vertices: 16, normals: 10, texture coordinates: 0, faces: 28

