####
#
# OBJ File Generated by Meshlab
#
####
# Object link1.obj
#
# Vertices: 152
# Faces: 300
#
####
vn 0.9736454 -0.0815216 0.2129997
v 0.0535152 -0.0622463 0.0126615
vn 0.9291143 -0.0896893 0.3587512
v 0.0513749 -0.0638730 0.0195316
vn 0.9441913 -0.1943734 0.2659359
v 0.0482782 -0.0903983 0.0138827
vn -0.0905776 0.5672805 0.8185284
v -0.0057302 -0.0004888 0.0549427
vn -0.1769136 -0.0788167 0.9810655
v -0.0086587 -0.0642507 0.0544349
vn -0.0066950 -0.0937921 0.9955693
v -0.0010647 -0.0654713 0.0549731
vn 0.7186673 0.1142807 -0.6858988
v 0.0543824 0.0089247 -0.1919974
vn 0.9364185 0.3502624 0.0208971
v 0.0517393 0.0192674 -0.1193991
vn 0.9140454 0.3811954 0.1386044
v 0.0548830 -0.0005726 0.0059493
vn 0.2653770 -0.5449247 -0.7953817
v 0.0231763 -0.0501398 -0.1920001
vn 0.2910317 -0.9159526 -0.2762814
v 0.0178591 -0.1243965 -0.0166155
vn 0.0869578 -0.5823498 -0.8082741
v 0.0077343 -0.0545727 -0.1920000
vn 0.4235135 -0.0895054 0.9014573
v 0.0240356 -0.0647337 0.0495459
vn 0.4734215 0.5514591 0.6868514
v 0.0322287 -0.0004681 0.0450794
vn 0.1884764 0.5651070 0.8032002
v 0.0121275 -0.0005036 0.0539034
vn -0.3677823 -0.8966233 -0.2465825
v -0.0224825 -0.1233412 -0.0145983
vn -0.4753349 -0.8360162 -0.2741054
v -0.0286681 -0.1196675 -0.0163156
vn -0.3072611 -0.5335389 -0.7879891
v -0.0261078 -0.0486847 -0.1920000
vn -0.6278124 0.5373330 0.5631384
v -0.0422517 -0.0004799 0.0355908
vn -0.7843336 0.4971811 0.3709877
v -0.0503181 -0.0004973 0.0224661
vn -0.7739872 -0.0810493 0.6279927
v -0.0430818 -0.0638597 0.0345094
vn 0.7233628 -0.6561592 -0.2149452
v 0.0426344 -0.1098931 -0.0124493
vn 0.5776254 -0.7806352 -0.2386579
v 0.0347273 -0.1162941 -0.0146480
vn 0.4429018 -0.4514326 -0.7746268
v 0.0371127 -0.0407306 -0.1920000
vn 0.0030183 0.9875568 0.1572338
v 0.0001980 0.0549210 -0.1251777
vn 0.3194752 0.9393997 0.1243541
v 0.0175982 0.0521884 -0.1266552
vn 0.1607435 0.9772333 0.1384799
v 0.0089446 0.0542616 -0.1262251
vn -0.8656696 -0.4466580 0.2260813
v -0.0448989 -0.1074115 0.0120992
vn -0.9452617 -0.1978619 0.2594825
v -0.0490664 -0.0883102 0.0126515
vn -0.9821057 -0.1748266 0.0700294
v -0.0519021 -0.0805430 0.0051539
vn -0.7109617 -0.6965678 0.0965753
v -0.0426656 -0.1112897 0.0061352
vn -0.5481064 -0.8274976 0.1217667
v -0.0328439 -0.1192028 0.0077857
vn -0.6396851 -0.7286717 0.2446233
v -0.0388703 -0.1129251 0.0144681
vn 0.1212780 -0.9370469 -0.3274673
v 0.0077048 -0.1257954 -0.0194769
vn 0.1924501 -0.0846531 0.9776486
v 0.0099262 -0.0648368 0.0542297
vn -0.3747052 -0.0833339 0.9233913
v -0.0209549 -0.0646224 0.0509307
vn -0.2716882 -0.1920277 0.9430329
v -0.0142522 -0.0847554 0.0495069
vn -0.4512233 -0.1976112 0.8702571
v -0.0229603 -0.0850244 0.0461097
vn -0.8957019 -0.0943202 0.4345363
v -0.0493168 -0.0643601 0.0243321
vn -0.7991362 -0.4334648 0.4165208
v -0.0415071 -0.1070252 0.0213706
vn -0.1443940 -0.9311922 -0.3347112
v -0.0084854 -0.1253571 -0.0205038
vn -0.0963497 -0.5876186 -0.8033810
v -0.0079996 -0.0547004 -0.1920000
vn -0.3802261 0.5545313 0.7402183
v -0.0257311 -0.0005214 0.0491616
vn -0.5890082 0.8034723 0.0866121
v -0.0333099 0.0438739 -0.1261275
vn -0.8992043 0.4049259 0.1657306
v -0.0547684 -0.0006022 0.0075168
vn -0.9650050 -0.0776568 0.2504692
v -0.0531977 -0.0620308 0.0142816
vn -0.9701849 0.2420709 0.0119553
v -0.0534048 0.0136221 -0.1184758
vn -0.7292777 0.0473407 -0.6825781
v -0.0549420 0.0040257 -0.1920004
vn -0.9954286 -0.0780127 0.0550993
v -0.0549870 -0.0602758 0.0029446
vn 0.6921206 0.5251253 0.4951893
v 0.0460155 -0.0005166 0.0304275
vn 0.8183850 0.4795264 0.3167025
v 0.0518771 -0.0005021 0.0185822
vn 0.4939005 0.8634313 0.1027071
v 0.0280254 0.0474072 -0.1264585
vn 0.7258970 -0.0499326 -0.6859886
v 0.0551612 -0.0036282 -0.1920041
vn 0.9949213 -0.0824885 0.0576824
v 0.0549528 -0.0606682 0.0035637
vn -0.0026019 0.7318734 -0.6814357
v -0.0003550 0.0551923 -0.1919999
vn 0.1578264 0.7100977 -0.6861867
v 0.0122025 0.0537025 -0.1919999
vn 0.0883539 -0.4403893 0.8934489
v 0.0043116 -0.1074450 0.0462308
vn -0.1121401 -0.2133316 0.9705227
v -0.0058652 -0.0920555 0.0497369
vn -0.0897068 -0.4591716 0.8838066
v -0.0043227 -0.1074172 0.0461527
vn -0.1376151 -0.9520987 0.2730754
v -0.0082655 -0.1267326 0.0162014
vn -0.0948225 -0.9879437 0.1223760
v -0.0057686 -0.1287418 0.0078557
vn 0.0732057 -0.9723545 0.2217382
v 0.0042039 -0.1279181 0.0136598
vn 0.0665639 -0.9211457 0.3834839
v 0.0039278 -0.1250914 0.0225939
vn -0.1754884 -0.8830854 0.4351597
v -0.0112115 -0.1224777 0.0261508
vn -0.5842811 -0.0822985 0.8073676
v -0.0318289 -0.0640683 0.0450332
vn -0.4699956 -0.8566133 0.2128797
v -0.0282799 -0.1207732 0.0132274
vn -0.3204292 -0.9378192 0.1334926
v -0.0192735 -0.1258211 0.0080081
vn -0.6707147 -0.7397300 -0.0542337
v -0.0407676 -0.1135654 -0.0035664
vn -0.8991743 -0.4374532 0.0109754
v -0.0465462 -0.1072186 -0.0003182
vn -0.6998529 -0.1539853 -0.6974916
v -0.0536675 -0.0132066 -0.1920035
vn 0.6360443 -0.2755493 -0.7207776
v 0.0496221 -0.0247774 -0.1919990
vn -0.6436247 -0.1937034 0.7404230
v -0.0340365 -0.0837142 0.0389406
vn -0.5138727 -0.8569683 -0.0392451
v -0.0309226 -0.1209310 -0.0022429
vn -0.3833539 -0.9234828 -0.0148111
v -0.0228922 -0.1250057 -0.0007353
vn -0.5671908 -0.7971673 -0.2069274
v -0.0338934 -0.1175636 -0.0125580
vn -0.2622294 -0.9492800 -0.1735035
v -0.0155493 -0.1265690 -0.0104242
vn -0.6951188 0.2342587 -0.6796563
v -0.0523345 0.0175231 -0.1920001
vn -0.4439034 0.8894311 0.1089133
v -0.0254241 0.0488317 -0.1266584
vn 0.9808131 -0.1859002 0.0587087
v 0.0506494 -0.0876873 0.0036588
vn 0.5975594 0.4295060 -0.6770874
v 0.0447891 0.0323451 -0.1920000
vn 0.4571986 0.5709739 -0.6818785
v 0.0342917 0.0431697 -0.1919996
vn 0.6674353 0.7410666 0.0731470
v 0.0374778 0.0404665 -0.1257019
vn 0.8869754 -0.4616411 0.0127333
v 0.0464443 -0.1073876 0.0001038
vn 0.6689016 -0.7296406 0.1421102
v 0.0405139 -0.1130368 0.0089210
vn 0.6263413 -0.7775294 -0.0560765
v 0.0374839 -0.1162717 -0.0036150
vn 0.8357935 -0.5403021 -0.0975853
v 0.0454592 -0.1084580 -0.0057030
vn 0.6819859 0.2611373 -0.6831564
v 0.0518228 0.0188004 -0.1920000
vn 0.8182871 0.5731738 0.0433376
v 0.0455604 0.0309448 -0.1235965
vn 0.2983554 -0.9517701 -0.0715386
v 0.0178707 -0.1266817 -0.0047686
vn 0.5055657 -0.8610784 0.0542897
v 0.0305076 -0.1212199 0.0033920
vn 0.3525788 -0.9268613 0.1289048
v 0.0206773 -0.1252305 0.0083392
vn 0.0786134 -0.9966568 0.0222545
v 0.0048776 -0.1293731 0.0009469
vn 0.1531388 -0.9766896 -0.1504190
v 0.0089435 -0.1281636 -0.0091809
vn 0.2213945 -0.9711528 0.0885822
v 0.0134658 -0.1277832 0.0052686
vn -0.1862784 -0.9824594 0.0086035
v -0.0112721 -0.1285128 0.0002500
vn 0.2805055 -0.9150282 0.2898969
v 0.0173846 -0.1244110 0.0173124
vn -0.0551394 -0.8519366 0.5207337
v -0.0027438 -0.1205771 0.0314614
vn 0.0484911 -0.6923457 0.7199348
v 0.0032661 -0.1109541 0.0434546
vn 0.0639977 -0.8125198 0.5794100
v 0.0039112 -0.1182172 0.0349819
vn 0.2041249 -0.7251729 0.6576149
v 0.0116795 -0.1131730 0.0395487
vn -0.1417356 -0.7438648 0.6531280
v -0.0089003 -0.1138384 0.0396105
vn -0.2794119 -0.4529206 0.8466357
v -0.0145515 -0.1073789 0.0441915
vn -0.3045761 -0.7070163 0.6382487
v -0.0181668 -0.1119318 0.0383698
vn -0.2939679 -0.8193317 0.4922179
v -0.0180386 -0.1186646 0.0295656
vn -0.4714127 -0.8112441 0.3459089
v -0.0282657 -0.1183074 0.0206758
vn -0.3168900 -0.9015059 0.2947337
v -0.0192342 -0.1236332 0.0175197
vn -0.4302786 -0.7423130 0.5136456
v -0.0255016 -0.1144078 0.0308291
vn -0.5910578 -0.6983196 0.4037332
v -0.0352148 -0.1116234 0.0243907
vn -0.7147334 -0.6598276 -0.2319130
v -0.0423793 -0.1096732 -0.0139655
vn -0.5365692 -0.3907741 -0.7479232
v -0.0429418 -0.0350201 -0.1919990
vn 0.4289145 -0.8548589 -0.2919736
v 0.0254120 -0.1209448 -0.0176319
vn 0.4466099 -0.8862984 -0.1225355
v 0.0266633 -0.1228544 -0.0077201
vn -0.4825633 -0.4550175 0.7483928
v -0.0248766 -0.1074839 0.0391309
vn 0.0656999 -0.2021885 0.9771404
v 0.0037941 -0.0890314 0.0505244
vn -0.8517079 -0.5088702 -0.1250799
v -0.0455866 -0.1077576 -0.0072536
vn -0.1544430 0.7089517 -0.6881388
v -0.0120787 0.0537230 -0.1920000
vn -0.1513926 0.9782136 0.1420508
v -0.0088572 0.0542455 -0.1260155
vn -0.2907617 0.9483452 0.1268814
v -0.0155603 0.0527986 -0.1265961
vn -0.2867083 0.6686872 -0.6860437
v -0.0215486 0.0507440 -0.1919997
vn 0.8476998 -0.0908716 0.5226351
v 0.0465276 -0.0646805 0.0292947
vn 0.8758970 -0.1987827 0.4396475
v 0.0447276 -0.0911454 0.0225277
vn 0.3075051 0.6619086 -0.6836064
v 0.0229131 0.0501509 -0.1919998
vn 0.3643422 -0.8466945 0.3877668
v 0.0213236 -0.1204049 0.0236989
vn 0.4882330 -0.8429660 0.2259137
v 0.0293069 -0.1202418 0.0131049
vn 0.5713961 -0.7506307 0.3317531
v 0.0344719 -0.1143892 0.0202962
vn -0.6477717 -0.4566250 0.6098241
v -0.0339947 -0.1075228 0.0316768
vn 0.7349480 -0.0870111 0.6725181
v 0.0405938 -0.0644057 0.0371269
vn 0.7768986 -0.1984820 0.5975229
v 0.0400623 -0.0900843 0.0304051
vn 0.7505966 -0.4572076 0.4770389
v 0.0393186 -0.1073713 0.0246629
vn 0.5967230 -0.0877246 0.7976378
v 0.0328579 -0.0643268 0.0441512
vn 0.6183245 -0.1953370 0.7612610
v 0.0323157 -0.0854485 0.0399413
vn 0.4121869 -0.1892997 0.8912169
v 0.0213513 -0.0843244 0.0470179
vn 0.4413008 -0.4518384 0.7753036
v 0.0226619 -0.1075105 0.0405119
vn 0.3651928 -0.6970124 0.6170964
v 0.0217542 -0.1112721 0.0372674
vn 0.6303014 -0.4497304 0.6328213
v 0.0332836 -0.1072906 0.0325460
vn -0.0019664 -0.9682675 -0.2499085
v 0.0000520 -0.1278351 -0.0143345
vn -0.7960554 -0.1939545 0.5733041
v -0.0413345 -0.0845384 0.0306315
vn -0.4007741 0.6024418 -0.6902493
v -0.0307734 0.0456359 -0.1919996
vn 0.8191421 -0.4636616 0.3376748
v 0.0429320 -0.1074180 0.0176654
vn 0.8762240 -0.4473704 0.1791402
v 0.0454426 -0.1073381 0.0096592
vn -0.0139674 -0.9982127 -0.0581058
v -0.0002518 -0.1293711 -0.0041505
vn 0.2204960 -0.8361101 0.5022961
v 0.0138196 -0.1193677 0.0305239
vn 0.3639782 -0.7761017 0.5149621
v 0.0216195 -0.1163779 0.0306335
vn 0.2309147 -0.2054802 0.9510291
v 0.0113042 -0.0910723 0.0489536
vn 0.5048100 -0.7233989 0.4710211
v 0.0305692 -0.1128952 0.0281450
vn -0.5057731 0.5228677 -0.6861508
v -0.0378746 0.0400311 -0.1920000
vn -0.9067067 0.4211055 0.0235209
v -0.0501335 0.0227437 -0.1220738
vn 0.2676456 -0.4486415 0.8526938
v 0.0136920 -0.1071989 0.0444347
vn -0.1328489 -0.9801666 -0.1470536
v -0.0082425 -0.1283346 -0.0086032
vn -0.7136759 0.6975764 0.0636713
v -0.0396950 0.0381363 -0.1251781
vn -0.6110760 0.4015802 -0.6821433
v -0.0458852 0.0305509 -0.1920000
vn -0.8211939 0.5690480 0.0427191
v -0.0457979 0.0305843 -0.1234796
# 152 vertices, 0 vertices normals

f 1//1 2//2 3//3
f 4//4 5//5 6//6
f 7//7 8//8 9//9
f 10//10 11//11 12//12
f 13//13 14//14 15//15
f 16//16 17//17 18//18
f 19//19 20//20 21//21
f 22//22 23//23 24//24
f 25//25 15//15 14//14
f 26//26 27//27 14//14
f 28//28 29//29 30//30
f 31//31 32//32 33//33
f 11//11 34//34 12//12
f 35//35 13//13 15//15
f 36//36 37//37 5//5
f 38//38 37//37 36//36
f 20//20 39//39 21//21
f 40//40 29//29 28//28
f 34//34 41//41 42//42
f 34//34 42//42 12//12
f 16//16 18//18 42//42
f 41//41 16//16 42//42
f 43//43 5//5 4//4
f 43//43 36//36 5//5
f 4//4 15//15 25//25
f 20//20 44//44 45//45
f 45//45 46//46 20//20
f 47//47 48//48 45//45
f 49//49 45//45 48//48
f 50//50 51//51 52//52
f 53//53 9//9 54//54
f 27//27 25//25 14//14
f 53//53 7//7 9//9
f 27//27 55//55 25//25
f 27//27 26//26 56//56
f 57//57 58//58 59//59
f 60//60 61//61 62//62
f 63//63 64//64 60//60
f 19//19 65//65 43//43
f 65//65 19//19 21//21
f 32//32 66//66 33//33
f 67//67 66//66 32//32
f 68//68 31//31 69//69
f 30//30 70//70 69//69
f 23//23 10//10 24//24
f 22//22 24//24 71//71
f 6//6 5//5 58//58
f 58//58 5//5 37//37
f 70//70 49//49 48//48
f 72//72 65//65 21//21
f 73//73 16//16 74//74
f 73//73 74//74 32//32
f 16//16 75//75 17//17
f 16//16 41//41 76//76
f 77//77 48//48 47//47
f 44//44 20//20 78//78
f 53//53 54//54 79//79
f 80//80 81//81 82//82
f 83//83 71//71 53//53
f 84//84 85//85 86//86
f 1//1 3//3 79//79
f 87//87 8//8 7//7
f 82//82 9//9 88//88
f 82//82 81//81 52//52
f 89//89 90//90 91//91
f 92//92 93//93 89//89
f 92//92 89//89 94//94
f 95//95 92//92 61//61
f 61//61 92//92 62//62
f 94//94 96//96 62//62
f 63//63 62//62 96//96
f 97//97 64//64 63//63
f 98//98 99//99 100//100
f 101//101 102//102 103//103
f 97//97 63//63 99//99
f 64//64 101//101 104//104
f 97//97 101//101 64//64
f 104//104 105//105 106//106
f 104//104 107//107 105//105
f 105//105 108//108 33//33
f 105//105 33//33 66//66
f 106//106 64//64 104//104
f 105//105 66//66 106//106
f 106//106 66//66 67//67
f 69//69 28//28 30//30
f 109//109 110//110 75//75
f 11//11 10//10 111//111
f 86//86 22//22 71//71
f 11//11 112//112 89//89
f 113//113 102//102 38//38
f 37//37 38//38 102//102
f 65//65 38//38 36//36
f 65//65 36//36 43//43
f 114//114 6//6 58//58
f 45//45 49//49 46//46
f 39//39 20//20 46//46
f 61//61 60//60 67//67
f 95//95 61//61 67//67
f 95//95 67//67 74//74
f 115//115 70//70 110//110
f 55//55 116//116 117//117
f 25//25 43//43 4//4
f 117//117 43//43 25//25
f 117//117 19//19 43//43
f 78//78 118//118 119//119
f 80//80 8//8 87//87
f 8//8 88//88 9//9
f 2//2 51//51 50//50
f 120//120 121//121 2//2
f 83//83 53//53 79//79
f 84//84 86//86 83//83
f 22//22 86//86 85//85
f 22//22 85//85 23//23
f 90//90 85//85 84//84
f 88//88 80//80 82//82
f 122//122 26//26 52//52
f 26//26 50//50 52//52
f 122//122 56//56 26//26
f 55//55 27//27 56//56
f 94//94 89//89 91//91
f 96//96 94//94 91//91
f 123//123 124//124 125//125
f 103//103 104//104 101//101
f 103//103 113//113 107//107
f 113//113 126//126 107//107
f 58//58 102//102 59//59
f 57//57 59//59 98//98
f 58//58 57//57 114//114
f 101//101 99//99 98//98
f 107//107 104//104 103//103
f 60//60 62//62 63//63
f 33//33 28//28 31//31
f 75//75 18//18 17//17
f 75//75 110//110 18//18
f 68//68 32//32 31//31
f 111//111 10//10 23//23
f 127//127 120//120 50//50
f 127//127 50//50 14//14
f 128//128 129//129 121//121
f 6//6 15//15 4//4
f 6//6 35//35 15//15
f 35//35 6//6 114//114
f 13//13 130//130 14//14
f 131//131 132//132 133//133
f 134//134 135//135 133//133
f 46//46 49//49 30//30
f 30//30 49//49 70//70
f 126//126 108//108 107//107
f 136//136 41//41 34//34
f 74//74 67//67 32//32
f 106//106 60//60 64//64
f 75//75 16//16 73//73
f 109//109 115//115 110//110
f 115//115 69//69 70//70
f 115//115 109//109 68//68
f 137//137 72//72 21//21
f 25//25 55//55 117//117
f 118//118 117//117 116//116
f 19//19 117//117 118//118
f 78//78 138//138 44//44
f 78//78 19//19 118//118
f 20//20 19//19 78//78
f 120//120 2//2 50//50
f 3//3 121//121 139//139
f 2//2 121//121 3//3
f 140//140 79//79 3//3
f 82//82 51//51 9//9
f 83//83 86//86 71//71
f 1//1 79//79 54//54
f 140//140 83//83 79//79
f 83//83 140//140 84//84
f 81//81 122//122 52//52
f 51//51 82//82 52//52
f 62//62 92//92 94//94
f 92//92 141//141 93//93
f 96//96 124//124 123//123
f 99//99 63//63 142//142
f 113//113 103//103 102//102
f 142//142 143//143 134//134
f 134//134 100//100 142//142
f 114//114 57//57 144//144
f 101//101 59//59 102//102
f 97//97 99//99 101//101
f 126//126 113//113 72//72
f 108//108 105//105 107//107
f 40//40 33//33 108//108
f 33//33 40//40 28//28
f 31//31 28//28 69//69
f 69//69 115//115 68//68
f 75//75 68//68 109//109
f 90//90 124//124 91//91
f 127//127 131//131 128//128
f 131//131 135//135 128//128
f 100//100 134//134 133//133
f 131//131 130//130 13//13
f 130//130 127//127 14//14
f 123//123 125//125 145//145
f 123//123 145//145 143//143
f 134//134 145//145 135//135
f 58//58 37//37 102//102
f 72//72 38//38 65//65
f 29//29 40//40 39//39
f 39//39 46//46 29//29
f 137//137 39//39 40//40
f 137//137 126//126 72//72
f 46//46 30//30 29//29
f 136//136 34//34 93//93
f 76//76 95//95 74//74
f 106//106 67//67 60//60
f 138//138 146//146 44//44
f 147//147 47//47 45//45
f 118//118 116//116 119//119
f 80//80 88//88 8//8
f 3//3 139//139 140//140
f 125//125 84//84 139//139
f 129//129 125//125 139//139
f 26//26 14//14 50//50
f 96//96 91//91 124//124
f 142//142 96//96 123//123
f 100//100 99//99 142//142
f 72//72 113//113 38//38
f 143//143 145//145 134//134
f 142//142 123//123 143//143
f 144//144 57//57 148//148
f 101//101 98//98 59//59
f 126//126 40//40 108//108
f 73//73 68//68 75//75
f 73//73 32//32 68//68
f 11//11 111//111 112//112
f 90//90 112//112 85//85
f 112//112 90//90 89//89
f 112//112 111//111 23//23
f 124//124 84//84 125//125
f 127//127 128//128 120//120
f 129//129 128//128 135//135
f 13//13 132//132 131//131
f 130//130 131//131 127//127
f 131//131 133//133 135//135
f 137//137 21//21 39//39
f 41//41 149//149 76//76
f 74//74 16//16 76//76
f 119//119 138//138 78//78
f 150//150 151//151 152//152
f 152//152 147//147 45//45
f 140//140 139//139 84//84
f 1//1 54//54 9//9
f 141//141 92//92 95//95
f 76//76 149//149 95//95
f 136//136 93//93 141//141
f 132//132 13//13 35//35
f 148//148 98//98 100//100
f 148//148 57//57 98//98
f 40//40 126//126 137//137
f 112//112 23//23 85//85
f 90//90 84//84 124//124
f 148//148 133//133 132//132
f 144//144 148//148 132//132
f 136//136 149//149 41//41
f 93//93 11//11 89//89
f 11//11 93//93 34//34
f 44//44 146//146 150//150
f 44//44 150//150 45//45
f 146//146 151//151 150//150
f 45//45 150//150 152//152
f 147//147 151//151 77//77
f 129//129 139//139 121//121
f 128//128 121//121 120//120
f 145//145 125//125 129//129
f 129//129 135//135 145//145
f 1//1 9//9 51//51
f 51//51 2//2 1//1
f 95//95 149//149 141//141
f 142//142 63//63 96//96
f 100//100 133//133 148//148
f 132//132 35//35 144//144
f 77//77 47//47 147//147
f 136//136 141//141 149//149
f 144//144 35//35 114//114
f 147//147 152//152 151//151
f 71//71 24//24 151//151
f 151//151 56//56 122//122
f 12//12 42//42 151//151
f 7//7 53//53 151//151
f 18//18 110//110 151//151
f 48//48 77//77 151//151
f 151//151 24//24 10//10
f 42//42 18//18 151//151
f 146//146 138//138 151//151
f 151//151 80//80 87//87
f 81//81 80//80 151//151
f 53//53 71//71 151//151
f 151//151 10//10 12//12
f 151//151 110//110 70//70
f 151//151 55//55 56//56
f 119//119 116//116 151//151
f 151//151 87//87 7//7
f 116//116 55//55 151//151
f 122//122 81//81 151//151
f 70//70 48//48 151//151
f 151//151 138//138 119//119
# 300 faces, 0 coords texture

# End of File
