####
#
# OBJ File Generated by Meshlab
#
####
# Object link4.obj
#
# Vertices: 152
# Faces: 300
#
####
vn 0.4058561 -0.7059385 0.5804582
v 0.0225689 -0.0395566 0.0936920
vn 0.6291407 -0.5241438 0.5739821
v 0.0349857 -0.0291754 0.0937601
vn 0.3937707 -0.3451861 0.8519338
v 0.0278036 -0.0243115 0.1009431
vn 0.7739870 -0.2407890 0.5856320
v 0.0433617 -0.0139189 0.0938607
vn 0.4527189 0.8906618 0.0420393
v -0.0277001 0.1240000 0.0061219
vn 0.0583032 0.8491730 0.5248867
v -0.0723802 0.1239992 0.0545288
vn 0.2375783 0.8966049 0.3737061
v -0.0513802 0.1239994 0.0457533
vn 0.8107033 0.5390222 -0.2285068
v 0.0452131 0.0316640 0.0011187
vn 0.4504053 0.8060297 -0.3839938
v -0.0370906 0.1239982 -0.0318319
vn 0.4756569 0.8717631 -0.1173867
v -0.0281717 0.1239996 -0.0105193
vn -0.0573559 0.6671530 -0.7427093
v -0.0861436 0.1239676 -0.0552066
vn 0.1255300 0.6740528 -0.7279389
v -0.0742379 0.1239964 -0.0545801
vn 0.3266800 0.4652197 0.8227094
v 0.0218268 0.0299403 0.1009292
vn 0.3174456 0.6948595 -0.6452895
v -0.0548461 0.1240095 -0.0479598
vn 0.7112420 -0.6936303 0.1140691
v 0.0379847 -0.0364881 0.0652637
vn 0.5780254 -0.7663942 0.2802259
v 0.0290268 -0.0392658 0.0847768
vn 0.4872967 -0.8651419 0.1186229
v 0.0264266 -0.0457158 0.0657169
vn 0.5200611 -0.6568326 -0.5459921
v 0.0340658 -0.0436073 0.0005395
vn 0.7606066 -0.5907894 0.2691569
v 0.0387193 -0.0298809 0.0844760
vn -0.3725104 0.6978833 0.6117147
v -0.1092953 0.1240034 0.0484872
vn -0.1523264 0.7771731 0.6105723
v -0.0922486 0.1240005 0.0542930
vn 0.4982932 -0.1533042 0.8533474
v 0.0352073 -0.0108453 0.1009136
vn 0.2699006 -0.1188078 0.9555305
v 0.0165641 -0.0076180 0.1083491
vn 0.8585044 -0.4099117 0.3081277
v 0.0435987 -0.0202372 0.0870457
vn 0.3585184 -0.7614754 -0.5400184
v 0.0225794 -0.0504143 0.0005581
vn 0.1137962 -0.2745127 -0.9548262
v -0.0765705 0.0398249 -0.0452760
vn 0.6591962 -0.5092974 -0.5532419
v 0.0438956 -0.0335510 0.0005210
vn 0.0866972 0.4805131 0.8726918
v 0.0020492 0.0376640 0.1007900
vn 0.3871630 0.9007078 0.1970543
v -0.0330680 0.1239987 0.0256630
vn 0.7964736 0.5894171 0.1349719
v 0.0413396 0.0323563 0.0662980
vn 0.8611259 0.1459553 -0.4869900
v 0.0543498 0.0103732 0.0006420
vn 0.9200794 0.3716976 0.1236729
v 0.0487373 0.0204309 0.0656663
vn 0.9920657 0.0430180 0.1181318
v 0.0528774 0.0018391 0.0649284
vn 0.3540428 -0.8849557 0.3025015
v 0.0186238 -0.0443663 0.0869201
vn 0.8563431 -0.5029666 0.1170518
v 0.0454452 -0.0267077 0.0654180
vn 0.1697266 -0.1411126 -0.9753359
v -0.0734579 0.0694800 -0.0505589
vn 0.2354715 -0.0924088 -0.9674781
v -0.0689704 0.0884986 -0.0517807
vn 0.7626079 -0.3480207 -0.5452622
v 0.0504052 -0.0228559 0.0006274
vn -0.7283860 -0.0695998 0.6816229
v -0.1221933 0.0955317 0.0368938
vn -0.5422139 -0.1944338 0.8174348
v -0.0349356 -0.0120550 0.1008855
vn -0.5059826 -0.0066761 0.8625178
v -0.0370272 0.0027443 0.1008444
vn -0.2413505 0.1668446 0.9559879
v -0.0151649 0.0091090 0.1086633
vn -0.3599309 0.1715758 0.9170668
v -0.0325750 0.0174211 0.1009061
vn -0.5131551 0.6694805 0.5370920
v -0.1203910 0.1239681 0.0403303
vn -0.6266683 0.6687064 0.4001482
v -0.1290903 0.1239721 0.0297955
vn 0.8192959 0.0862289 0.5668499
v 0.0456334 0.0045676 0.0929286
vn 0.5355828 0.0552722 0.8426720
v 0.0367035 0.0035990 0.1009534
vn 0.9498148 0.0644773 0.3060958
v 0.0480490 0.0032921 0.0873991
vn 0.3134212 0.0227003 0.9493428
v 0.0191766 0.0015681 0.1080306
vn 0.2020347 -0.2422742 0.9489390
v 0.0129463 -0.0151150 0.1078149
vn 0.0538352 -0.1188126 0.9914562
v 0.0037967 -0.0070786 0.1107582
vn 0.1438509 0.0415281 0.9887276
v 0.0088515 0.0024763 0.1105426
vn 0.1913422 -0.4926467 0.8489331
v 0.0134306 -0.0343420 0.1009799
vn -0.7727846 -0.2317482 0.5908442
v -0.1193176 0.0435436 0.0286429
vn -0.7135972 -0.4011385 0.5743405
v -0.0418584 -0.0209428 0.0896924
vn -0.4477162 -0.3619510 0.8176440
v -0.0287434 -0.0230392 0.1009351
vn -0.2150028 -0.1601941 0.9633855
v -0.0133221 -0.0098899 0.1089746
vn -0.0987258 0.2891079 0.9521921
v -0.0057652 0.0182159 0.1081005
vn -0.7380837 0.6734670 0.0409228
v -0.1376069 0.1239982 0.0032398
vn -0.9864431 -0.0484356 0.1567933
v -0.1366548 0.1045756 0.0079801
vn -0.7021543 0.6701334 0.2406253
v -0.1346613 0.1239812 0.0181685
vn 0.3256187 -0.0246894 -0.9451787
v -0.0637760 0.1079266 -0.0515011
vn 0.1679889 -0.0444893 -0.9847845
v -0.0724709 0.1057663 -0.0538652
vn -0.2690527 0.6731279 -0.6888465
v -0.1035669 0.1239939 -0.0510597
vn -0.4278595 0.6696827 -0.6070102
v -0.1135561 0.1239831 -0.0457284
vn 0.8185367 -0.1853464 -0.5437320
v 0.0540366 -0.0112615 0.0005377
vn 0.8508548 -0.0395105 -0.5239131
v 0.0551395 -0.0028144 0.0005786
vn 0.8376030 0.3501409 -0.4193120
v 0.0502325 0.0231439 0.0005683
vn -0.0836233 -0.1220317 -0.9889972
v -0.0871983 0.0796108 -0.0524394
vn -0.0065919 -0.0753941 -0.9971321
v -0.0824021 0.0929204 -0.0539049
vn 0.1792742 -0.9766871 0.1180808
v 0.0091533 -0.0520799 0.0654662
vn -0.6951494 -0.6263765 -0.3527320
v -0.1182371 0.0289715 -0.0185448
vn -0.6090668 -0.6319081 -0.4793015
v -0.1143420 0.0286180 -0.0241153
vn -0.5311805 -0.8027428 -0.2710193
v -0.0316712 -0.0451950 0.0008727
vn -0.2704570 0.0053661 0.9627171
v -0.0160194 0.0012953 0.1091439
vn 0.7639115 0.3428822 0.5466909
v 0.0424346 0.0183174 0.0921958
vn 0.8965766 0.3506480 0.2705483
v 0.0450462 0.0183266 0.0855205
vn 0.9553777 -0.2672776 0.1257623
v 0.0505718 -0.0147427 0.0665108
vn 0.9382844 -0.1711705 0.3005381
v 0.0474745 -0.0095727 0.0861654
vn 0.1251077 0.2815332 0.9513607
v 0.0077159 0.0171866 0.1082341
vn -0.0711913 0.0445179 0.9964688
v -0.0043460 0.0029630 0.1110521
vn 0.2485561 0.1687386 0.9538067
v 0.0152835 0.0100143 0.1083560
vn -0.6245720 -0.6170316 0.4787293
v -0.0327777 -0.0339139 0.0900050
vn -0.8122149 -0.3568476 0.4614833
v -0.1215475 0.0375070 0.0222519
vn -0.4099129 -0.9032163 0.1271684
v -0.0223471 -0.0476243 0.0661523
vn -0.3613157 -0.8418157 -0.4009956
v -0.0235224 -0.0499681 0.0006170
vn -0.1495282 -0.8682007 -0.4731478
v -0.0106811 -0.0542888 0.0005617
vn 0.1098752 -0.9529616 0.2824741
v 0.0057155 -0.0481660 0.0861433
vn -0.6606072 0.6795484 -0.3190802
v -0.1321183 0.1239979 -0.0240179
vn -0.7221145 0.6758708 -0.1474767
v -0.1364451 0.1239981 -0.0114170
vn -0.5669273 0.6773164 -0.4688666
v -0.1253350 0.1239996 -0.0346699
vn 0.2262824 -0.8161274 -0.5317259
v 0.0149500 -0.0531372 0.0005685
vn 0.0626590 -0.8584455 -0.5090631
v 0.0040730 -0.0551497 0.0006227
vn -0.0761196 -0.3526971 -0.9326364
v -0.0860069 0.0375729 -0.0448194
vn 0.5790154 0.6076373 0.5436158
v 0.0317744 0.0338598 0.0916756
vn -0.5010240 -0.5841115 -0.6385834
v -0.1078739 0.0301999 -0.0323392
vn -0.2699679 -0.5371960 -0.7990856
v -0.0950795 0.0309477 -0.0397723
vn -0.5966811 -0.7895030 0.1437245
v -0.0319924 -0.0415770 0.0668301
vn -0.7250007 -0.6869095 0.0502943
v -0.1206758 0.0266560 0.0030861
vn -0.9393418 -0.1016154 0.3275841
v -0.1328525 0.0852700 0.0175676
vn -0.9289068 -0.1957765 0.3143307
v -0.1283222 0.0524202 0.0153927
vn -0.8699482 -0.1563538 0.4677004
v -0.1272198 0.0651773 0.0238660
vn -0.8647439 -0.0678370 0.4976103
v -0.1293775 0.0959188 0.0271857
vn -0.7557736 -0.1300071 0.6417978
v -0.1220104 0.0745207 0.0337353
vn -0.8676035 -0.2393340 -0.4358710
v -0.1235898 0.0421127 -0.0211134
vn -0.9012223 -0.3883550 -0.1922984
v -0.1261984 0.0363929 -0.0092067
vn -0.9506291 -0.1699247 -0.2596729
v -0.1307130 0.0611800 -0.0132701
vn -0.8421899 -0.3989023 -0.3627576
v -0.1230636 0.0358186 -0.0177239
vn -0.7285814 -0.6622302 -0.1749865
v -0.1204884 0.0276725 -0.0095493
vn 0.7620490 0.5738891 0.2998880
v 0.0383281 0.0297736 0.0856361
vn 0.0389718 0.1951691 0.9799950
v 0.0027639 0.0122881 0.1098762
vn 0.4810753 0.2663064 0.8352529
v 0.0325199 0.0171497 0.1009658
vn -0.0832385 -0.2650747 0.9606284
v -0.0048017 -0.0165821 0.1087567
vn -0.2515272 -0.4979289 0.8299403
v -0.0161754 -0.0332713 0.1009323
vn -0.0284851 -0.5414732 0.8402354
v -0.0013044 -0.0367864 0.1009215
vn -0.1331926 -0.8570429 0.4977321
v -0.0066239 -0.0462178 0.0914974
vn -0.1434781 -0.9807194 0.1326784
v -0.0073427 -0.0521239 0.0669492
vn -0.2141641 -0.0483270 -0.9756015
v -0.0942551 0.1064074 -0.0534897
vn -0.9965584 -0.0612924 -0.0558102
v -0.1368056 0.0989925 -0.0036942
vn -0.9505345 -0.3013997 -0.0751160
v -0.1279783 0.0398431 -0.0044483
vn -0.9812623 -0.1898696 -0.0327692
v -0.1308178 0.0522117 -0.0014832
vn 0.0174110 -0.1810384 -0.9833219
v -0.0810356 0.0566239 -0.0491713
vn -0.6453271 -0.3236252 -0.6919680
v -0.1138253 0.0386823 -0.0327643
vn -0.4644620 -0.4201581 -0.7795783
v -0.1050995 0.0354588 -0.0378030
vn -0.2815152 -0.0997173 -0.9543614
v -0.0976605 0.0852413 -0.0510581
vn -0.4283888 -0.1395819 -0.8927485
v -0.1050040 0.0733220 -0.0467454
vn -0.4075947 -0.0529247 -0.9116279
v -0.1050423 0.1023249 -0.0496378
vn -0.2810300 -0.3230119 -0.9037066
v -0.0959132 0.0383645 -0.0432460
vn -0.8930860 -0.3292549 0.3065757
v -0.1250885 0.0380429 0.0147857
vn -0.7827713 -0.5544179 0.2826479
v -0.1217321 0.0312471 0.0143147
vn -0.9876953 -0.1066574 0.1143774
v -0.1352741 0.0842440 0.0061787
vn -0.9770622 -0.1576700 0.1431422
v -0.1323546 0.0634132 0.0070059
vn -0.8699434 -0.1586570 -0.4669329
v -0.1271277 0.0647481 -0.0238863
vn 0.1314186 -0.8106538 0.5705871
v 0.0071299 -0.0452175 0.0930405
vn 0.0677352 -0.3059476 0.9496357
v 0.0041045 -0.0190160 0.1079123
vn -0.3285188 -0.8168498 0.4741643
v -0.0176536 -0.0435023 0.0908335
vn -0.4951529 -0.7229714 0.4818050
v -0.0261703 -0.0390147 0.0905425
vn -0.9152299 -0.1022553 -0.3897411
v -0.1316881 0.0870915 -0.0208239
vn -0.8577105 -0.0463756 -0.5120372
v -0.1297646 0.1062242 -0.0276716
vn -0.4796859 -0.2435258 -0.8429689
v -0.1054667 0.0423271 -0.0402281
vn -0.9358903 -0.3293146 0.1251452
v -0.1273357 0.0382521 0.0060087
vn -0.8579187 -0.5108184 0.0551377
v -0.1246484 0.0319992 0.0033273
vn -0.7374541 -0.3746704 -0.5619463
v -0.1180123 0.0367743 -0.0271656
vn -0.9720598 -0.0729052 -0.2231247
v -0.1355380 0.0973064 -0.0117315
vn -0.9876345 -0.1309541 -0.0861925
v -0.1342767 0.0743398 -0.0042896
vn -0.7518171 -0.1860629 -0.6325755
v -0.1195618 0.0540339 -0.0315304
vn -0.7819454 -0.1132356 -0.6129757
v -0.1244015 0.0824655 -0.0325574
vn -0.7184066 -0.0503075 -0.6938020
v -0.1219558 0.1022603 -0.0378733
vn -0.5925141 -0.0971235 -0.7996838
v -0.1144286 0.0877588 -0.0429899
vn -0.6059986 -0.1646812 -0.7782325
v -0.1129951 0.0602612 -0.0394249
vn -0.9365014 -0.0373990 -0.3486640
v -0.1338109 0.1078792 -0.0192220
vn -0.2327194 -0.1875704 -0.9542846
v -0.0937211 0.0530713 -0.0472531
# 152 vertices, 0 vertices normals

f 1//1 2//2 3//3
f 3//3 2//2 4//4
f 5//5 6//6 7//7
f 8//8 9//9 10//10
f 11//11 5//5 12//12
f 7//7 6//6 13//13
f 5//5 8//8 10//10
f 14//14 10//10 9//9
f 15//15 16//16 17//17
f 15//15 17//17 18//18
f 15//15 19//19 16//16
f 20//20 21//21 5//5
f 22//22 3//3 4//4
f 23//23 3//3 22//22
f 2//2 24//24 4//4
f 14//14 12//12 5//5
f 14//14 5//5 10//10
f 25//25 26//26 18//18
f 27//27 18//18 26//26
f 6//6 28//28 13//13
f 29//29 30//30 5//5
f 31//31 32//32 33//33
f 16//16 34//34 17//17
f 15//15 18//18 27//27
f 15//15 35//35 19//19
f 35//35 15//15 27//27
f 1//1 16//16 2//2
f 16//16 19//19 2//2
f 27//27 26//26 36//36
f 36//36 37//37 38//38
f 39//39 40//40 41//41
f 42//42 21//21 20//20
f 20//20 43//43 42//42
f 39//39 44//44 45//45
f 20//20 41//41 43//43
f 41//41 42//42 43//43
f 19//19 24//24 2//2
f 4//4 46//46 47//47
f 46//46 4//4 48//48
f 49//49 22//22 47//47
f 22//22 49//49 23//23
f 22//22 4//4 47//47
f 3//3 23//23 50//50
f 51//51 23//23 52//52
f 53//53 1//1 3//3
f 40//40 54//54 55//55
f 56//56 57//57 40//40
f 6//6 5//5 21//21
f 6//6 21//21 28//28
f 28//28 21//21 58//58
f 59//59 60//60 61//61
f 12//12 14//14 62//62
f 63//63 62//62 37//37
f 64//64 65//65 5//5
f 5//5 11//11 64//64
f 11//11 12//12 63//63
f 37//37 62//62 66//66
f 7//7 29//29 5//5
f 14//14 31//31 67//67
f 68//68 31//31 14//14
f 32//32 8//8 30//30
f 66//66 38//38 37//37
f 69//69 70//70 36//36
f 18//18 17//17 25//25
f 17//17 34//34 71//71
f 1//1 34//34 16//16
f 35//35 27//27 38//38
f 20//20 44//44 41//41
f 20//20 5//5 44//44
f 44//44 39//39 41//41
f 72//72 73//73 74//74
f 75//75 40//40 57//57
f 48//48 76//76 46//46
f 48//48 77//77 76//76
f 24//24 35//35 78//78
f 24//24 19//19 35//35
f 79//79 24//24 78//78
f 79//79 48//48 4//4
f 79//79 78//78 33//33
f 42//42 58//58 21//21
f 80//80 13//13 28//28
f 57//57 51//51 81//81
f 52//52 49//49 82//82
f 56//56 40//40 55//55
f 83//83 56//56 55//55
f 84//84 83//83 55//55
f 85//85 86//86 87//87
f 88//88 71//71 34//34
f 5//5 61//61 45//45
f 5//5 45//45 44//44
f 59//59 61//61 5//5
f 12//12 62//62 63//63
f 89//89 90//90 5//5
f 89//89 5//5 91//91
f 26//26 92//92 93//93
f 93//93 94//94 26//26
f 26//26 25//25 92//92
f 7//7 13//13 95//95
f 30//30 8//8 5//5
f 68//68 9//9 8//8
f 68//68 14//14 9//9
f 67//67 33//33 66//66
f 31//31 68//68 32//32
f 77//77 48//48 32//32
f 32//32 48//48 33//33
f 93//93 87//87 94//94
f 96//96 97//97 86//86
f 73//73 96//96 74//74
f 96//96 86//86 74//74
f 97//97 94//94 87//87
f 70//70 11//11 63//63
f 78//78 38//38 66//66
f 71//71 25//25 17//17
f 36//36 38//38 27//27
f 98//98 83//83 99//99
f 100//100 101//101 102//102
f 103//103 104//104 39//39
f 105//105 106//106 107//107
f 108//108 106//106 105//105
f 74//74 99//99 109//109
f 109//109 72//72 74//74
f 99//99 74//74 98//98
f 40//40 75//75 41//41
f 110//110 32//32 30//30
f 79//79 4//4 24//24
f 81//81 42//42 75//75
f 52//52 80//80 111//111
f 52//52 82//82 80//80
f 49//49 47//47 112//112
f 82//82 49//49 112//112
f 13//13 80//80 82//82
f 57//57 113//113 51//51
f 23//23 49//49 52//52
f 114//114 115//115 113//113
f 114//114 116//116 115//115
f 114//114 57//57 56//56
f 114//114 113//113 57//57
f 117//117 85//85 87//87
f 62//62 14//14 67//67
f 118//118 64//64 11//11
f 119//119 60//60 59//59
f 120//120 121//121 107//107
f 91//91 5//5 65//65
f 36//36 122//122 69//69
f 93//93 92//92 71//71
f 95//95 29//29 7//7
f 29//29 95//95 110//110
f 110//110 30//30 29//29
f 80//80 28//28 58//58
f 68//68 8//8 32//32
f 67//67 31//31 33//33
f 93//93 71//71 117//117
f 123//123 124//124 96//96
f 125//125 126//126 127//127
f 97//97 87//87 86//86
f 128//128 97//97 124//124
f 35//35 38//38 78//78
f 78//78 66//66 33//33
f 84//84 129//129 130//130
f 130//130 83//83 84//84
f 100//100 131//131 132//132
f 54//54 102//102 84//84
f 103//103 102//102 104//104
f 39//39 104//104 40//40
f 103//103 100//100 102//102
f 45//45 103//103 39//39
f 132//132 101//101 100//100
f 100//100 60//60 131//131
f 133//133 105//105 107//107
f 75//75 57//57 81//81
f 41//41 75//75 42//42
f 32//32 110//110 77//77
f 48//48 79//79 33//33
f 81//81 111//111 58//58
f 58//58 42//42 81//81
f 112//112 13//13 82//82
f 95//95 13//13 112//112
f 134//134 1//1 53//53
f 134//134 34//34 1//1
f 88//88 34//34 134//134
f 50//50 53//53 3//3
f 53//53 50//50 135//135
f 115//115 116//116 134//134
f 115//115 134//134 53//53
f 117//117 136//136 85//85
f 85//85 98//98 74//74
f 74//74 86//86 85//85
f 117//117 88//88 116//116
f 114//114 137//137 136//136
f 137//137 56//56 83//83
f 137//137 114//114 56//56
f 63//63 36//36 70//70
f 60//60 100//100 61//61
f 133//133 107//107 138//138
f 139//139 89//89 91//91
f 63//63 37//37 36//36
f 122//122 36//36 26//26
f 76//76 47//47 46//46
f 112//112 47//47 76//76
f 117//117 71//71 88//88
f 87//87 93//93 117//117
f 124//124 123//123 140//140
f 97//97 96//96 124//124
f 127//127 65//65 64//64
f 25//25 71//71 92//92
f 141//141 106//106 142//142
f 120//120 106//106 141//141
f 130//130 99//99 83//83
f 60//60 119//119 131//131
f 141//141 129//129 101//101
f 55//55 54//54 84//84
f 54//54 104//104 102//102
f 105//105 143//143 108//108
f 95//95 112//112 76//76
f 76//76 110//110 95//95
f 77//77 110//110 76//76
f 51//51 52//52 81//81
f 81//81 52//52 111//111
f 135//135 50//50 51//51
f 51//51 113//113 135//135
f 135//135 115//115 53//53
f 98//98 137//137 83//83
f 137//137 85//85 136//136
f 137//137 98//98 85//85
f 116//116 136//136 117//117
f 116//116 114//114 136//136
f 61//61 103//103 45//45
f 90//90 59//59 5//5
f 90//90 119//119 59//59
f 144//144 119//119 90//90
f 145//145 131//131 119//119
f 107//107 121//121 145//145
f 120//120 107//107 106//106
f 143//143 146//146 123//123
f 146//146 143//143 105//105
f 146//146 105//105 133//133
f 147//147 133//133 138//138
f 148//148 91//91 65//65
f 139//139 91//91 148//148
f 147//147 139//139 148//148
f 125//125 64//64 118//118
f 127//127 64//64 125//125
f 126//126 149//149 127//127
f 150//150 140//140 123//123
f 147//147 148//148 149//149
f 141//141 121//121 120//120
f 142//142 99//99 130//130
f 121//121 141//141 132//132
f 132//132 141//141 101//101
f 101//101 84//84 102//102
f 101//101 129//129 84//84
f 54//54 40//40 104//104
f 103//103 61//61 100//100
f 108//108 109//109 106//106
f 109//109 108//108 72//72
f 58//58 111//111 80//80
f 23//23 51//51 50//50
f 115//115 135//135 113//113
f 116//116 88//88 134//134
f 62//62 67//67 66//66
f 89//89 151//151 90//90
f 146//146 150//150 123//123
f 138//138 139//139 147//147
f 124//124 140//140 128//128
f 128//128 140//140 152//152
f 152//152 140//140 126//126
f 147//147 150//150 146//146
f 147//147 149//149 150//150
f 147//147 146//146 133//133
f 132//132 145//145 121//121
f 109//109 142//142 106//106
f 89//89 139//139 151//151
f 97//97 128//128 94//94
f 128//128 152//152 94//94
f 150//150 149//149 126//126
f 65//65 149//149 148//148
f 65//65 127//127 149//149
f 131//131 145//145 132//132
f 107//107 144//144 138//138
f 142//142 109//109 99//99
f 11//11 70//70 69//69
f 69//69 118//118 11//11
f 72//72 143//143 73//73
f 143//143 72//72 108//108
f 126//126 140//140 150//150
f 152//152 125//125 69//69
f 130//130 141//141 142//142
f 130//130 129//129 141//141
f 151//151 144//144 90//90
f 107//107 145//145 144//144
f 138//138 144//144 151//151
f 139//139 138//138 151//151
f 126//126 125//125 152//152
f 69//69 125//125 118//118
f 144//144 145//145 119//119
f 94//94 152//152 122//122
f 94//94 122//122 26//26
f 96//96 143//143 123//123
f 143//143 96//96 73//73
f 152//152 69//69 122//122
# 300 faces, 0 coords texture

# End of File
