####
#
# OBJ File Generated by Meshlab
#
####
# Object link3.obj
#
# Vertices: 152
# Faces: 300
#
####
vn 0.4501769 -0.3348185 -0.8277906
v 0.0463010 -0.0301870 -0.1209993
vn 0.4726589 -0.0928575 -0.8763396
v 0.0549176 -0.0078349 -0.1209982
vn 0.8125310 -0.3385768 -0.4745094
v 0.1291960 0.0007765 -0.0296128
vn 0.7862913 0.4918890 -0.3738868
v 0.1247879 0.0913032 -0.0198981
vn 0.4754717 0.8303263 -0.2906629
v 0.1144398 0.1010044 -0.0191103
vn 0.8160408 0.5715792 -0.0858756
v 0.1281776 0.0930173 -0.0046627
vn -0.2683665 0.6284412 -0.7300967
v -0.0166753 0.0527578 -0.1210007
vn -0.0155705 0.9010941 -0.4333440
v 0.0780204 0.1010308 -0.0368324
vn 0.0364631 0.5437858 -0.8384316
v 0.0095064 0.0549678 -0.1209984
vn 0.2586609 0.8253864 -0.5018285
v 0.0986483 0.1010703 -0.0330431
vn 0.9572480 0.1289788 -0.2589222
v 0.1331414 0.0661252 -0.0142478
vn 0.9411713 0.2881949 -0.1764663
v 0.1301327 0.0867177 -0.0082556
vn 0.9927567 0.1190248 -0.0163502
v 0.1351741 0.0658150 -0.0012635
vn 0.4496809 -0.5450824 0.7075820
v 0.1120319 0.0006010 0.0467050
vn 0.3102778 -0.5393438 0.7828384
v 0.1024675 0.0005644 0.0514689
vn 0.0876443 -0.9485539 0.3042432
v 0.0050816 -0.0449144 -0.0383387
vn -0.1272765 -0.8896316 0.4385845
v -0.0060609 -0.0433475 -0.0347164
vn -0.0017040 -0.5053511 0.8629122
v 0.0821892 0.0005677 0.0551564
vn 0.1546947 -0.5201866 0.8399259
v 0.0919230 0.0006112 0.0545111
vn 0.5674074 0.5400474 -0.6216089
v 0.1139079 0.0915453 -0.0344387
vn -0.5270790 -0.2751130 0.8040526
v 0.0511922 0.0008846 0.0454642
vn -0.6566144 -0.2624722 0.7070827
v -0.0348435 -0.0139181 -0.0261534
vn -0.5810118 -0.4359236 0.6873106
v -0.0301869 -0.0231463 -0.0266450
vn -0.5672022 -0.5892181 0.5754161
v -0.0284693 -0.0295749 -0.0301705
vn -0.4468405 -0.6666463 0.5965872
v -0.0226090 -0.0338033 -0.0297221
vn -0.6687032 0.3384876 -0.6620138
v -0.0496153 0.0246669 -0.1209927
vn -0.9449716 0.3148587 0.0888415
v -0.0511328 0.0166096 -0.0899536
vn -0.8727830 0.4845891 0.0585087
v -0.0480287 0.0259029 -0.1015935
vn -0.7332813 0.6786585 0.0414878
v -0.0397191 0.0379172 -0.1069774
vn -0.4976998 0.5486417 -0.6717792
v -0.0370867 0.0410233 -0.1210175
vn 0.8601957 -0.5065449 -0.0589548
v 0.1375612 0.0005913 -0.0051987
vn 0.8493466 -0.4571202 -0.2639160
v 0.1349796 0.0005820 -0.0173093
vn 0.2677829 0.1328131 0.9542814
v 0.0971327 0.0663088 0.0504643
vn 0.4542831 0.1172112 0.8831130
v 0.1064533 0.0656105 0.0468808
vn 0.4206086 0.2834921 0.8618124
v 0.1041939 0.0864487 0.0433010
vn 0.6371706 0.1274475 0.7601123
v 0.1159613 0.0665443 0.0405958
vn 0.2556478 0.3491863 -0.9015061
v 0.0351182 0.0430100 -0.1209984
vn -0.1309056 0.9659595 -0.2231279
v 0.0747424 0.1091982 -0.0137680
vn -0.0012406 0.9433837 -0.3317012
v 0.0822207 0.1075661 -0.0204260
vn 0.3758902 0.1795493 -0.9091032
v 0.0498812 0.0237866 -0.1210000
vn 0.0401779 -0.9975393 0.0574544
v 0.0019348 -0.0545336 -0.1018756
vn -0.1073423 -0.7314900 -0.6733499
v -0.0071300 -0.0546677 -0.1209946
vn 0.0782687 -0.7363598 -0.6720479
v 0.0057353 -0.0549172 -0.1209982
vn 0.8925807 0.1251423 -0.4331734
v 0.1300172 0.0653507 -0.0227708
vn 0.5746636 -0.5524618 0.6037779
v 0.1205424 0.0005463 0.0400580
vn 0.6719673 -0.5575881 0.4873966
v 0.1273078 0.0005073 0.0322474
vn 0.7599372 -0.5468078 0.3514210
v 0.1323779 0.0006085 0.0238331
vn 0.8207424 0.1201428 0.5585227
v 0.1258525 0.0659154 0.0300172
vn 0.9530047 0.1258155 0.2755949
v 0.1332416 0.0661993 0.0143840
vn 0.8287645 -0.5356181 0.1620576
v 0.1368893 0.0005442 0.0102117
vn 0.5847670 0.5744188 0.5727918
v 0.1145473 0.0938091 0.0321403
vn 0.7081220 0.5879942 0.3909298
v 0.1226623 0.0937473 0.0214215
vn 0.3383964 0.8559050 0.3910428
v 0.1068706 0.1010043 0.0279086
vn 0.7942739 0.1299550 -0.5934986
v 0.1245577 0.0658138 -0.0315813
vn 0.4390497 0.0582359 -0.8965735
v 0.0544008 0.0089684 -0.1209995
vn 0.7662190 0.2815694 -0.5776047
v 0.1211056 0.0849743 -0.0298338
vn 0.2095595 -0.9690496 0.1304900
v 0.0111526 -0.0509587 -0.0756272
vn -0.7103555 0.5466173 0.4434012
v 0.0412783 0.0894860 0.0228934
vn -0.8250937 0.4279795 0.3688549
v -0.0397562 0.0209145 -0.0371295
vn -0.7711202 0.2455457 0.5874359
v -0.0386009 0.0125690 -0.0295647
vn -0.5486704 0.8164593 0.1798749
v 0.0471173 0.1008704 0.0104199
vn -0.7751437 0.5751722 0.2613987
v -0.0368179 0.0272153 -0.0403916
vn 0.1322087 0.5170459 0.8456858
v 0.0902313 0.0922979 0.0457067
vn 0.3926981 0.5729869 0.7193568
v 0.1047021 0.0934888 0.0399991
vn 0.6632739 0.2849111 0.6920213
v 0.1160536 0.0861657 0.0347882
vn 0.9476498 0.3010632 0.1063993
v 0.1303879 0.0868524 0.0052917
vn 0.1728600 0.9495991 -0.2614978
v 0.0925838 0.1082131 -0.0159350
vn 0.3657348 -0.5792226 -0.7285186
v 0.0329590 -0.0443749 -0.1209994
vn 0.2449237 -0.6919928 -0.6790865
v 0.0188416 -0.0517891 -0.1210051
vn -0.1613040 -0.9848591 0.0635110
v -0.0083047 -0.0537340 -0.0988514
vn -0.3332767 -0.9421189 0.0365879
v -0.0188009 -0.0515509 -0.1079011
vn -0.3400051 -0.6619671 -0.6679792
v -0.0256919 -0.0489995 -0.1209984
vn -0.0701174 -0.9829815 0.1697969
v -0.0038837 -0.0496752 -0.0600692
vn 0.1440716 -0.9714764 0.1883537
v 0.0072798 -0.0477786 -0.0522291
vn -0.0763291 -0.9908257 0.1115277
v -0.0041422 -0.0527519 -0.0821236
vn 0.0814504 -0.9890582 0.1230028
v 0.0046046 -0.0522447 -0.0788562
vn -0.5680419 0.4803239 0.6682944
v 0.0522540 0.0900893 0.0362720
vn -0.4522727 0.8158052 0.3604321
v 0.0531341 0.1009088 0.0224573
vn -0.2865073 0.9403440 -0.1834847
v 0.0637555 0.1069244 -0.0125485
vn -0.5041774 0.8635385 -0.0103148
v 0.0454456 0.1008707 -0.0024653
vn -0.9620214 0.2153379 0.1677630
v -0.0484019 0.0114506 -0.0598289
vn -0.9898270 0.0163205 0.1413373
v -0.0515318 0.0009531 -0.0708783
vn -0.9629756 0.0594119 0.2629608
v -0.0461536 0.0028088 -0.0416407
vn 0.5349297 0.8448921 -0.0027399
v 0.1193970 0.1009393 0.0004375
vn 0.2724901 0.9573553 -0.0960205
v 0.0990713 0.1086658 -0.0057355
vn 0.3043194 0.9464967 0.1073959
v 0.1015884 0.1077127 0.0066541
vn 0.4801757 0.8534377 0.2026708
v 0.1163842 0.1009335 0.0142785
vn 0.8283485 0.2864139 0.4814622
v 0.1242455 0.0866282 0.0243840
vn 0.8202369 0.5284597 0.2189563
v 0.1268139 0.0927576 0.0127863
vn 0.0078294 0.9997396 -0.0214349
v 0.0829492 0.1112030 -0.0015960
vn 0.0643900 0.9804482 -0.1859440
v 0.0866565 0.1098979 -0.0119636
vn 0.1449800 0.9680330 0.2046776
v 0.0911955 0.1093978 0.0126026
vn 0.1614254 0.9867747 0.0147512
v 0.0927552 0.1103358 0.0008869
vn -0.0948215 0.9844095 0.1481450
v 0.0761002 0.1101456 0.0094572
vn -0.1153768 0.5689337 0.8142498
v 0.0758486 0.0923713 0.0455534
vn -0.1960657 0.8311922 0.5202670
v 0.0700872 0.1010351 0.0350396
vn 0.0450081 0.1249363 0.9911434
v 0.0854362 0.0659795 0.0526127
vn -0.0916625 0.2783826 0.9560864
v 0.0777768 0.0858052 0.0483968
vn -0.1640437 -0.4680696 0.8683321
v 0.0714852 0.0005680 0.0541915
vn -0.3212984 -0.7786548 0.5389472
v -0.0158556 -0.0383801 -0.0309711
vn -0.3566096 -0.4074159 0.8407389
v 0.0592789 0.0006057 0.0501099
vn -0.9468919 -0.3167643 0.0552815
v -0.0520083 -0.0167704 -0.1023476
vn -0.6891078 -0.2593858 -0.6766458
v -0.0516073 -0.0193948 -0.1209999
vn -0.6293865 -0.4024802 -0.6647423
v -0.0467535 -0.0295402 -0.1209577
vn -0.2492001 -0.9603953 0.1246605
v -0.0131622 -0.0506731 -0.0776653
vn -0.9256995 -0.1839500 0.3305190
v -0.0444125 -0.0087077 -0.0385018
vn -0.9692188 -0.1542646 0.1918786
v -0.0477326 -0.0074495 -0.0519108
vn -0.9144414 -0.3601583 0.1846156
v -0.0454068 -0.0182906 -0.0554967
vn -0.8477086 -0.3935697 0.3556588
v -0.0405674 -0.0190017 -0.0368285
vn -0.0846929 -0.9625465 0.2575489
v -0.0040657 -0.0457879 -0.0410492
vn -0.5368819 -0.8411592 0.0648782
v -0.0289264 -0.0459770 -0.0980788
vn -0.3933688 -0.9137741 0.1013799
v -0.0211533 -0.0487489 -0.0844592
vn -0.5251918 -0.8399839 0.1363844
v -0.0275328 -0.0440257 -0.0742818
vn -0.3131065 -0.9337910 0.1732015
v -0.0155338 -0.0470138 -0.0585453
vn -0.3691176 0.4690274 0.8023500
v 0.0636723 0.0905693 0.0431581
vn -0.3037181 0.9527308 0.0077003
v 0.0638159 0.1082615 0.0007036
vn -0.8653519 0.4812477 0.1398818
v -0.0449756 0.0250288 -0.0705705
vn -0.7533856 0.6505309 0.0960196
v -0.0403664 0.0350953 -0.0866694
vn -0.2318680 0.1194127 0.9653900
v 0.0694307 0.0655460 0.0510132
vn -0.5919675 0.1483004 0.7922004
v 0.0511026 0.0672340 0.0420125
vn -0.7155821 0.0582250 0.6960978
v -0.0378626 0.0027259 -0.0265011
vn -0.9834061 0.1516396 0.0995887
v -0.0527756 0.0082402 -0.0874129
vn -0.7388926 0.1207528 -0.6629151
v -0.0546154 0.0089147 -0.1209713
vn -0.9972570 0.0460320 0.0579623
v -0.0544221 0.0020104 -0.0996620
vn 0.0947318 0.8441572 0.5276595
v 0.0900210 0.1009481 0.0361328
vn 0.2509415 -0.9661367 0.0600694
v 0.0138294 -0.0527659 -0.1011915
vn -0.8325828 -0.5488949 0.0742981
v -0.0451381 -0.0295895 -0.0923903
vn -0.9038373 -0.4112248 0.1182049
v -0.0480663 -0.0215763 -0.0803416
vn -0.5145801 -0.5446743 -0.6622215
v -0.0378698 -0.0403423 -0.1209379
vn -0.6856803 -0.7217745 0.0942562
v -0.0367766 -0.0387140 -0.0867505
vn -0.7345754 -0.0934537 -0.6720607
v -0.0546458 -0.0076058 -0.1209956
vn -0.9912911 -0.1113348 0.0703314
v -0.0540518 -0.0052084 -0.0978562
vn -0.8238000 -0.5373493 0.1805804
v -0.0413705 -0.0267523 -0.0569502
vn -0.9042752 0.2592837 0.3392024
v -0.0432959 0.0127464 -0.0380932
vn -0.8838965 0.0325311 0.4665498
v -0.0432738 0.0014217 -0.0336173
vn -0.4133219 -0.8794727 0.2359933
v -0.0195257 -0.0423117 -0.0436162
vn -0.2817482 -0.8954125 0.3447527
v -0.0131537 -0.0430290 -0.0376573
vn -0.9074523 0.3792189 0.1808957
v -0.0459187 0.0182666 -0.0581690
vn -0.7519593 0.6391248 0.1614833
v -0.0377853 0.0332669 -0.0634652
vn -0.7528294 -0.0897207 0.6520721
v -0.0393173 -0.0042167 -0.0281163
vn -0.5240757 -0.7702890 0.3633176
v -0.0252429 -0.0370233 -0.0369862
vn -0.1646694 0.9863029 -0.0095161
v 0.0725801 0.1104350 0.0000575
vn 0.0447430 0.9552968 0.2922435
v 0.0853425 0.1086836 0.0171370
vn -0.1099077 0.9489402 0.2956903
v 0.0763018 0.1082752 0.0175586
vn -0.4339241 0.1298644 0.8915409
v 0.0593476 0.0661948 0.0471891
vn -0.9684801 -0.2145113 0.1266149
v -0.0509700 -0.0116425 -0.0766108
vn -0.7477499 -0.6483380 0.1432758
v -0.0389220 -0.0333926 -0.0698881
vn -0.5892901 -0.7882353 0.1772633
v -0.0294214 -0.0396236 -0.0574832
vn -0.7066619 -0.6396744 0.3023996
v -0.0337176 -0.0309051 -0.0397628
vn -0.2578509 0.9474256 0.1894670
v 0.0666353 0.1079096 0.0113815
vn -0.7251572 -0.4688231 0.5043331
v -0.0360201 -0.0229382 -0.0326487
vn -0.7973036 -0.2295353 0.5582299
v -0.0396291 -0.0112274 -0.0303964
# 152 vertices, 0 vertices normals

f 1//1 2//2 3//3
f 4//4 5//5 6//6
f 7//7 8//8 9//9
f 9//9 8//8 10//10
f 11//11 12//12 13//13
f 14//14 15//15 16//16
f 17//17 16//16 18//18
f 16//16 19//19 18//18
f 20//20 5//5 4//4
f 21//21 22//22 23//23
f 23//23 24//24 21//21
f 25//25 21//21 24//24
f 26//26 27//27 28//28
f 26//26 29//29 30//30
f 11//11 31//31 32//32
f 33//33 34//34 35//35
f 36//36 34//34 14//14
f 12//12 4//4 6//6
f 37//37 9//9 20//20
f 38//38 39//39 8//8
f 37//37 20//20 40//40
f 41//41 42//42 43//43
f 11//11 44//44 4//4
f 19//19 16//16 15//15
f 14//14 16//16 45//45
f 46//46 47//47 48//48
f 13//13 49//49 50//50
f 51//51 52//52 53//53
f 54//54 3//3 55//55
f 55//55 3//3 2//2
f 44//44 56//56 4//4
f 56//56 20//20 4//4
f 47//47 46//46 57//57
f 58//58 59//59 60//60
f 58//58 61//61 62//62
f 35//35 63//63 33//33
f 51//51 53//53 64//64
f 64//64 35//35 65//65
f 64//64 65//65 51//51
f 66//66 13//13 12//12
f 66//66 49//49 13//13
f 10//10 67//67 5//5
f 1//1 3//3 68//68
f 31//31 69//69 68//68
f 31//31 68//68 32//32
f 11//11 32//32 44//44
f 12//12 11//11 4//4
f 14//14 34//34 15//15
f 45//45 48//48 36//36
f 16//16 46//46 45//45
f 40//40 20//20 56//56
f 56//56 55//55 40//40
f 54//54 55//55 56//56
f 10//10 5//5 20//20
f 41//41 70//70 42//42
f 71//71 72//72 42//42
f 73//73 57//57 74//74
f 50//50 47//47 57//57
f 75//75 76//76 73//73
f 77//77 58//58 60//60
f 61//61 58//58 78//78
f 79//79 7//7 80//80
f 7//7 30//30 80//80
f 81//81 82//82 83//83
f 33//33 15//15 34//34
f 84//84 6//6 5//5
f 85//85 86//86 84//84
f 53//53 52//52 87//87
f 48//48 65//65 36//36
f 65//65 88//88 51//51
f 12//12 6//6 66//66
f 89//89 66//66 6//6
f 6//6 84//84 89//89
f 89//89 49//49 66//66
f 38//38 90//90 91//91
f 8//8 39//39 10//10
f 39//39 67//67 10//10
f 20//20 9//9 10//10
f 54//54 56//56 44//44
f 3//3 54//54 44//44
f 74//74 46//46 16//16
f 13//13 31//31 11//11
f 90//90 92//92 93//93
f 93//93 92//92 86//86
f 86//86 85//85 93//93
f 90//90 94//94 92//92
f 95//95 63//63 96//96
f 63//63 97//97 33//33
f 63//63 95//95 98//98
f 99//99 17//17 18//18
f 100//100 17//17 101//101
f 101//101 17//17 99//99
f 102//102 103//103 104//104
f 70//70 105//105 71//71
f 106//106 107//107 108//108
f 108//108 109//109 106//106
f 70//70 71//71 42//42
f 110//110 16//16 17//17
f 74//74 110//110 73//73
f 16//16 110//110 74//74
f 76//76 57//57 73//73
f 111//111 112//112 113//113
f 105//105 73//73 114//114
f 77//77 78//78 58//58
f 96//96 77//77 115//115
f 96//96 78//78 77//77
f 95//95 96//96 115//115
f 116//116 80//80 61//61
f 7//7 79//79 38//38
f 8//8 7//7 38//38
f 28//28 29//29 26//26
f 28//28 117//117 118//118
f 97//97 98//98 119//119
f 97//97 119//119 99//99
f 97//97 99//99 18//18
f 120//120 121//121 21//21
f 122//122 123//123 124//124
f 123//123 122//122 27//27
f 63//63 35//35 64//64
f 64//64 125//125 63//63
f 36//36 35//35 34//34
f 36//36 65//65 35//35
f 52//52 89//89 87//87
f 89//89 84//84 87//87
f 84//84 86//86 87//87
f 88//88 89//89 52//52
f 51//51 88//88 52//52
f 91//91 39//39 38//38
f 43//43 126//126 41//41
f 3//3 32//32 68//68
f 44//44 32//32 3//3
f 50//50 126//126 69//69
f 33//33 97//97 19//19
f 19//19 15//15 33//33
f 45//45 36//36 14//14
f 45//45 46//46 48//48
f 49//49 48//48 47//47
f 50//50 31//31 13//13
f 86//86 92//92 53//53
f 53//53 87//87 86//86
f 60//60 120//120 77//77
f 127//127 128//128 102//102
f 129//129 72//72 111//111
f 105//105 70//70 75//75
f 111//111 72//72 71//71
f 130//130 111//111 113//113
f 129//129 127//127 104//104
f 131//131 124//124 123//123
f 131//131 103//103 102//102
f 132//132 82//82 124//124
f 133//133 109//109 108//108
f 134//134 135//135 60//60
f 134//134 60//60 59//59
f 113//113 114//114 136//136
f 113//113 112//112 114//114
f 136//136 114//114 137//137
f 114//114 73//73 110//110
f 137//137 114//114 110//110
f 105//105 75//75 73//73
f 80//80 116//116 79//79
f 81//81 122//122 82//82
f 81//81 27//27 122//122
f 134//134 138//138 81//81
f 59//59 117//117 138//138
f 59//59 138//138 134//134
f 58//58 62//62 59//59
f 117//117 27//27 138//138
f 27//27 81//81 138//138
f 26//26 123//123 27//27
f 61//61 118//118 139//139
f 29//29 28//28 118//118
f 27//27 117//117 28//28
f 117//117 139//139 118//118
f 139//139 117//117 62//62
f 140//140 121//121 135//135
f 60//60 135//135 121//121
f 121//121 120//120 60//60
f 110//110 17//17 137//137
f 136//136 137//137 141//141
f 63//63 98//98 97//97
f 89//89 88//88 49//49
f 93//93 85//85 91//91
f 93//93 91//91 90//90
f 79//79 142//142 38//38
f 91//91 85//85 67//67
f 5//5 67//67 85//85
f 85//85 84//84 5//5
f 126//126 43//43 69//69
f 69//69 31//31 50//50
f 49//49 47//47 50//50
f 53//53 143//143 125//125
f 53//53 92//92 143//143
f 53//53 125//125 64//64
f 125//125 143//143 96//96
f 96//96 63//63 125//125
f 96//96 143//143 144//144
f 115//115 145//145 119//119
f 115//115 119//119 98//98
f 145//145 101//101 119//119
f 95//95 115//115 98//98
f 101//101 21//21 25//25
f 104//104 127//127 102//102
f 112//112 111//111 71//71
f 112//112 105//105 114//114
f 130//130 129//129 111//111
f 132//132 146//146 82//82
f 102//102 132//132 131//131
f 122//122 124//124 82//82
f 127//127 147//147 133//133
f 127//127 133//133 128//128
f 108//108 107//107 146//146
f 133//133 108//108 128//128
f 75//75 70//70 41//41
f 41//41 76//76 75//75
f 113//113 136//136 148//148
f 30//30 29//29 80//80
f 118//118 61//61 80//80
f 117//117 59//59 62//62
f 97//97 18//18 19//19
f 137//137 17//17 100//100
f 141//141 100//100 25//25
f 137//137 100//100 141//141
f 149//149 148//148 141//141
f 88//88 48//48 49//49
f 142//142 90//90 38//38
f 91//91 67//67 39//39
f 150//150 116//116 61//61
f 150//150 61//61 78//78
f 94//94 90//90 142//142
f 143//143 94//94 144//144
f 116//116 150//150 142//142
f 142//142 150//150 94//94
f 145//145 21//21 101//101
f 21//21 145//145 120//120
f 115//115 77//77 120//120
f 120//120 145//145 115//115
f 99//99 119//119 101//101
f 71//71 105//105 112//112
f 148//148 147//147 130//130
f 148//148 130//130 113//113
f 83//83 82//82 107//107
f 108//108 146//146 128//128
f 149//149 151//151 109//109
f 22//22 21//21 140//140
f 135//135 152//152 140//140
f 135//135 106//106 152//152
f 135//135 83//83 106//106
f 83//83 135//135 134//134
f 62//62 61//61 139//139
f 80//80 29//29 118//118
f 121//121 140//140 21//21
f 151//151 149//149 24//24
f 151//151 24//24 23//23
f 147//147 148//148 149//149
f 46//46 74//74 57//57
f 79//79 116//116 142//142
f 92//92 94//94 143//143
f 130//130 127//127 129//129
f 130//130 147//147 127//127
f 132//132 102//102 146//146
f 124//124 131//131 132//132
f 146//146 102//102 128//128
f 106//106 83//83 107//107
f 146//146 107//107 82//82
f 149//149 109//109 133//133
f 140//140 152//152 22//22
f 152//152 109//109 151//151
f 22//22 151//151 23//23
f 134//134 81//81 83//83
f 57//57 126//126 50//50
f 126//126 76//76 41//41
f 141//141 148//148 136//136
f 96//96 150//150 78//78
f 150//150 96//96 144//144
f 141//141 25//25 24//24
f 133//133 147//147 149//149
f 126//126 57//57 76//76
f 149//149 141//141 24//24
f 152//152 106//106 109//109
f 151//151 22//22 152//152
f 144//144 94//94 150//150
f 65//65 48//48 88//88
f 25//25 100//100 101//101
f 7//7 2//2 1//1
f 7//7 40//40 55//55
f 7//7 55//55 2//2
f 7//7 37//37 40//40
f 7//7 1//1 68//68
f 7//7 69//69 43//43
f 7//7 9//9 37//37
f 7//7 123//123 26//26
f 129//129 104//104 7//7
f 42//42 72//72 7//7
f 104//104 103//103 7//7
f 7//7 26//26 30//30
f 7//7 43//43 42//42
f 7//7 68//68 69//69
f 103//103 131//131 7//7
f 131//131 123//123 7//7
f 72//72 129//129 7//7
# 300 faces, 0 coords texture

# End of File
