####
#
# OBJ File Generated by Meshlab
#
####
# Object link0.obj
#
# Vertices: 102
# Faces: 200
#
####
vn -0.0329468 -0.7659447 -0.6420617
v -0.0012267 -0.0946137 -0.0000325
vn 0.7625613 0.0929494 -0.6402037
v 0.0710809 0.0084460 0.0013399
vn 0.7673113 -0.0140845 -0.6411201
v 0.0715670 -0.0012740 0.0013494
vn -0.0117207 0.7714977 -0.6361242
v -0.0005172 0.0946704 -0.0000064
vn 0.7590255 -0.1271802 -0.6385183
v 0.0706646 -0.0115626 0.0013334
vn -0.6259534 -0.7206403 0.2980936
v -0.1351312 -0.0658707 0.0075198
vn -0.5447928 -0.5605552 -0.6236816
v -0.1363048 -0.0659457 0.0000003
vn -0.2818027 -0.7212667 -0.6327413
v -0.1316247 -0.0687992 -0.0000005
vn 0.5946357 -0.4932932 -0.6348782
v 0.0543353 -0.0469489 0.0010479
vn 0.6694884 -0.3805946 -0.6379132
v 0.0619449 -0.0359785 0.0011812
vn 0.7279174 -0.2587625 -0.6349633
v 0.0673593 -0.0245271 0.0012762
vn 0.6574360 -0.2060408 0.7247931
v 0.0526517 -0.0163561 0.1399999
vn 0.6785908 0.0534572 0.7325687
v 0.0548547 0.0044716 0.1400000
vn -0.4352901 0.0317902 0.8997288
v -0.0549666 0.0034571 0.1400001
vn 0.4892039 0.4719513 0.7334450
v 0.0391015 0.0387489 0.1400002
vn 0.5725489 -0.8077545 0.1404296
v 0.0077780 -0.0910717 0.0084619
vn 0.4957053 -0.4745857 0.7273546
v 0.0395665 -0.0384696 0.1400028
vn -0.2676593 -0.4511155 0.8513831
v -0.0293370 -0.0466451 0.1400008
vn 0.0153219 -0.6126570 0.7902004
v 0.0003492 -0.0550819 0.1399998
vn 0.7403787 0.2211316 -0.6347758
v 0.0686186 0.0208178 0.0012977
vn 0.6880468 0.3425852 -0.6397085
v 0.0635871 0.0329931 0.0012099
vn 0.5734649 0.5096304 -0.6414164
v 0.0525783 0.0487710 0.0010175
vn 0.6321057 0.4339839 -0.6419505
v 0.0585900 0.0412413 0.0011227
vn 0.6286947 0.2608428 0.7326009
v 0.0509475 0.0207886 0.1399999
vn -0.2020915 0.5507503 0.8098353
v -0.0218528 0.0506849 0.1399997
vn -0.2874072 0.4375245 0.8520384
v -0.0317059 0.0450099 0.1400000
vn 0.3910148 0.5377842 0.7469241
v 0.0317161 0.0450507 0.1400001
vn 0.0572507 0.6195836 0.7828401
v 0.0048577 0.0549582 0.1399995
vn -0.0931438 0.6105535 0.7864787
v -0.0088654 0.0543586 0.1400020
vn 0.3505637 -0.5596545 0.7509274
v 0.0276805 -0.0476799 0.1400002
vn -0.4310309 -0.0442804 0.9012500
v -0.0547660 -0.0054659 0.1400002
vn -0.4216534 -0.1338808 0.8968190
v -0.0528838 -0.0155850 0.1399997
vn -0.8157771 0.0362903 0.5772268
v -0.1226148 0.0056359 0.0611487
vn -0.8169310 -0.0351332 0.5756644
v -0.1227114 -0.0061443 0.0609570
vn 0.1728159 -0.6038583 0.7781323
v 0.0143701 -0.0532489 0.1399993
vn -0.3374173 -0.8850962 0.3205532
v -0.0716750 -0.0756205 0.0575204
vn -0.5827112 -0.6149474 0.5313071
v -0.1112349 -0.0474773 0.0590551
vn -0.7802263 -0.5442527 0.3082789
v -0.1378238 -0.0624363 0.0075527
vn -0.5091187 0.8106949 0.2890880
v -0.1336985 0.0669321 0.0074150
vn -0.5196749 0.5740893 -0.6327397
v -0.1358301 0.0663151 0.0000008
vn -0.7171101 0.6219348 0.3145637
v -0.1362928 0.0646171 0.0075664
vn -0.2759067 0.7216331 -0.6349182
v -0.1316121 0.0688472 0.0000007
vn 0.2350630 0.9550937 0.1803924
v 0.0031716 0.0933497 0.0086314
vn 0.2508706 0.7540566 -0.6070111
v 0.0040865 0.0939818 0.0001707
vn 0.5928089 -0.3487462 0.7259158
v 0.0474762 -0.0279259 0.1400000
vn 0.5753573 0.3758377 0.7264366
v 0.0462474 0.0300326 0.1400000
vn 0.6815414 -0.0627369 0.7290853
v 0.0548768 -0.0045659 0.1399999
vn -0.2784090 0.9321774 0.2313735
v -0.1291592 0.0686836 0.0074449
vn -0.3891434 0.2340692 0.8909428
v -0.0477037 0.0275963 0.1399999
vn -0.4234475 0.1282180 0.8968012
v -0.0528609 0.0157105 0.1399999
vn 0.2427728 0.5923137 0.7682616
v 0.0200202 0.0514462 0.1399993
vn 0.0553834 0.9567713 0.2855198
v 0.0064889 0.0735192 0.0810800
vn 0.4639669 -0.6306916 -0.6220633
v 0.0082679 -0.0918247 0.0002429
vn -0.3858924 -0.2588204 0.8854937
v -0.0464371 -0.0299037 0.1399998
vn -0.6378157 0.4104672 -0.6516961
v -0.1400431 0.0607227 -0.0000002
vn 0.4541603 0.6418656 -0.6178568
v 0.0076945 0.0922715 0.0002343
vn -0.0762801 0.9790083 0.1890083
v -0.0015994 0.0936322 0.0084918
vn 0.5517005 0.8219366 0.1415865
v 0.0073440 0.0914466 0.0083177
vn -0.7258789 -0.2295778 -0.6483779
v -0.1488076 -0.0420547 -0.0000001
vn -0.9209532 -0.2386235 0.3080651
v -0.1492440 -0.0371861 0.0078171
vn -0.7497612 -0.1098793 -0.6525217
v -0.1525783 -0.0248176 0.0000002
vn 0.3545759 0.9045383 0.2368257
v 0.0090765 0.0737151 0.0784549
vn -0.8094001 -0.0931011 0.5798307
v -0.1216733 -0.0147367 0.0614178
vn 0.0952639 -0.9537363 0.2851523
v 0.0067817 -0.0735316 0.0809757
vn -0.3725114 -0.8992724 0.2292256
v -0.1309508 -0.0681401 0.0076680
vn -0.1784433 -0.5271569 0.8308211
v -0.0189172 -0.0517550 0.1399997
vn -0.0814116 -0.5865415 0.8058172
v -0.0090842 -0.0542971 0.1399997
vn -0.1731506 -0.9477903 0.2677919
v -0.0658985 -0.0765477 0.0589793
vn -0.3291336 -0.3663076 0.8703389
v -0.0376956 -0.0401377 0.1400000
vn -0.6713894 -0.3547505 -0.6506831
v -0.1434717 -0.0548617 -0.0000000
vn -0.8783768 -0.3647843 0.3088471
v -0.1454519 -0.0485961 0.0076825
vn -0.7996526 -0.1554818 0.5799837
v -0.1203004 -0.0235449 0.0615099
vn -0.7810926 -0.2325832 0.5794820
v -0.1186092 -0.0310500 0.0613400
vn -0.6943355 -0.4469446 0.5640379
v -0.1147613 -0.0419663 0.0601784
vn -0.7532723 -0.0208002 -0.6573799
v -0.1540787 -0.0055417 -0.0000004
vn -0.9490387 -0.0721475 0.3067901
v -0.1527253 -0.0137992 0.0081914
vn -0.9503174 -0.0060250 0.3112244
v -0.1531655 -0.0020358 0.0083508
vn -0.8325683 0.4577892 0.3118638
v -0.1421171 0.0555469 0.0076284
vn 0.6628759 0.1586923 0.7317187
v 0.0535544 0.0128185 0.1399999
vn -0.5355518 0.6694078 0.5148567
v -0.1099833 0.0486112 0.0588796
vn 0.2760498 -0.9450949 0.1749063
v 0.0036695 -0.0932492 0.0084757
vn 0.2298842 -0.7708798 -0.5940520
v 0.0034957 -0.0942157 0.0001777
vn 0.3562261 -0.9043778 0.2349549
v 0.0090659 -0.0737080 0.0785962
vn -0.7521954 -0.3236431 0.5739837
v -0.1170043 -0.0366378 0.0608364
vn -0.9380151 -0.1424351 0.3159747
v -0.1515874 -0.0248333 0.0080477
vn -0.7477717 0.1156075 -0.6538137
v -0.1524101 0.0258275 -0.0000000
vn -0.7512525 0.0385695 -0.6588870
v -0.1538414 0.0105757 0.0000000
vn -0.9425495 0.1193314 0.3120263
v -0.1520204 0.0217804 0.0081095
vn -0.8060508 0.1151628 0.5805340
v -0.1211486 0.0181378 0.0615703
vn -0.3434336 0.3412673 0.8749800
v -0.0400853 0.0378337 0.1399999
vn -0.6521747 0.5196068 0.5519756
v -0.1132378 0.0447149 0.0596848
vn -0.0226546 -0.9852555 0.1695827
v -0.0008666 -0.0937369 0.0081782
vn -0.8280679 -0.4652165 0.3128535
v -0.1418423 -0.0559592 0.0076170
vn -0.9235879 0.2250192 0.3104059
v -0.1496345 0.0355816 0.0078688
vn -0.7268699 0.2135794 -0.6527205
v -0.1492901 0.0402499 0.0000003
vn -0.9495476 0.0482378 0.3098910
v -0.1529491 0.0100689 0.0082199
vn -0.6899762 0.3117943 -0.6532360
v -0.1453768 0.0508924 -0.0000001
vn -0.7206939 0.3915868 0.5720667
v -0.1157097 0.0395945 0.0607111
vn -0.0454378 -0.9584882 0.2814886
v -0.0231112 -0.0759725 0.0689683
vn -0.7606753 0.2982671 0.5765499
v -0.1172331 0.0358810 0.0609570
vn -0.8859114 0.3431451 0.3121097
v -0.1461722 0.0467529 0.0077044
vn -0.7908343 0.2035963 0.5771739
v -0.1194137 0.0287903 0.0611397
# 102 vertices, 0 vertices normals

f 1//1 2//2 3//3
f 4//4 2//2 1//1
f 3//3 5//5 1//1
f 6//6 7//7 8//8
f 9//9 1//1 10//10
f 1//1 11//11 10//10
f 12//12 13//13 14//14
f 13//13 15//15 14//14
f 2//2 13//13 3//3
f 16//16 9//9 17//17
f 14//14 18//18 19//19
f 20//20 2//2 4//4
f 21//21 20//20 4//4
f 22//22 23//23 4//4
f 23//23 21//21 4//4
f 1//1 5//5 11//11
f 13//13 24//24 15//15
f 20//20 21//21 24//24
f 25//25 26//26 14//14
f 15//15 27//27 14//14
f 14//14 28//28 25//25
f 29//29 25//25 28//28
f 30//30 17//17 14//14
f 31//31 32//32 14//14
f 33//33 34//34 14//14
f 14//14 34//34 31//31
f 35//35 30//30 14//14
f 19//19 35//35 14//14
f 36//36 18//18 37//37
f 7//7 6//6 38//38
f 39//39 40//40 41//41
f 42//42 40//40 39//39
f 4//4 43//43 44//44
f 17//17 45//45 14//14
f 9//9 45//45 17//17
f 10//10 45//45 9//9
f 14//14 45//45 12//12
f 11//11 45//45 10//10
f 12//12 45//45 11//11
f 21//21 23//23 46//46
f 13//13 47//47 3//3
f 12//12 47//47 13//13
f 25//25 29//29 48//48
f 14//14 49//49 50//50
f 51//51 28//28 14//14
f 27//27 51//51 14//14
f 52//52 29//29 28//28
f 9//9 53//53 1//1
f 32//32 54//54 14//14
f 55//55 41//41 40//40
f 56//56 44//44 43//43
f 4//4 44//44 56//56
f 57//57 43//43 4//4
f 52//52 43//43 57//57
f 56//56 22//22 4//4
f 56//56 58//58 22//22
f 58//58 15//15 22//22
f 59//59 60//60 61//61
f 24//24 46//46 15//15
f 24//24 21//21 46//46
f 47//47 5//5 3//3
f 5//5 12//12 11//11
f 48//48 4//4 42//42
f 4//4 48//48 57//57
f 29//29 52//52 57//57
f 39//39 26//26 25//25
f 51//51 27//27 62//62
f 9//9 16//16 53//53
f 34//34 63//63 31//31
f 35//35 19//19 64//64
f 37//37 6//6 36//36
f 8//8 65//65 6//6
f 6//6 65//65 36//36
f 18//18 66//66 19//19
f 67//67 19//19 66//66
f 66//66 68//68 67//67
f 37//37 69//69 54//54
f 70//70 71//71 59//59
f 72//72 73//73 32//32
f 54//54 74//74 37//37
f 56//56 43//43 58//58
f 75//75 76//76 77//77
f 61//61 76//76 75//75
f 78//78 41//41 55//55
f 79//79 24//24 13//13
f 24//24 79//79 20//20
f 2//2 79//79 13//13
f 20//20 79//79 2//2
f 15//15 46//46 22//22
f 22//22 46//46 23//23
f 47//47 12//12 5//5
f 25//25 48//48 39//39
f 57//57 48//48 29//29
f 39//39 80//80 26//26
f 58//58 43//43 62//62
f 58//58 62//62 27//27
f 81//81 53//53 16//16
f 81//81 82//82 53//53
f 53//53 82//82 1//1
f 16//16 83//83 81//81
f 30//30 83//83 16//16
f 36//36 66//66 18//18
f 68//68 66//66 36//36
f 8//8 36//36 65//65
f 1//1 36//36 8//8
f 68//68 36//36 1//1
f 37//37 18//18 69//69
f 69//69 18//18 14//14
f 54//54 69//69 14//14
f 71//71 74//74 84//84
f 7//7 38//38 70//70
f 59//59 71//71 60//60
f 58//58 27//27 15//15
f 61//61 60//60 85//85
f 85//85 76//76 61//61
f 86//86 87//87 88//88
f 50//50 89//89 14//14
f 39//39 48//48 42//42
f 14//14 26//26 90//90
f 39//39 41//41 80//80
f 41//41 91//91 80//80
f 52//52 62//62 43//43
f 51//51 52//52 28//28
f 62//62 52//52 51//51
f 30//30 16//16 17//17
f 64//64 83//83 35//35
f 30//30 35//35 83//83
f 68//68 1//1 92//92
f 82//82 92//92 1//1
f 74//74 71//71 93//93
f 93//93 71//71 70//70
f 6//6 37//37 74//74
f 38//38 93//93 70//70
f 84//84 54//54 32//32
f 73//73 84//84 32//32
f 86//86 94//94 95//95
f 33//33 96//96 77//77
f 75//75 96//96 87//87
f 77//77 96//96 75//75
f 87//87 96//96 88//88
f 97//97 78//78 55//55
f 90//90 49//49 14//14
f 49//49 91//91 98//98
f 90//90 91//91 49//49
f 26//26 80//80 90//90
f 91//91 90//90 80//80
f 72//72 63//63 85//85
f 64//64 81//81 83//83
f 92//92 64//64 99//99
f 93//93 38//38 74//74
f 71//71 84//84 60//60
f 60//60 84//84 73//73
f 60//60 73//73 72//72
f 33//33 77//77 34//34
f 34//34 76//76 63//63
f 98//98 91//91 78//78
f 78//78 100//100 98//98
f 97//97 101//101 78//78
f 95//95 101//101 97//97
f 63//63 72//72 31//31
f 72//72 32//32 31//31
f 68//68 92//92 99//99
f 19//19 68//68 99//99
f 67//67 68//68 19//19
f 92//92 81//81 64//64
f 92//92 82//82 81//81
f 99//99 64//64 19//19
f 84//84 74//74 54//54
f 38//38 6//6 74//74
f 63//63 76//76 85//85
f 76//76 34//34 77//77
f 85//85 60//60 72//72
f 86//86 88//88 94//94
f 78//78 101//101 100//100
f 102//102 89//89 50//50
f 33//33 14//14 89//89
f 91//91 41//41 78//78
f 95//95 94//94 101//101
f 49//49 98//98 50//50
f 100//100 50//50 98//98
f 102//102 50//50 100//100
f 88//88 96//96 33//33
f 33//33 89//89 88//88
f 101//101 102//102 100//100
f 94//94 88//88 102//102
f 89//89 102//102 88//88
f 101//101 94//94 102//102
f 4//4 1//1 86//86
f 4//4 86//86 42//42
f 1//1 8//8 86//86
f 59//59 86//86 70//70
f 75//75 86//86 61//61
f 55//55 86//86 97//97
f 55//55 40//40 86//86
f 42//42 86//86 40//40
f 8//8 7//7 86//86
f 61//61 86//86 59//59
f 97//97 86//86 95//95
f 70//70 86//86 7//7
f 87//87 86//86 75//75
# 200 faces, 0 coords texture

# End of File
