####
#
# OBJ File Generated by Meshlab
#
####
# Object planar_end_eff_visual.obj
#
# Vertices: 40
# Faces: 72
#
####
vn -1.5707948 -1.5707964 -1.5707964
v -0.1000000 -0.1000000 0.0100000
vn -1.5707964 -1.5707948 1.5707964
v -0.1000000 -0.1000000 0.0160000
vn -1.5707948 1.5707964 1.5707964
v -0.1000000 0.1000000 0.0160000
vn -1.5707964 1.5707948 -1.5707964
v -0.1000000 0.1000000 0.0100000
vn 1.5707964 1.5707948 1.5707964
v 0.1000000 0.1000000 0.0160000
vn 1.5707948 1.5707964 -1.5707964
v 0.1000000 0.1000000 0.0100000
vn 1.5707948 -1.5707964 1.5707964
v 0.1000000 -0.1000000 0.0160000
vn 1.5707964 -1.5707948 -1.5707964
v 0.1000000 -0.1000000 0.0100000
vn 0.0000006 3.0812278 -2.7488930
v -0.0000000 0.0300000 0.0000000
vn 0.0000006 3.0812275 2.7488935
v -0.0000000 0.0300000 0.0100000
vn 1.1791352 2.8466835 2.7488940
v 0.0114805 0.0277164 0.0100000
vn 1.1791351 2.8466833 -2.7488945
v 0.0114805 0.0277164 0.0000000
vn 2.1787567 2.1787574 2.7488937
v 0.0212132 0.0212132 0.0100000
vn 2.1787570 2.1787574 -2.7488935
v 0.0212132 0.0212132 0.0000000
vn 2.8466833 1.1791350 2.7488933
v 0.0277164 0.0114805 0.0100000
vn 2.8466835 1.1791351 -2.7488933
v 0.0277164 0.0114805 0.0000000
vn 3.0812280 0.0000001 2.7488947
v 0.0300000 -0.0000000 0.0100000
vn 3.0812280 0.0000001 -2.7488930
v 0.0300000 -0.0000000 0.0000000
vn 2.8466830 -1.1791352 2.7488928
v 0.0277164 -0.0114805 0.0100000
vn 2.8466830 -1.1791352 -2.7488940
v 0.0277164 -0.0114805 0.0000000
vn 2.1787572 -2.1787577 2.7488945
v 0.0212132 -0.0212132 0.0100000
vn 2.1787572 -2.1787577 -2.7488937
v 0.0212132 -0.0212132 0.0000000
vn 1.1791353 -2.8466833 2.7488933
v 0.0114805 -0.0277164 0.0100000
vn 1.1791352 -2.8466835 -2.7488935
v 0.0114805 -0.0277164 0.0000000
vn 0.0000004 -3.0812280 2.7488945
v 0.0000000 -0.0300000 0.0100000
vn 0.0000004 -3.0812278 -2.7488935
v 0.0000000 -0.0300000 0.0000000
vn -1.1791342 -2.8466837 2.7488935
v -0.0114805 -0.0277164 0.0100000
vn -1.1791342 -2.8466837 -2.7488940
v -0.0114805 -0.0277164 0.0000000
vn -2.1787567 -2.1787577 2.7488937
v -0.0212132 -0.0212132 0.0100000
vn -2.1787567 -2.1787574 -2.7488935
v -0.0212132 -0.0212132 0.0000000
vn -2.8466830 -1.1791353 2.7488935
v -0.0277164 -0.0114805 0.0100000
vn -2.8466830 -1.1791356 -2.7488937
v -0.0277164 -0.0114805 0.0000000
vn -3.0812275 0.0000000 2.7488935
v -0.0300000 -0.0000000 0.0100000
vn -3.0812275 0.0000000 -2.7488928
v -0.0300000 -0.0000000 0.0000000
vn -2.8466830 1.1791353 2.7488935
v -0.0277164 0.0114805 0.0100000
vn -2.8466830 1.1791353 -2.7488940
v -0.0277164 0.0114805 0.0000000
vn -2.1787562 2.1787577 2.7488933
v -0.0212132 0.0212132 0.0100000
vn -2.1787565 2.1787579 -2.7488928
v -0.0212132 0.0212132 0.0000000
vn -1.1791341 2.8466840 2.7488937
v -0.0114805 0.0277164 0.0100000
vn -1.1791341 2.8466840 -2.7488937
v -0.0114805 0.0277164 0.0000000
# 40 vertices, 0 vertices normals

f 1//1 2//2 3//3
f 3//3 4//4 1//1
f 4//4 3//3 5//5
f 5//5 6//6 4//4
f 6//6 5//5 7//7
f 7//7 8//8 6//6
f 2//2 1//1 8//8
f 8//8 7//7 2//2
f 8//8 1//1 4//4
f 4//4 6//6 8//8
f 5//5 3//3 2//2
f 2//2 7//7 5//5
f 9//9 10//10 11//11
f 11//11 12//12 9//9
f 12//12 11//11 13//13
f 13//13 14//14 12//12
f 14//14 13//13 15//15
f 15//15 16//16 14//14
f 16//16 15//15 17//17
f 17//17 18//18 16//16
f 18//18 17//17 19//19
f 19//19 20//20 18//18
f 20//20 19//19 21//21
f 21//21 22//22 20//20
f 22//22 21//21 23//23
f 23//23 24//24 22//22
f 24//24 23//23 25//25
f 25//25 26//26 24//24
f 26//26 25//25 27//27
f 27//27 28//28 26//26
f 28//28 27//27 29//29
f 29//29 30//30 28//28
f 30//30 29//29 31//31
f 31//31 32//32 30//30
f 32//32 31//31 33//33
f 33//33 34//34 32//32
f 34//34 33//33 35//35
f 35//35 36//36 34//34
f 36//36 35//35 37//37
f 37//37 38//38 36//36
f 13//13 11//11 10//10
f 10//10 39//39 37//37
f 37//37 35//35 33//33
f 33//33 31//31 29//29
f 29//29 27//27 25//25
f 25//25 23//23 21//21
f 21//21 19//19 17//17
f 17//17 15//15 13//13
f 13//13 10//10 37//37
f 37//37 33//33 29//29
f 29//29 25//25 21//21
f 21//21 17//17 13//13
f 13//13 37//37 29//29
f 29//29 21//21 13//13
f 38//38 37//37 39//39
f 39//39 40//40 38//38
f 40//40 39//39 10//10
f 10//10 9//9 40//40
f 40//40 9//9 12//12
f 12//12 14//14 16//16
f 16//16 18//18 20//20
f 20//20 22//22 24//24
f 24//24 26//26 28//28
f 28//28 30//30 32//32
f 32//32 34//34 36//36
f 36//36 38//38 40//40
f 40//40 12//12 16//16
f 16//16 20//20 24//24
f 24//24 28//28 32//32
f 32//32 36//36 40//40
f 40//40 16//16 24//24
f 24//24 32//32 40//40
# 72 faces, 0 coords texture

# End of File
