# File generated by ImageToStl.com - Free Image and 3D model conversion tools

mtllib bracket_horizontal_large.mtl

o obj1
v -0.074 0.079 0
v -0.074 0.079 -0.00635
v -0.07486825 0.07892404 -0.00635
v -0.07486825 0.07892404 0
v -0.07571011 0.07869846 -0.00635
v -0.07571011 0.07869846 0
v -0.07650001 0.07833014 -0.00635
v -0.07650001 0.07833014 0
v -0.07721394 0.07783023 -0.00635
v -0.07721394 0.07783023 0
v -0.07783023 0.07721394 -0.00635
v -0.07783023 0.07721394 0
v -0.07833014 0.07650001 -0.00635
v -0.07833014 0.07650001 0
v -0.07869846 0.07571011 -0.00635
v -0.07869846 0.07571011 0
v -0.07892404 0.07486825 -0.00635
v -0.07892404 0.07486825 0
v -0.079 0.074 -0.00635
v -0.079 0.074 0
v -0.079 -0.074 0
v -0.079 -0.074 -0.00635
v -0.07892404 -0.07486825 -0.00635
v -0.07892404 -0.07486825 0
v -0.07869846 -0.07571011 -0.00635
v -0.07869846 -0.07571011 0
v -0.07833014 -0.07650001 -0.00635
v -0.07833014 -0.07650001 0
v -0.07783023 -0.07721394 -0.00635
v -0.07783023 -0.07721394 0
v -0.07721394 -0.07783023 -0.00635
v -0.07721394 -0.07783023 0
v -0.07650001 -0.07833014 -0.00635
v -0.07650001 -0.07833014 0
v -0.07571011 -0.07869846 -0.00635
v -0.07571011 -0.07869846 0
v -0.07486825 -0.07892404 -0.00635
v -0.07486825 -0.07892404 0
v -0.074 -0.079 -0.00635
v -0.074 -0.079 0
v 0.074 -0.079 0
v 0.074 -0.079 -0.00635
v 0.07486825 -0.07892404 -0.00635
v 0.07486825 -0.07892404 0
v 0.07571011 -0.07869846 -0.00635
v 0.07571011 -0.07869846 0
v 0.07650001 -0.07833014 -0.00635
v 0.07650001 -0.07833014 0
v 0.07721394 -0.07783023 -0.00635
v 0.07721394 -0.07783023 0
v 0.07783023 -0.07721394 -0.00635
v 0.07783023 -0.07721394 0
v 0.07833014 -0.07650001 -0.00635
v 0.07833014 -0.07650001 0
v 0.07869846 -0.07571011 -0.00635
v 0.07869846 -0.07571011 0
v 0.07892404 -0.07486825 -0.00635
v 0.07892404 -0.07486825 0
v 0.079 -0.074 -0.00635
v 0.079 -0.074 0
v 0.079 0.074 0
v 0.079 0.074 -0.00635
v 0.07892404 0.07486825 -0.00635
v 0.07892404 0.07486825 0
v 0.07869846 0.07571011 -0.00635
v 0.07869846 0.07571011 0
v 0.07833014 0.07650001 -0.00635
v 0.07833014 0.07650001 0
v 0.07783023 0.07721394 -0.00635
v 0.07783023 0.07721394 0
v 0.07721394 0.07783023 -0.00635
v 0.07721394 0.07783023 0
v 0.07650001 0.07833014 -0.00635
v 0.07650001 0.07833014 0
v 0.07571011 0.07869846 -0.00635
v 0.07571011 0.07869846 0
v 0.07486825 0.07892404 -0.00635
v 0.07486825 0.07892404 0
v 0.074 0.079 -0.00635
v 0.074 0.079 0
vn -0.08716 0.99619 0
vn -0.25882 0.96593 0
vn -0.42261 0.90631 0
vn -0.57358 0.81915 0
vn -0.70711 0.70711 0
vn -0.81915 0.57358 0
vn -0.90631 0.42261 0
vn -0.96593 0.25882 0
vn -0.99619 0.08716 0
vn -1 0 0
vn -0.99619 -0.08716 -0
vn -0.96593 -0.25882 -0
vn -0.90631 -0.42261 -0
vn -0.81915 -0.57358 -0
vn -0.70711 -0.70711 -0
vn -0.57358 -0.81915 -0
vn -0.42261 -0.90631 -0
vn -0.25882 -0.96593 -0
vn -0.08716 -0.99619 -0
vn -0 -1 -0
vn 0.08716 -0.99619 0
vn 0.25882 -0.96593 0
vn 0.42261 -0.90631 0
vn 0.57358 -0.81915 0
vn 0.70711 -0.70711 0
vn 0.81915 -0.57358 0
vn 0.90631 -0.42261 0
vn 0.96593 -0.25882 0
vn 0.99619 -0.08716 0
vn 1 0 0
vn 0.99619 0.08716 0
vn 0.96593 0.25882 0
vn 0.90631 0.42261 0
vn 0.81915 0.57358 0
vn 0.70711 0.70711 0
vn 0.57358 0.81915 0
vn 0.42261 0.90631 0
vn 0.25882 0.96593 0
vn 0.08716 0.99619 0
vn -0 1 0
vn 0 0 1
vn -0 0 -1
usemtl mat1
f 1//1 2//1 3//1
f 1//1 3//1 4//1
f 4//2 3//2 5//2
f 4//2 5//2 6//2
f 6//3 5//3 7//3
f 6//3 7//3 8//3
f 8//4 7//4 9//4
f 8//4 9//4 10//4
f 10//5 9//5 11//5
f 10//5 11//5 12//5
f 12//6 11//6 13//6
f 12//6 13//6 14//6
f 14//7 13//7 15//7
f 14//7 15//7 16//7
f 16//8 15//8 17//8
f 16//8 17//8 18//8
f 18//9 17//9 19//9
f 18//9 19//9 20//9
f 21//10 20//10 22//10
f 22//10 20//10 19//10
f 21//11 22//11 23//11
f 21//11 23//11 24//11
f 24//12 23//12 25//12
f 24//12 25//12 26//12
f 26//13 25//13 27//13
f 26//13 27//13 28//13
f 28//14 27//14 29//14
f 28//14 29//14 30//14
f 30//15 29//15 31//15
f 30//15 31//15 32//15
f 32//16 31//16 33//16
f 32//16 33//16 34//16
f 34//17 33//17 35//17
f 34//17 35//17 36//17
f 36//18 35//18 37//18
f 36//18 37//18 38//18
f 38//19 37//19 39//19
f 38//19 39//19 40//19
f 41//20 40//20 42//20
f 42//20 40//20 39//20
f 41//21 42//21 43//21
f 41//21 43//21 44//21
f 44//22 43//22 45//22
f 44//22 45//22 46//22
f 46//23 45//23 47//23
f 46//23 47//23 48//23
f 48//24 47//24 49//24
f 48//24 49//24 50//24
f 50//25 49//25 51//25
f 50//25 51//25 52//25
f 52//26 51//26 53//26
f 52//26 53//26 54//26
f 54//27 53//27 55//27
f 54//27 55//27 56//27
f 56//28 55//28 57//28
f 56//28 57//28 58//28
f 58//29 57//29 59//29
f 58//29 59//29 60//29
f 61//30 60//30 62//30
f 62//30 60//30 59//30
f 61//31 62//31 63//31
f 61//31 63//31 64//31
f 64//32 63//32 65//32
f 64//32 65//32 66//32
f 66//33 65//33 67//33
f 66//33 67//33 68//33
f 68//34 67//34 69//34
f 68//34 69//34 70//34
f 70//35 69//35 71//35
f 70//35 71//35 72//35
f 72//36 71//36 73//36
f 72//36 73//36 74//36
f 74//37 73//37 75//37
f 74//37 75//37 76//37
f 76//38 75//38 77//38
f 76//38 77//38 78//38
f 78//39 77//39 79//39
f 78//39 79//39 80//39
f 1//40 80//40 2//40
f 2//40 80//40 79//40
f 78//41 80//41 68//41
f 18//41 20//41 6//41
f 36//41 38//41 21//41
f 21//41 38//41 40//41
f 21//41 40//41 20//41
f 61//41 64//41 80//41
f 80//41 64//41 66//41
f 80//41 66//41 68//41
f 68//41 70//41 72//41
f 41//41 80//41 40//41
f 40//41 80//41 1//41
f 40//41 1//41 20//41
f 20//41 1//41 4//41
f 20//41 4//41 6//41
f 61//41 80//41 60//41
f 60//41 80//41 41//41
f 60//41 41//41 58//41
f 58//41 41//41 44//41
f 58//41 44//41 46//41
f 72//41 74//41 68//41
f 68//41 74//41 76//41
f 68//41 76//41 78//41
f 21//41 24//41 36//41
f 36//41 24//41 26//41
f 36//41 26//41 28//41
f 28//41 30//41 36//41
f 36//41 30//41 32//41
f 36//41 32//41 34//41
f 56//41 58//41 54//41
f 54//41 58//41 52//41
f 46//41 48//41 58//41
f 58//41 48//41 50//41
f 58//41 50//41 52//41
f 18//41 6//41 16//41
f 16//41 6//41 8//41
f 16//41 8//41 14//41
f 14//41 8//41 10//41
f 14//41 10//41 12//41
f 43//42 42//42 57//42
f 3//42 2//42 15//42
f 39//42 2//42 42//42
f 42//42 2//42 79//42
f 39//42 37//42 22//42
f 22//42 37//42 35//42
f 22//42 35//42 23//42
f 15//42 2//42 17//42
f 39//42 22//42 2//42
f 2//42 22//42 19//42
f 2//42 19//42 17//42
f 29//42 35//42 31//42
f 31//42 35//42 33//42
f 29//42 27//42 35//42
f 35//42 27//42 25//42
f 35//42 25//42 23//42
f 65//42 79//42 67//42
f 67//42 79//42 77//42
f 67//42 77//42 75//42
f 65//42 63//42 79//42
f 79//42 63//42 62//42
f 79//42 62//42 42//42
f 42//42 62//42 59//42
f 42//42 59//42 57//42
f 75//42 73//42 67//42
f 67//42 73//42 71//42
f 67//42 71//42 69//42
f 3//42 15//42 5//42
f 5//42 15//42 13//42
f 5//42 13//42 7//42
f 7//42 13//42 11//42
f 7//42 11//42 9//42
f 55//42 53//42 57//42
f 57//42 53//42 51//42
f 57//42 51//42 49//42
f 49//42 47//42 57//42
f 57//42 47//42 45//42
f 57//42 45//42 43//42
# Vertices: 80, normals: 42, texture coordinates: 0, faces: 156

