# File generated by ImageToStl.com - Free Image and 3D model conversion tools

mtllib pacs_top_plate.mtl

o obj1
v -0.31999999 0.29500002 0.00635001
v -0.15000001 0.19000001 0.00635001
v 0.31999999 0.29500002 0.00635001
v 0.15000002 0.19000001 0.00635001
v 0.33500004 0.28 0.00635001
v 0.15000002 -0.19000001 0.00635001
v 0.33500004 -0.28 0.00635001
v -0.33500004 0.28 0.00635001
v -0.33500004 -0.28 0.00635001
v -0.15000001 -0.19000001 0.00635001
v -0.31999999 -0.29500002 0.00635001
v 0.31999999 -0.29500002 0.00635001
v -0.31999999 -0.29500002 0
v -0.15000001 -0.19000001 0
v 0.31999999 -0.29500002 0
v 0.15000002 -0.19000001 0
v 0.33500004 -0.28 0
v 0.15000002 0.19000001 0
v 0.33500004 0.28 0
v -0.33500004 -0.28 0
v -0.33500004 0.28 0
v -0.15000001 0.19000001 0
v -0.31999999 0.29500002 0
v 0.31999999 0.29500002 0
vn -0 0 1
vn 0 0 -1
vn 0.70711 0.70711 0
vn -0 1 0
vn -0.70711 0.70711 0
vn -1 0 0
vn -0.70711 -0.70711 -0
vn -0 -1 -0
vn 0.70711 -0.70711 0
vn 1 0 0
usemtl mat1
f 1//1 2//1 3//1
f 3//1 2//1 4//1
f 3//1 4//1 5//1
f 5//1 4//1 6//1
f 5//1 6//1 7//1
f 1//1 8//1 2//1
f 2//1 8//1 9//1
f 2//1 9//1 10//1
f 10//1 9//1 11//1
f 10//1 11//1 6//1
f 6//1 11//1 12//1
f 6//1 12//1 7//1
f 13//2 14//2 15//2
f 15//2 14//2 16//2
f 15//2 16//2 17//2
f 17//2 16//2 18//2
f 17//2 18//2 19//2
f 13//2 20//2 14//2
f 14//2 20//2 21//2
f 14//2 21//2 22//2
f 22//2 21//2 23//2
f 22//2 23//2 18//2
f 18//2 23//2 24//2
f 18//2 24//2 19//2
f 3//3 5//3 24//3
f 24//3 5//3 19//3
f 1//4 3//4 23//4
f 23//4 3//4 24//4
f 8//5 1//5 21//5
f 21//5 1//5 23//5
f 9//6 8//6 20//6
f 20//6 8//6 21//6
f 11//7 9//7 13//7
f 13//7 9//7 20//7
f 12//8 11//8 15//8
f 15//8 11//8 13//8
f 7//9 12//9 17//9
f 17//9 12//9 15//9
f 5//10 7//10 19//10
f 19//10 7//10 17//10
f 10//4 6//4 14//4
f 14//4 6//4 16//4
f 6//6 4//6 16//6
f 16//6 4//6 18//6
f 4//8 2//8 18//8
f 18//8 2//8 22//8
f 2//10 10//10 22//10
f 22//10 10//10 14//10
# Vertices: 24, normals: 10, texture coordinates: 0, faces: 48

