####
#
# OBJ File Generated by Meshlab
#
####
# Object hand.obj
#
# Vertices: 102
# Faces: 200
#
####
vn 0.7576945 0.1092575 0.6433987
v 0.0167349 0.0901289 0.0644319
vn 0.8809353 -0.0932721 0.4639540
v 0.0171343 -0.0892712 0.0636144
vn 0.9950408 -0.0094989 0.0990129
v 0.0315898 -0.0005585 0.0062142
vn -0.8617310 -0.5013438 -0.0779364
v -0.0170537 -0.0955248 0.0221212
vn -0.9058302 -0.4199178 0.0560427
v -0.0175104 -0.0979076 0.0516662
vn -0.9464726 -0.0563679 -0.3178244
v -0.0315975 -0.0019865 0.0011529
vn -0.9473980 0.1329803 -0.2911242
v -0.0259810 0.0757697 -0.0050822
vn -0.9956579 -0.0109598 0.0924406
v -0.0316359 -0.0005787 0.0059731
vn 0.8497133 -0.5229422 -0.0672225
v 0.0170332 -0.0968023 0.0303220
vn 0.9480777 -0.0533264 -0.3135363
v 0.0316158 -0.0018609 0.0011797
vn 0.9321262 -0.3560090 0.0663210
v 0.0175851 -0.0974071 0.0519846
vn 0.9224760 0.2608155 0.2846285
v 0.0185559 0.0946019 0.0566173
vn -0.8902053 -0.4296044 -0.1515740
v -0.0168042 -0.0919061 0.0062955
vn -0.9023880 -0.3198726 -0.2887516
v -0.0168122 -0.0875329 -0.0012065
vn 0.5852847 -0.8102313 0.0310990
v 0.0162301 -0.0995375 0.0515841
vn -0.0003708 -0.9999662 -0.0082169
v -0.0000411 -0.1039897 0.0056909
vn -0.0013049 -0.9745202 -0.2242962
v -0.0000173 -0.1037427 -0.0091993
vn -0.5582604 -0.6939984 -0.4546555
v -0.0036168 -0.1011578 -0.0126103
vn -0.5161394 -0.8359365 -0.1865755
v -0.0034296 -0.1025978 -0.0089643
vn -0.9909282 0.1276734 0.0419626
v -0.0252704 0.0820651 0.0051970
vn -0.8414159 0.0475366 -0.5382932
v -0.0280109 0.0417843 -0.0063964
vn 0.0048106 0.3257895 0.9454302
v -0.0001126 0.0928085 0.0659622
vn -0.1904922 0.5543703 0.8101767
v -0.0125667 0.0937125 0.0651685
vn -0.3166319 0.2025786 0.9266641
v -0.0144220 0.0912765 0.0656897
vn -0.8857375 -0.2090214 0.4144627
v -0.0172547 -0.0907003 0.0630820
vn -0.5406381 -0.1497643 0.8278171
v -0.0154717 -0.0907063 0.0651901
vn -0.7844042 0.1266707 0.6071776
v -0.0167672 0.0902522 0.0643322
vn 0.8890674 -0.4281728 -0.1619484
v 0.0169555 -0.0916029 0.0055628
vn 0.9242847 -0.2941757 0.2432251
v 0.0176072 -0.0938476 0.0584485
vn 0.2291987 -0.9082467 0.3500801
v 0.0125057 -0.1001875 0.0568941
vn 0.3404884 0.9053884 0.2536524
v 0.0155509 0.1001998 0.0546726
vn 0.7951157 0.6034900 0.0599245
v 0.0192688 0.0984936 0.0449417
vn 0.2579356 0.9659062 -0.0222357
v 0.0162184 0.1002852 0.0458698
vn 0.3215052 0.0434102 -0.9459122
v 0.0019174 -0.0455199 -0.0256594
vn 0.8453587 0.0449039 -0.5323086
v 0.0280151 0.0420423 -0.0063496
vn 0.6779990 -0.0968146 -0.7286593
v 0.0038103 -0.0829662 -0.0244493
vn 0.9809820 0.1581872 0.1124777
v 0.0206709 0.0936918 0.0433083
vn 0.9922696 0.1176431 0.0395126
v 0.0254479 0.0811805 0.0035006
vn -0.6167888 -0.1313603 -0.7760903
v -0.0036368 -0.0835859 -0.0246063
vn -0.8817875 -0.1948908 -0.4294979
v -0.0165327 -0.0822363 -0.0051181
vn -0.3452261 -0.8911719 0.2943322
v -0.0140171 -0.1000911 0.0560269
vn -0.5536431 -0.8326641 -0.0122377
v -0.0160131 -0.0996286 0.0493014
vn -0.6024857 -0.3367468 -0.7236109
v -0.0032151 -0.0877660 -0.0238844
vn -0.1608526 -0.3651536 0.9169456
v -0.0129879 -0.0924958 0.0657119
vn -0.0058762 -0.3285566 0.9444660
v -0.0005056 -0.0929453 0.0659531
vn 0.2246878 0.3833227 0.8958678
v 0.0135396 0.0926721 0.0656879
vn 0.1893893 -0.2268012 0.9553496
v 0.0134248 -0.0919270 0.0657313
vn -0.9166296 0.3694926 0.1525308
v -0.0192292 0.0972606 0.0505884
vn 0.8947652 -0.2592517 -0.3635709
v 0.0165582 -0.0851322 -0.0038727
vn 0.5105965 -0.8463397 -0.1516587
v 0.0034948 -0.1027156 -0.0080293
vn 0.8670586 0.4735698 -0.1547295
v 0.0238692 0.0904014 0.0043682
vn 0.8804572 0.4740019 -0.0108346
v 0.0227078 0.0937356 0.0143400
vn 0.9494912 0.1267034 -0.2870763
v 0.0260343 0.0752976 -0.0050308
vn 0.6172350 0.1181974 -0.7778498
v 0.0248167 0.0743775 -0.0071557
vn -0.2515507 0.0404472 -0.9669986
v -0.0015001 -0.0458698 -0.0259248
vn -0.0038266 0.3006317 -0.9537326
v -0.0008338 0.0802600 -0.0073217
vn 0.2856798 0.2395812 -0.9278944
v 0.0229591 0.0779014 -0.0073990
vn -0.3172648 0.3309781 -0.8887051
v -0.0227611 0.0801744 -0.0069095
vn -0.0008582 -0.6993580 -0.7147712
v 0.0000318 -0.0994514 -0.0171612
vn -0.7589869 -0.6045032 0.2418981
v -0.0166321 -0.0985540 0.0547339
vn 0.5543866 -0.7023232 -0.4465397
v 0.0036021 -0.1011947 -0.0126276
vn -0.0096491 0.7294753 0.6839391
v -0.0016167 0.0974711 0.0623073
vn 0.6191113 -0.3168259 0.7185559
v 0.0157184 -0.0917796 0.0649125
vn -0.9490492 0.1718957 0.2641164
v -0.0184487 0.0920155 0.0583932
vn -0.0944209 -0.3870380 -0.9172166
v -0.0006270 -0.0879747 -0.0249616
vn 0.5536333 -0.3625399 -0.7497033
v 0.0030760 -0.0879729 -0.0239787
vn 0.3917196 0.9129754 -0.1141567
v 0.0198020 0.0970111 0.0209140
vn 0.1258062 0.9081727 0.3992431
v 0.0099415 0.1000347 0.0583408
vn 0.7373326 0.6202206 0.2677070
v 0.0171295 0.0990672 0.0543052
vn -0.0002411 0.9440763 -0.3297270
v -0.0003141 0.0946153 0.0075747
vn -0.0028893 0.9901726 -0.1398211
v -0.0000159 0.0984961 0.0270818
vn -0.0030794 0.5987570 -0.8009248
v -0.0003373 0.0865616 -0.0041633
vn 0.3830870 0.6766922 -0.6287544
v 0.0223143 0.0882500 -0.0019332
vn 0.2671289 0.4703766 -0.8410637
v 0.0223770 0.0833552 -0.0055261
vn -0.2997313 0.7896590 -0.5353503
v -0.0213250 0.0909269 0.0009798
vn -0.3715232 0.5428599 -0.7531757
v -0.0227328 0.0854345 -0.0041203
vn -0.8417530 0.4117014 -0.3492191
v -0.0244953 0.0858923 -0.0018327
vn 0.2989777 -0.1240610 -0.9461613
v 0.0018428 -0.0840023 -0.0255249
vn -0.5887554 0.1821240 -0.7875265
v -0.0246502 0.0766680 -0.0069321
vn 0.2701910 -0.6331846 0.7253097
v 0.0131387 -0.0940629 0.0646832
vn -0.1055001 -0.9023637 0.4178632
v -0.0093239 -0.0999826 0.0584892
vn -0.3149838 0.9424012 -0.1125396
v -0.0190668 0.0976971 0.0246275
vn -0.0512623 0.9463089 0.3191736
v -0.0044944 0.1004259 0.0581191
vn -0.2777047 0.9128654 0.2992606
v -0.0146231 0.1001682 0.0557349
vn 0.6027738 -0.7569987 0.2522238
v 0.0158049 -0.0994163 0.0549703
vn 0.4143362 0.8786707 -0.2371990
v 0.0213426 0.0943331 0.0089420
vn 0.0003214 0.8165137 -0.5773260
v -0.0001734 0.0909950 0.0005768
vn 0.3358104 0.8271341 -0.4506447
v 0.0214829 0.0917947 0.0026841
vn 0.7315804 0.3293448 -0.5969273
v 0.0245152 0.0817026 -0.0050514
vn 0.8853914 0.3675384 -0.2846010
v 0.0247294 0.0857401 -0.0012317
vn -0.3154828 0.9171226 -0.2436325
v -0.0206576 0.0946679 0.0095380
vn 0.0155278 -0.9253674 0.3787535
v 0.0011906 -0.1003015 0.0586231
vn 0.0026102 -0.7024571 0.7117214
v 0.0004696 -0.0966559 0.0630784
vn 0.5699293 0.4960075 0.6551009
v 0.0153969 0.0929056 0.0645563
vn -0.1535387 -0.0678206 -0.9858125
v -0.0008678 -0.0825485 -0.0258702
vn -0.8045871 0.5614105 -0.1935407
v -0.0235558 0.0911663 0.0046079
vn -0.4687254 -0.5814251 0.6650123
v -0.0146170 -0.0934417 0.0645000
vn -0.8491185 0.5252181 -0.0560692
v -0.0230261 0.0928969 0.0098769
vn -0.8442234 0.5358985 -0.0099830
v -0.0218221 0.0954417 0.0217564
vn -0.4921763 0.8704466 -0.0092351
v -0.0181926 0.0995179 0.0438142
vn -0.6503167 0.5012866 0.5707891
v -0.0160455 0.0932093 0.0636169
vn -0.6522825 0.7149950 0.2516141
v -0.0169948 0.0993629 0.0541148
# 102 vertices, 0 vertices normals

f 1//1 2//2 3//3
f 4//4 5//5 6//6
f 7//7 6//6 8//8
f 9//9 10//10 11//11
f 10//10 3//3 11//11
f 12//12 1//1 3//3
f 13//13 6//6 14//14
f 8//8 6//6 5//5
f 4//4 6//6 13//13
f 15//15 16//16 17//17
f 18//18 19//19 13//13
f 20//20 7//7 8//8
f 21//21 6//6 7//7
f 22//22 23//23 24//24
f 25//25 26//26 27//27
f 28//28 10//10 9//9
f 2//2 29//29 3//3
f 29//29 11//11 3//3
f 30//30 16//16 15//15
f 31//31 32//32 33//33
f 34//34 35//35 36//36
f 37//37 3//3 38//38
f 6//6 39//39 40//40
f 25//25 8//8 5//5
f 41//41 42//42 16//16
f 18//18 14//14 43//43
f 22//22 24//24 44//44
f 44//44 45//45 22//22
f 46//46 22//22 45//45
f 45//45 47//47 46//46
f 20//20 8//8 48//48
f 9//9 11//11 15//15
f 36//36 10//10 49//49
f 50//50 28//28 9//9
f 10//10 36//36 35//35
f 12//12 37//37 32//32
f 37//37 12//12 3//3
f 37//37 38//38 51//51
f 37//37 52//52 32//32
f 52//52 37//37 51//51
f 10//10 35//35 53//53
f 10//10 53//53 38//38
f 10//10 38//38 3//3
f 54//54 35//35 34//34
f 55//55 56//56 57//57
f 56//56 55//55 58//58
f 57//57 54//54 34//34
f 39//39 6//6 21//21
f 59//59 18//18 43//43
f 40//40 39//39 43//43
f 14//14 40//40 43//43
f 14//14 6//6 40//40
f 60//60 25//25 5//5
f 59//59 61//61 17//17
f 42//42 60//60 5//5
f 16//16 42//42 17//17
f 62//62 22//22 46//46
f 22//22 62//62 23//23
f 1//1 46//46 63//63
f 47//47 63//63 46//46
f 25//25 64//64 8//8
f 64//64 25//25 27//27
f 64//64 48//48 8//8
f 65//65 59//59 43//43
f 66//66 36//36 49//49
f 63//63 2//2 1//1
f 33//33 32//32 67//67
f 68//68 62//62 46//46
f 32//32 69//69 12//12
f 70//70 71//71 67//67
f 53//53 35//35 54//54
f 72//72 73//73 74//74
f 75//75 76//76 77//77
f 78//78 55//55 34//34
f 55//55 79//79 58//58
f 4//4 42//42 5//5
f 50//50 15//15 17//17
f 59//59 17//17 18//18
f 7//7 20//20 77//77
f 24//24 26//26 44//44
f 27//27 26//26 24//24
f 45//45 80//80 47//47
f 41//41 16//16 81//81
f 82//82 71//71 70//70
f 62//62 83//83 23//23
f 33//33 84//84 83//83
f 49//49 28//28 61//61
f 61//61 28//28 50//50
f 61//61 50//50 17//17
f 63//63 85//85 29//29
f 85//85 30//30 15//15
f 80//80 85//85 63//63
f 85//85 80//80 30//30
f 9//9 15//15 50//50
f 85//85 15//15 11//11
f 11//11 29//29 85//85
f 83//83 62//62 68//68
f 34//34 36//36 78//78
f 70//70 67//67 86//86
f 71//71 33//33 67//67
f 58//58 76//76 72//72
f 73//73 87//87 88//88
f 72//72 74//74 56//56
f 56//56 74//74 57//57
f 34//34 55//55 57//57
f 21//21 79//79 55//55
f 21//21 7//7 79//79
f 89//89 73//73 90//90
f 39//39 21//21 55//55
f 91//91 82//82 70//70
f 84//84 23//23 83//83
f 28//28 49//49 10//10
f 92//92 80//80 93//93
f 31//31 33//33 68//68
f 68//68 33//33 83//83
f 51//51 86//86 52//52
f 69//69 32//32 31//31
f 46//46 94//94 68//68
f 94//94 31//31 68//68
f 94//94 12//12 69//69
f 76//76 75//75 72//72
f 90//90 53//53 89//89
f 86//86 51//51 88//88
f 75//75 70//70 87//87
f 87//87 70//70 88//88
f 95//95 55//55 78//78
f 39//39 55//55 95//95
f 14//14 18//18 13//13
f 42//42 41//41 60//60
f 19//19 17//17 42//42
f 19//19 4//4 13//13
f 45//45 93//93 80//80
f 92//92 93//93 81//81
f 16//16 30//30 92//92
f 92//92 81//81 16//16
f 96//96 77//77 20//20
f 66//66 59//59 65//65
f 65//65 78//78 66//66
f 59//59 66//66 61//61
f 49//49 61//61 66//66
f 2//2 63//63 29//29
f 80//80 63//63 47//47
f 80//80 92//92 30//30
f 78//78 36//36 66//66
f 94//94 69//69 31//31
f 94//94 46//46 1//1
f 12//12 94//94 1//1
f 70//70 86//86 88//88
f 67//67 52//52 86//86
f 52//52 67//67 32//32
f 57//57 89//89 54//54
f 53//53 90//90 38//38
f 90//90 51//51 38//38
f 75//75 87//87 72//72
f 72//72 87//87 73//73
f 56//56 58//58 72//72
f 42//42 4//4 19//19
f 19//19 18//18 17//17
f 97//97 81//81 44//44
f 81//81 93//93 44//44
f 41//41 97//97 60//60
f 26//26 97//97 44//44
f 98//98 99//99 91//91
f 100//100 33//33 71//71
f 84//84 33//33 100//100
f 96//96 75//75 77//77
f 95//95 78//78 65//65
f 73//73 89//89 74//74
f 53//53 54//54 89//89
f 73//73 88//88 51//51
f 90//90 73//73 51//51
f 41//41 81//81 97//97
f 44//44 93//93 45//45
f 25//25 97//97 26//26
f 101//101 48//48 64//64
f 64//64 27//27 101//101
f 102//102 48//48 101//101
f 96//96 98//98 91//91
f 48//48 99//99 20//20
f 99//99 98//98 20//20
f 98//98 96//96 20//20
f 96//96 91//91 75//75
f 84//84 101//101 23//23
f 27//27 24//24 101//101
f 89//89 57//57 74//74
f 77//77 76//76 79//79
f 79//79 76//76 58//58
f 79//79 7//7 77//77
f 102//102 84//84 100//100
f 91//91 99//99 82//82
f 48//48 100//100 99//99
f 100//100 48//48 102//102
f 75//75 91//91 70//70
f 84//84 102//102 101//101
f 24//24 23//23 101//101
f 43//43 95//95 65//65
f 25//25 60//60 97//97
f 82//82 100//100 71//71
f 43//43 39//39 95//95
f 100//100 82//82 99//99
# 200 faces, 0 coords texture

# End of File
