####
#
# OBJ File Generated by Meshlab
#
####
# Object link5.obj
#
# Vertices: 152
# Faces: 300
#
####
vn -0.5895507 0.4710392 -0.6561648
v -0.0431297 0.0345984 -0.2589942
vn -0.8617055 0.4973570 -0.1004974
v -0.0494913 0.1046316 -0.0079734
vn -0.6104680 0.7629595 -0.2126537
v -0.0275999 0.0884093 -0.1730663
vn -0.4864217 -0.5934807 0.6412289
v -0.0292369 0.0157964 0.0380748
vn -0.6608269 -0.5646362 0.4944633
v -0.0389992 0.0158124 0.0282289
vn -0.1168548 -0.9752159 0.1878801
v -0.0078601 -0.0514125 -0.2161657
vn 0.1338697 0.5816287 -0.8023634
v 0.0114866 0.0542361 -0.2589960
vn -0.0818982 0.5938113 -0.8004255
v -0.0079703 0.0545813 -0.2590029
vn -0.0049470 0.9249016 -0.3801743
v -0.0007070 0.0853749 -0.1988305
vn 0.8015912 -0.5116192 0.3093500
v 0.0452178 0.0158122 0.0161791
vn 0.8388794 0.2874219 0.4622445
v 0.0452456 0.1010176 0.0243984
vn 0.6814953 -0.5624138 0.4682468
v 0.0401474 0.0158034 0.0263116
vn 0.7051529 0.2004449 -0.6801333
v 0.0525800 0.0174219 -0.2589999
vn 0.9451185 0.3148828 0.0871774
v 0.0505261 0.1033377 0.0030460
vn 0.7498313 -0.0049342 -0.6616108
v 0.0550834 -0.0023209 -0.2590055
vn 0.9063994 -0.3962896 0.1462698
v 0.0476676 0.0158614 0.0057259
vn 0.5085183 -0.5856169 0.6312384
v 0.0312880 0.0158058 0.0365844
vn 0.5614746 0.2551210 0.7871845
v 0.0305157 0.0989522 0.0420534
vn 0.3795044 0.2390429 0.8937756
v 0.0201633 0.0982485 0.0481919
vn -0.9235417 0.2899089 0.2510452
v -0.0490085 0.1018807 0.0147023
vn -0.9364152 0.3468198 0.0533161
v -0.0504056 0.1039396 0.0002623
vn -0.9061421 -0.3969971 0.1459443
v -0.0476623 0.0158612 0.0057837
vn -0.8492347 0.2856773 0.4440596
v -0.0454135 0.1010115 0.0238831
vn -0.7524291 0.2836124 0.5944868
v -0.0403533 0.1001770 0.0322553
vn -0.6460885 0.6242480 0.4391856
v -0.0386603 0.1083386 0.0247012
vn -0.7633923 0.3561798 -0.5388584
v -0.0502983 0.0223771 -0.2590019
vn -0.4038538 -0.9002597 0.1625875
v -0.0234528 -0.0479827 -0.2213820
vn -0.7982472 -0.5141515 0.3137672
v -0.0452524 0.0158049 0.0160020
vn 0.7055700 0.2802857 0.6508541
v 0.0374091 0.0998212 0.0358420
vn -0.2827256 -0.6023802 0.7464612
v -0.0176322 0.0158056 0.0447858
vn -0.0984988 0.2250191 0.9693629
v -0.0046490 0.0978020 0.0521683
vn -0.3446226 0.2633555 0.9010434
v -0.0198253 0.0985332 0.0482747
vn -0.0382427 -0.6066272 0.7940661
v -0.0026546 0.0158048 0.0479836
vn 0.2966508 0.6766844 0.6738669
v 0.0151821 0.1166508 0.0355168
vn 0.1796944 0.8727681 0.4538565
v 0.0103223 0.1256169 0.0272410
vn 0.1535223 0.6931456 0.7042586
v 0.0074455 0.1175385 0.0372639
vn 0.8821920 0.4615189 -0.0934758
v 0.0495139 0.1044384 -0.0080352
vn 0.5604658 0.3894595 -0.7308894
v 0.0434737 0.0340160 -0.2589985
vn -0.1311361 0.9074665 -0.3991338
v -0.0113925 0.0843027 -0.1996912
vn -0.4346806 0.8292582 -0.3512601
v -0.0222302 0.0840403 -0.1946997
vn -0.3221570 0.5639865 -0.7603513
v -0.0260160 0.0489773 -0.2589963
vn -0.2176588 0.9695246 0.1124579
v -0.0157678 0.1282089 0.0107058
vn -0.2949168 0.8599952 0.4164521
v -0.0164345 0.1252615 0.0250506
vn -0.0450270 0.9813669 0.1867929
v -0.0042112 0.1289828 0.0165327
vn -0.0472186 0.8730401 0.4853570
v -0.0029786 0.1257466 0.0289296
vn -0.6348400 0.2669668 0.7250565
v -0.0341411 0.0993251 0.0390974
vn -0.4891700 0.2554450 0.8339428
v -0.0253971 0.0985604 0.0454500
vn -0.4476111 0.5850218 0.6763090
v -0.0271260 0.1053245 0.0393822
vn 0.7559241 0.6300851 0.1776841
v 0.0446027 0.1093000 0.0097237
vn 0.9147480 0.2905208 0.2807738
v 0.0485813 0.1018100 0.0158750
vn 0.0632332 0.9967276 0.0503569
v 0.0057022 0.1297777 0.0078626
vn -0.0865334 0.9918061 0.0939820
v -0.0068068 0.1295179 0.0113243
vn 0.1102779 0.9798786 0.1663631
v 0.0082377 0.1288884 0.0147072
vn 0.3966519 0.6889249 0.6066710
v 0.0202673 0.1171448 0.0322446
vn 0.3735834 0.8498865 0.3716563
v 0.0216090 0.1246242 0.0214860
vn 0.5768443 0.7872784 -0.2178155
v 0.0271491 0.0882184 -0.1753670
vn 0.2540351 0.8758807 -0.4102428
v 0.0169703 0.0828636 -0.2008495
vn 0.3651465 0.5049120 -0.7821330
v 0.0309746 0.0457553 -0.2590012
vn 0.1012393 0.9255574 -0.3648206
v 0.0108505 0.0851653 -0.1979107
vn 0.1182667 0.9911216 -0.0607533
v 0.0101799 0.1293958 -0.0007215
vn 0.2558824 0.9572578 -0.1348398
v 0.0182858 0.1273739 -0.0052543
vn 0.0953595 0.9796102 -0.1768343
v 0.0086459 0.1284139 -0.0094439
vn 0.9553971 -0.2940288 0.0276328
v 0.0521465 -0.0174772 -0.2430114
vn 0.7390311 -0.1524521 -0.6561946
v 0.0543174 -0.0101140 -0.2589862
vn 0.0485068 0.5608795 0.8264753
v 0.0026027 0.1053027 0.0479468
vn 0.2245834 0.5773669 0.7849903
v 0.0131700 0.1059571 0.0454911
vn -0.4911828 0.8441203 0.2149430
v -0.0282014 0.1237981 0.0136459
vn -0.5483848 0.8357045 -0.0295307
v -0.0329027 0.1221643 0.0002261
vn -0.7139705 0.6837862 0.1506070
v -0.0414176 0.1135004 0.0075943
vn -0.1827002 0.9821224 -0.0453456
v -0.0145820 0.1287092 0.0006081
vn -0.0397916 0.9988769 -0.0257195
v -0.0040466 0.1299043 0.0025594
vn -0.2233931 0.9601387 -0.1680155
v -0.0165431 0.1273244 -0.0078957
vn -0.0662384 0.9869229 -0.1469554
v -0.0063397 0.1291119 -0.0067726
vn -0.6431929 0.6920570 0.3276585
v -0.0347610 0.1165302 0.0171931
vn -0.7192938 0.6292804 0.2943169
v -0.0434734 0.1082153 0.0158497
vn -0.5392839 0.7081614 0.4557196
v -0.0284354 0.1183711 0.0235507
vn -0.8910856 0.1808617 -0.4162400
v -0.0539719 0.0115474 -0.2590069
vn 0.1589372 0.2285269 0.9604762
v 0.0084574 0.0978552 0.0515797
vn 0.2455990 -0.5984629 0.7625767
v 0.0147910 0.0157738 0.0459360
vn -0.2504022 -0.9532788 0.1689918
v -0.0148123 -0.0506939 -0.2195695
vn -0.0711895 -0.9967051 0.0388739
v -0.0051461 -0.0545972 -0.2454506
vn -0.1634217 -0.9828190 0.0857920
v -0.0111501 -0.0530911 -0.2339016
vn -0.2023866 -0.9790016 0.0244054
v -0.0115895 -0.0538088 -0.2485294
vn 0.5462759 0.8323247 -0.0939059
v 0.0330692 0.1216455 -0.0029427
vn 0.3582397 0.9292931 -0.0898814
v 0.0245115 0.1257293 -0.0020520
vn 0.5397073 0.8363142 0.0964091
v 0.0314263 0.1229068 0.0069087
vn 0.6993889 0.7103176 0.0793980
v 0.0401915 0.1152855 0.0039491
vn 0.7044512 0.7035953 -0.0932855
v 0.0425233 0.1129993 -0.0062560
vn -0.1493213 0.5701208 0.8078772
v -0.0080015 0.1063049 0.0465022
vn 0.0025346 0.6944939 0.7194941
v -0.0001010 0.1175975 0.0381533
vn 0.2517210 0.9654331 0.0676429
v 0.0182157 0.1279113 0.0081894
vn 0.4423380 0.8348288 -0.3277164
v 0.0231660 0.0849566 -0.1910889
vn 0.7733611 0.6334159 0.0264001
v 0.0473394 0.1077765 -0.0000152
vn 0.1505650 0.9542204 -0.2584450
v 0.0146662 0.0894052 -0.1832722
vn -0.2302233 0.9440578 -0.2361188
v -0.0202999 0.0899220 -0.1771499
vn 0.0298519 -0.7697707 -0.6376222
v 0.0031347 -0.0551279 -0.2589477
vn -0.0187277 -0.9960669 0.0866031
v -0.0015008 -0.0540861 -0.2348905
vn 0.6667193 -0.7411222 0.0788879
v 0.0369915 -0.0408355 -0.2316709
vn 0.4580723 0.6001965 0.6556935
v 0.0269810 0.1068743 0.0380555
vn 0.3589045 0.5763366 0.7341823
v 0.0207982 0.1050104 0.0432091
vn -0.3082801 0.9510950 0.0195393
v -0.0209443 0.1271820 0.0046854
vn -0.0947863 0.9572763 -0.2731989
v -0.0108770 0.0890852 -0.1860030
vn 0.0092739 0.9624620 -0.2712580
v 0.0003668 0.0898177 -0.1855361
vn -0.3487986 0.9300256 -0.1157241
v -0.0234611 0.1259960 -0.0033863
vn -0.4253056 0.6810458 0.5960635
v -0.0218753 0.1173903 0.0308766
vn -0.5379832 0.6321639 0.5576226
v -0.0308965 0.1105555 0.0311087
vn -0.9308619 -0.0755800 -0.3574685
v -0.0550165 -0.0043879 -0.2589862
vn -0.9724813 -0.2312867 0.0280481
v -0.0532127 -0.0139108 -0.2455238
vn 0.6969952 0.6656512 0.2666574
v 0.0411203 0.1120555 0.0135454
vn 0.6075881 0.6995497 0.3761209
v 0.0325105 0.1174440 0.0194622
vn 0.6445786 0.6180686 0.4500107
v 0.0386729 0.1079870 0.0252563
vn 0.4745446 0.8464947 0.2413591
v 0.0265211 0.1241063 0.0157984
vn -0.1365007 0.6709068 0.7288700
v -0.0059929 0.1158657 0.0390410
vn -0.2980962 0.6268254 0.7198809
v -0.0158787 0.1114556 0.0401963
vn -0.2563863 0.7094738 0.6564396
v -0.0132128 0.1189507 0.0338964
vn 0.1825635 -0.9637255 0.1946888
v 0.0099600 -0.0507371 -0.2143683
vn 0.2807483 -0.9468406 0.1570772
v 0.0174026 -0.0501811 -0.2209846
vn -0.6956221 0.7151293 -0.0685566
v -0.0410612 0.1146964 -0.0040351
vn -0.1559674 -0.7529038 -0.6393826
v -0.0117632 -0.0538961 -0.2590008
vn 0.0376963 -0.9807703 0.1914905
v 0.0034346 -0.0515255 -0.2143005
vn 0.5297195 0.6546325 0.5393084
v 0.0296286 0.1129333 0.0296168
vn 0.8983282 -0.4379369 0.0348944
v 0.0488723 -0.0254256 -0.2398558
vn 0.7503785 -0.6589720 0.0518463
v 0.0408193 -0.0371286 -0.2341220
vn 0.5768752 -0.4682071 -0.6693259
v 0.0429261 -0.0344745 -0.2589998
vn 0.8320774 -0.5522252 0.0519079
v 0.0451441 -0.0316053 -0.2356416
vn 0.4624252 -0.5901797 -0.6617031
v 0.0340123 -0.0434612 -0.2589995
vn 0.1667012 -0.7369039 -0.6551208
v 0.0112114 -0.0539775 -0.2590058
vn 0.2052503 -0.9779669 0.0381195
v 0.0128038 -0.0534418 -0.2440055
vn 0.4624912 -0.8858672 0.0366227
v 0.0267557 -0.0481624 -0.2374767
vn 0.3273257 -0.9435443 0.0508153
v 0.0200073 -0.0512251 -0.2392392
vn 0.3098918 -0.6839066 -0.6604838
v 0.0225281 -0.0502768 -0.2589973
vn 0.5555992 -0.8298863 0.0509743
v 0.0315654 -0.0452086 -0.2346295
vn -0.8505379 -0.5236751 0.0484726
v -0.0460709 -0.0302314 -0.2363998
vn -0.6905999 -0.4731949 -0.5469538
v -0.0464919 -0.0297098 -0.2590491
vn -0.7760224 -0.6284644 0.0531202
v -0.0423511 -0.0353167 -0.2341110
vn -0.9155608 -0.4008977 0.0320865
v -0.0498712 -0.0235233 -0.2414693
vn -0.8378822 -0.3073572 -0.4510930
v -0.0520371 -0.0180928 -0.2590156
vn -0.5763587 -0.8169393 0.0205143
v -0.0321645 -0.0448436 -0.2375783
vn -0.5310656 -0.5995104 -0.5987960
v -0.0368860 -0.0408478 -0.2590129
vn -0.3536038 -0.6957775 -0.6251864
v -0.0255127 -0.0489140 -0.2590173
vn -0.4404586 -0.8963380 0.0507389
v -0.0254716 -0.0487866 -0.2364360
vn -0.5536454 -0.8238602 0.1213723
v -0.0313379 -0.0446826 -0.2272495
vn 0.6654319 -0.3361262 -0.6664981
v 0.0487483 -0.0257148 -0.2590016
vn 0.1299638 -0.9873038 0.0913272
v 0.0081800 -0.0534604 -0.2326183
vn 0.4121851 -0.9002870 0.1399529
v 0.0241036 -0.0481842 -0.2239651
vn 0.5546386 -0.8192862 0.1454175
v 0.0310893 -0.0441283 -0.2234770
vn -0.2002169 0.9330118 -0.2990021
v -0.0178172 0.0870815 -0.1889872
vn -0.3776419 -0.0685813 -0.9234085
v -0.0497202 -0.0033515 -0.2645544
vn -0.3863652 0.0690298 -0.9197591
v -0.0497018 0.0034723 -0.2645437
vn -0.6864899 -0.7235969 0.0716880
v -0.0380371 -0.0398825 -0.2321963
vn -0.3318524 -0.9430672 0.0223212
v -0.0196949 -0.0513601 -0.2423560
vn -0.3001674 -0.9499947 0.0860794
v -0.0184352 -0.0512724 -0.2325334
# 152 vertices, 0 vertices normals

f 1//1 2//2 3//3
f 4//4 5//5 6//6
f 7//7 8//8 9//9
f 10//10 11//11 12//12
f 13//13 14//14 15//15
f 15//15 14//14 16//16
f 17//17 18//18 19//19
f 20//20 21//21 22//22
f 23//23 24//24 25//25
f 5//5 24//24 23//23
f 1//1 26//26 2//2
f 27//27 5//5 28//28
f 29//29 18//18 17//17
f 30//30 4//4 6//6
f 31//31 32//32 30//30
f 31//31 30//30 33//33
f 34//34 35//35 36//36
f 37//37 13//13 38//38
f 39//39 9//9 8//8
f 40//40 8//8 41//41
f 28//28 20//20 22//22
f 42//42 43//43 44//44
f 44//44 43//43 45//45
f 4//4 46//46 5//5
f 47//47 48//48 46//46
f 46//46 4//4 47//47
f 14//14 49//49 50//50
f 50//50 16//16 14//14
f 51//51 52//52 53//53
f 35//35 54//54 55//55
f 53//53 35//35 55//55
f 45//45 35//35 44//44
f 56//56 37//37 38//38
f 7//7 57//57 58//58
f 57//57 7//7 59//59
f 60//60 61//61 62//62
f 63//63 64//64 16//16
f 64//64 15//15 16//16
f 65//65 66//66 36//36
f 67//67 68//68 69//69
f 42//42 44//44 52//52
f 70//70 52//52 71//71
f 72//72 70//70 73//73
f 74//74 75//75 25//25
f 67//67 43//43 42//42
f 67//67 76//76 43//43
f 77//77 2//2 26//26
f 1//1 40//40 41//41
f 40//40 39//39 8//8
f 78//78 65//65 31//31
f 31//31 33//33 78//78
f 78//78 33//33 79//79
f 27//27 80//80 5//5
f 6//6 5//5 80//80
f 81//81 82//82 83//83
f 4//4 30//30 47//47
f 50//50 11//11 10//10
f 84//84 85//85 86//86
f 86//86 87//87 84//84
f 84//84 87//87 88//88
f 47//47 30//30 32//32
f 32//32 48//48 47//47
f 31//31 89//89 32//32
f 89//89 31//31 65//65
f 65//65 90//90 89//89
f 65//65 78//78 66//66
f 91//91 53//53 55//55
f 91//91 51//51 53//53
f 92//92 38//38 58//58
f 56//56 38//38 92//92
f 93//93 49//49 14//14
f 9//9 59//59 7//7
f 92//92 58//58 57//57
f 92//92 59//59 94//94
f 73//73 95//95 72//72
f 81//81 96//96 97//97
f 98//98 16//16 10//10
f 99//99 54//54 100//100
f 100//100 54//54 34//34
f 70//70 42//42 52//52
f 42//42 101//101 67//67
f 101//101 68//68 67//67
f 51//51 71//71 52//52
f 102//102 103//103 39//39
f 72//72 104//104 70//70
f 42//42 70//70 101//101
f 101//101 70//70 104//104
f 3//3 104//104 95//95
f 74//74 69//69 75//75
f 23//23 28//28 5//5
f 69//69 74//74 67//67
f 20//20 75//75 69//69
f 20//20 69//69 21//21
f 76//76 105//105 43//43
f 76//76 25//25 106//106
f 46//46 24//24 5//5
f 106//106 25//25 24//24
f 77//77 107//107 21//21
f 1//1 3//3 40//40
f 19//19 78//78 79//79
f 78//78 19//19 66//66
f 107//107 108//108 22//22
f 79//79 17//17 19//19
f 29//29 17//17 12//12
f 50//50 49//49 109//109
f 110//110 111//111 109//109
f 49//49 87//87 109//109
f 53//53 44//44 35//35
f 86//86 112//112 109//109
f 112//112 110//110 109//109
f 91//91 112//112 86//86
f 85//85 91//91 86//86
f 109//109 87//87 86//86
f 113//113 114//114 89//89
f 115//115 43//43 105//105
f 45//45 36//36 35//35
f 36//36 45//45 90//90
f 91//91 60//60 51//51
f 56//56 84//84 88//88
f 85//85 84//84 56//56
f 37//37 14//14 13//13
f 93//93 87//87 49//49
f 59//59 9//9 94//94
f 103//103 94//94 9//9
f 59//59 92//92 57//57
f 94//94 56//56 92//92
f 51//51 60//60 71//71
f 73//73 71//71 60//60
f 116//116 117//117 12//12
f 116//116 12//12 17//17
f 36//36 66//66 34//34
f 52//52 44//44 53//53
f 73//73 70//70 71//71
f 104//104 72//72 95//95
f 74//74 76//76 67//67
f 74//74 25//25 76//76
f 105//105 76//76 106//106
f 21//21 118//118 2//2
f 96//96 81//81 119//119
f 119//119 81//81 83//83
f 107//107 22//22 21//21
f 120//120 6//6 97//97
f 111//111 110//110 121//121
f 121//121 110//110 55//55
f 11//11 50//50 109//109
f 111//111 11//11 109//109
f 50//50 10//10 16//16
f 93//93 37//37 88//88
f 114//114 113//113 115//115
f 115//115 113//113 45//45
f 115//115 45//45 43//43
f 89//89 90//90 113//113
f 114//114 32//32 89//89
f 105//105 114//114 115//115
f 55//55 54//54 121//121
f 34//34 54//54 35//35
f 90//90 65//65 36//36
f 19//19 18//18 100//100
f 99//99 100//100 18//18
f 100//100 66//66 19//19
f 66//66 100//100 34//34
f 91//91 85//85 61//61
f 112//112 91//91 55//55
f 93//93 14//14 37//37
f 73//73 62//62 103//103
f 9//9 39//39 103//103
f 102//102 95//95 73//73
f 122//122 63//63 16//16
f 123//123 124//124 125//125
f 123//123 126//126 124//124
f 123//123 98//98 126//126
f 96//96 127//127 128//128
f 129//129 130//130 131//131
f 79//79 116//116 17//17
f 129//129 131//131 126//126
f 132//132 129//129 126//126
f 29//29 99//99 18//18
f 60//60 62//62 73//73
f 118//118 69//69 68//68
f 118//118 21//21 69//69
f 25//25 75//75 23//23
f 105//105 106//106 48//48
f 106//106 46//46 48//48
f 104//104 3//3 68//68
f 21//21 2//2 77//77
f 133//133 134//134 135//135
f 136//136 137//137 134//134
f 138//138 139//139 140//140
f 141//141 27//27 142//142
f 28//28 142//142 27//27
f 141//141 142//142 138//138
f 120//120 79//79 33//33
f 110//110 112//112 55//55
f 11//11 111//111 29//29
f 11//11 29//29 12//12
f 37//37 56//56 88//88
f 45//45 113//113 90//90
f 60//60 91//91 61//61
f 61//61 85//85 56//56
f 62//62 61//61 94//94
f 94//94 61//61 56//56
f 94//94 103//103 62//62
f 63//63 122//122 143//143
f 63//63 143//143 64//64
f 98//98 123//123 16//16
f 98//98 132//132 126//126
f 97//97 144//144 120//120
f 131//131 130//130 127//127
f 132//132 145//145 129//129
f 146//146 98//98 10//10
f 10//10 145//145 146//146
f 132//132 98//98 146//146
f 68//68 101//101 104//104
f 147//147 95//95 102//102
f 24//24 46//46 106//106
f 118//118 68//68 3//3
f 2//2 118//118 3//3
f 147//147 39//39 40//40
f 39//39 147//147 102//102
f 96//96 119//119 148//148
f 127//127 96//96 148//148
f 148//148 119//119 140//140
f 131//131 127//127 148//148
f 148//148 140//140 139//139
f 126//126 131//131 148//148
f 148//148 124//124 126//126
f 148//148 134//134 137//137
f 148//148 143//143 124//124
f 148//148 64//64 143//143
f 148//148 15//15 64//64
f 149//149 41//41 8//8
f 1//1 41//41 149//149
f 149//149 8//8 7//7
f 149//149 26//26 1//1
f 77//77 26//26 149//149
f 7//7 58//58 149//149
f 149//149 107//107 77//77
f 149//149 148//148 107//107
f 58//58 38//38 149//149
f 149//149 38//38 13//13
f 13//13 15//15 149//149
f 15//15 148//148 149//149
f 150//150 135//135 139//139
f 136//136 108//108 137//137
f 97//97 6//6 82//82
f 82//82 6//6 80//80
f 138//138 150//150 139//139
f 138//138 142//142 150//150
f 140//140 151//151 141//141
f 30//30 6//6 120//120
f 120//120 33//33 30//30
f 29//29 111//111 121//121
f 114//114 48//48 32//32
f 99//99 121//121 54//54
f 88//88 87//87 93//93
f 124//124 143//143 125//125
f 96//96 144//144 97//97
f 95//95 40//40 3//3
f 20//20 23//23 75//75
f 20//20 28//28 23//23
f 137//137 107//107 148//148
f 137//137 108//108 107//107
f 133//133 136//136 134//134
f 97//97 82//82 81//81
f 152//152 82//82 80//80
f 142//142 28//28 22//22
f 142//142 22//22 150//150
f 138//138 140//140 141//141
f 120//120 116//116 79//79
f 29//29 121//121 99//99
f 114//114 105//105 48//48
f 16//16 123//123 125//125
f 122//122 125//125 143//143
f 128//128 144//144 96//96
f 144//144 116//116 120//120
f 128//128 127//127 130//130
f 103//103 102//102 73//73
f 95//95 147//147 40//40
f 135//135 150//150 22//22
f 139//139 135//135 134//134
f 134//134 148//148 139//139
f 151//151 119//119 83//83
f 125//125 122//122 16//16
f 10//10 12//12 145//145
f 12//12 117//117 145//145
f 116//116 144//144 117//117
f 132//132 146//146 145//145
f 27//27 141//141 152//152
f 141//141 151//151 152//152
f 152//152 151//151 83//83
f 152//152 83//83 82//82
f 145//145 130//130 129//129
f 133//133 135//135 22//22
f 136//136 133//133 22//22
f 151//151 140//140 119//119
f 108//108 136//136 22//22
f 152//152 80//80 27//27
f 117//117 130//130 145//145
f 130//130 144//144 128//128
f 144//144 130//130 117//117
# 300 faces, 0 coords texture

# End of File
