####
#
# OBJ File Generated by Meshlab
#
####
# Object link2.obj
#
# Vertices: 152
# Faces: 300
#
####
vn 0.8844691 0.1961576 -0.4233634
v 0.0547799 0.0087555 0.0006950
vn 0.9968137 0.0295646 0.0740843
v 0.0549849 0.0017970 0.0600771
vn 0.7312390 -0.6797678 -0.0566160
v 0.0549358 -0.1940029 -0.0050002
vn 0.9801136 0.1783725 0.0869517
v 0.0541351 0.0094444 0.0628215
vn 0.5486035 0.0935315 -0.8308346
v 0.0310510 -0.1260817 -0.0455013
vn 0.7377789 0.4374322 -0.5141356
v 0.0476010 0.0280333 0.0004897
vn 0.9141812 0.3970731 0.0812763
v 0.0502436 0.0226741 0.0632384
vn 0.3769985 0.1172850 -0.9187581
v 0.0212053 -0.1265880 -0.0508097
vn 0.7161739 0.0668927 -0.6947088
v 0.0399461 -0.1244942 -0.0379263
vn 0.8692679 0.0333587 -0.4932145
v 0.0484134 -0.1232613 -0.0265320
vn -0.6827739 -0.6878380 -0.2463712
v -0.0518832 -0.1939998 -0.0183946
vn -0.8974764 0.0275832 -0.4401993
v -0.0500141 -0.1216969 -0.0232611
vn -0.6174793 -0.6818032 -0.3922549
v -0.0466703 -0.1939998 -0.0294255
vn -0.6643764 0.5242168 -0.5327295
v -0.0439629 0.0332954 0.0004897
vn -0.6471590 0.7575790 0.0852018
v -0.0361510 0.0416476 0.0644805
vn -0.4780398 0.6809847 -0.5547412
v -0.0320994 0.0449999 0.0005083
vn -0.2523077 -0.2946409 0.9216983
v -0.0152371 -0.0171926 0.1250839
vn -0.2724678 -0.7977509 0.5379171
v -0.0237602 -0.1940000 0.0497122
vn -0.1129611 -0.8059292 0.5811350
v -0.0105780 -0.1940000 0.0541490
vn -0.4220361 -0.2594155 0.8686709
v -0.0254664 -0.0161975 0.1214388
vn 0.5037215 -0.2695914 0.8207223
v 0.0307019 -0.0160908 0.1184951
vn 0.2496290 -0.7958241 0.5516788
v 0.0218367 -0.1940000 0.0506868
vn 0.4367325 -0.7731644 0.4598714
v 0.0369534 -0.1940000 0.0410870
vn 0.2947285 0.9520994 0.0814981
v 0.0160940 0.0527631 0.0641438
vn 0.4176418 0.7159147 -0.5595012
v 0.0285992 0.0472740 0.0004997
vn 0.2010531 0.7965218 -0.5702024
v 0.0135640 0.0534440 0.0004973
vn 0.5096703 0.8555859 0.0906031
v 0.0287201 0.0470227 0.0647734
vn 0.0697686 0.1488525 -0.9863952
v 0.0035119 -0.1255800 -0.0548820
vn 0.2143714 0.1348820 -0.9673944
v 0.0114522 -0.1261286 -0.0537865
vn -0.2585700 0.1290016 -0.9573402
v -0.0138711 -0.1264134 -0.0533398
vn 0.5885926 0.5944865 -0.5478545
v 0.0390762 0.0387882 0.0004974
vn -0.7687401 -0.1899923 0.6106894
v -0.0439361 -0.0117967 0.1086318
vn -0.8764164 -0.0534573 0.4785776
v -0.0462278 -0.0036525 0.1076273
vn -0.6211306 -0.7291147 0.2873824
v -0.0487421 -0.1939994 0.0259655
vn -0.9092998 0.1488941 -0.3885931
v -0.0548289 0.0064232 0.0005920
vn -0.9709018 0.0110058 -0.2392247
v -0.0534466 -0.1181118 -0.0131661
vn -0.7236811 -0.6869935 0.0657699
v -0.0551534 -0.1940096 0.0051013
vn -0.7203810 -0.6850708 -0.1083019
v -0.0545204 -0.1939999 -0.0081866
vn -0.6405613 0.0753421 -0.7642021
v -0.0358292 -0.1257772 -0.0418274
vn -0.8018644 0.3445365 -0.4881682
v -0.0511798 0.0205574 0.0004988
vn -0.0773589 0.1471554 -0.9860836
v -0.0034301 -0.1257586 -0.0548761
vn -0.2642846 0.7783447 -0.5695026
v -0.0179118 0.0521237 0.0005041
vn -0.3941751 0.9151037 0.0849192
v -0.0214171 0.0509056 0.0645642
vn -0.1496603 0.9850554 0.0852504
v -0.0077694 0.0545048 0.0645032
vn -0.0358226 0.8206427 -0.5703179
v -0.0024602 0.0552200 0.0004928
vn -0.9319609 0.3551008 0.0731601
v -0.0512272 0.0203715 0.0627504
vn 0.9664789 0.0130797 -0.2564128
v 0.0534040 -0.1187127 -0.0135225
vn 0.0030580 -0.1293085 0.9915997
v 0.0007516 -0.0074171 0.1290747
vn -0.0631015 -0.2826604 0.9571423
v -0.0034843 -0.0167312 0.1270989
vn 0.1104495 -0.3046261 0.9460465
v 0.0062645 -0.0182407 0.1263828
vn 0.0636621 -0.8054481 0.5892373
v 0.0055983 -0.1940000 0.0549029
vn 0.6299046 -0.2406054 0.7384642
v 0.0379164 -0.0147356 0.1136169
vn 0.8821470 -0.0375599 0.4694743
v 0.0462819 -0.0030006 0.1074827
vn 0.5874864 -0.7442153 0.3178102
v 0.0477805 -0.1939998 0.0274755
vn 0.6995928 -0.7008414 0.1392526
v 0.0534314 -0.1940004 0.0136140
vn 0.8042544 -0.1844889 0.5649236
v 0.0446073 -0.0117334 0.1078594
vn -0.1598434 -0.0161397 0.9870104
v -0.0100452 -0.0011075 0.1287187
vn -0.1109070 0.1233510 0.9861462
v -0.0068860 0.0077429 0.1286033
vn -0.2578650 0.1839592 0.9485065
v -0.0150385 0.0113995 0.1265770
vn -0.6077912 -0.2468146 0.7547665
v -0.0366572 -0.0152100 0.1146213
vn 0.8066248 0.5849132 0.0850471
v 0.0445974 0.0322464 0.0639897
vn 0.9836092 0.0281524 0.1781024
v 0.0517857 0.0016301 0.0815724
vn 0.9322163 0.3158996 0.1765794
v 0.0494481 0.0173660 0.0790175
vn 0.3701160 -0.6858480 -0.6265994
v 0.0282936 -0.1939998 -0.0472499
vn 0.6054694 -0.6840423 -0.4068083
v 0.0458178 -0.1940001 -0.0305876
vn 0.4981703 -0.6834403 -0.5336064
v 0.0373247 -0.1940001 -0.0405746
vn -0.9828426 0.0414533 0.1797279
v -0.0517812 0.0022113 0.0817068
vn -0.9926333 0.0949203 0.0752951
v -0.0549160 0.0046323 0.0610593
vn -0.4457980 -0.7717539 0.4534975
v -0.0374301 -0.1940000 0.0406659
vn -0.4717548 0.1051048 -0.8754429
v -0.0276795 -0.1262124 -0.0476675
vn -0.8189365 0.5684518 0.0787769
v -0.0452128 0.0314492 0.0634568
vn -0.7539025 0.6280200 0.1929299
v -0.0395945 0.0333466 0.0831425
vn -0.1706830 0.9666171 0.1910986
v -0.0085507 0.0509026 0.0845959
vn -0.3607042 0.9115096 0.1975921
v -0.0197877 0.0474677 0.0851107
vn -0.2362126 0.8686684 0.4354525
v -0.0130229 0.0448056 0.1070633
vn -0.4927202 0.8485981 0.1926346
v -0.0252180 0.0448655 0.0847447
vn -0.6083194 0.7699510 0.1926733
v -0.0313187 0.0409526 0.0839825
vn 0.0655260 0.9941892 0.0854062
v 0.0033792 0.0550079 0.0644398
vn 0.6878462 -0.6813321 -0.2503084
v 0.0517594 -0.1940002 -0.0190919
vn 0.3167539 -0.2835145 0.9051445
v 0.0190505 -0.0172288 0.1238557
vn -0.2408361 -0.1534095 0.9583650
v -0.0141250 -0.0095805 0.1271675
vn 0.5016882 -0.1428493 0.8531724
v 0.0298218 -0.0086637 0.1209288
vn 0.3993691 -0.0638738 0.9145625
v 0.0240752 -0.0040864 0.1244998
vn 0.0708759 0.0095423 0.9974395
v 0.0039735 0.0005185 0.1294894
vn -0.3503842 -0.0204218 0.9363834
v -0.0208855 -0.0004623 0.1258195
vn -0.1755957 -0.6805831 -0.7113177
v -0.0129757 -0.1939997 -0.0535885
vn 0.0073451 -0.6808916 -0.7323474
v -0.0000427 -0.1940000 -0.0550966
vn 0.6683903 0.7372410 0.0986415
v 0.0364876 0.0411348 0.0655198
vn -0.7745899 0.0554854 -0.6300253
v -0.0430603 -0.1238258 -0.0343229
vn 0.1543631 0.2111684 0.9651839
v 0.0090168 0.0126839 0.1275607
vn 0.0375571 0.1509095 0.9878339
v 0.0026117 0.0085695 0.1288768
vn 0.2019994 -0.1352550 0.9700012
v 0.0118591 -0.0083106 0.1277921
vn 0.2274357 0.3361358 0.9139397
v 0.0137665 0.0204527 0.1243777
vn 0.2859235 0.0780890 0.9550654
v 0.0176171 0.0042505 0.1268071
vn 0.4257305 0.1549420 0.8914856
v 0.0260309 0.0097015 0.1227392
vn 0.8696762 0.1261283 0.4772369
v 0.0459354 0.0067385 0.1076781
vn 0.6544027 -0.0928156 0.7504281
v 0.0392982 -0.0059292 0.1146049
vn 0.6037439 0.0558891 0.7952168
v 0.0363838 0.0032781 0.1172676
vn -0.4241421 0.1470648 0.8935745
v -0.0255566 0.0079500 0.1232645
vn -0.3927152 0.3575214 0.8473212
v -0.0236907 0.0215258 0.1204051
vn -0.5307002 0.2577369 0.8074213
v -0.0323034 0.0158090 0.1176004
vn -0.0682025 0.2863265 0.9557016
v -0.0043483 0.0171063 0.1268831
vn -0.2358656 0.3362414 0.9117615
v -0.0144221 0.0199306 0.1243017
vn 0.9581941 0.1994034 0.2051888
v 0.0486098 0.0101519 0.0933213
vn -0.9016202 0.1270458 0.4134493
v -0.0462521 0.0069922 0.1067523
vn -0.7158926 0.0903249 0.6923433
v -0.0427638 0.0053941 0.1113310
vn -0.3547981 -0.6782883 -0.6434619
v -0.0267486 -0.1940003 -0.0482902
vn 0.2059099 -0.6769719 -0.7066189
v 0.0160190 -0.1940000 -0.0528808
vn -0.9582229 0.2320942 0.1671562
v -0.0514251 0.0132731 0.0747568
vn -0.8810365 0.4338897 0.1884531
v -0.0465312 0.0230480 0.0822049
vn -0.7213958 0.5250255 0.4515933
v -0.0374757 0.0275452 0.1073312
vn -0.7919161 0.3786480 0.4790559
v -0.0425322 0.0182740 0.1076730
vn -0.4374585 0.5398762 0.7191410
v -0.0266734 0.0324841 0.1123520
vn -0.6071237 0.6537035 0.4517440
v -0.0311617 0.0343971 0.1073517
vn 0.0355124 0.9794758 0.1984088
v 0.0019696 0.0512017 0.0866911
vn -0.8401189 0.2887637 0.4591467
v -0.0440648 0.0154429 0.1071296
vn 0.0074837 0.3924754 0.9197320
v 0.0003099 0.0235193 0.1248206
vn 0.5504299 0.2256968 0.8037959
v 0.0331091 0.0137207 0.1176909
vn -0.5050185 0.0342822 0.8624275
v -0.0302799 0.0022556 0.1212840
vn -0.5979468 0.1243377 0.7918332
v -0.0362039 0.0073136 0.1167847
vn -0.5053005 -0.1463489 0.8504431
v -0.0313528 -0.0089617 0.1199990
vn -0.5040382 -0.6827122 -0.5290080
v -0.0381205 -0.1940002 -0.0397839
vn 0.8592287 0.4689978 0.2043705
v 0.0438507 0.0239595 0.0918484
vn 0.7572151 0.6240482 0.1928451
v 0.0399564 0.0325702 0.0840390
vn -0.3467786 0.7933496 0.5003409
v -0.0178770 0.0426078 0.1079749
vn -0.1009853 0.7201909 0.6863869
v -0.0058220 0.0430587 0.1109780
vn -0.1534325 0.6209443 0.7686915
v -0.0095270 0.0376232 0.1153194
vn -0.3012903 0.5412378 0.7850387
v -0.0171561 0.0323609 0.1171112
vn -0.4657594 0.7513854 0.4674272
v -0.0244552 0.0394989 0.1074705
vn -0.6481621 0.2750196 0.7101057
v -0.0387607 0.0166246 0.1122475
vn -0.5341386 0.4316340 0.7269031
v -0.0320790 0.0257153 0.1133084
vn 0.2690867 0.4822843 0.8336632
v 0.0169924 0.0287418 0.1195156
vn 0.0520201 0.5368057 0.8421007
v 0.0031259 0.0325689 0.1199682
vn -0.0397776 0.8928121 0.4486696
v -0.0027639 0.0463190 0.1074094
vn 0.2221033 0.9551265 0.1959683
v 0.0114487 0.0500631 0.0856468
vn 0.8127254 0.3582736 0.4594752
v 0.0424678 0.0187545 0.1076580
vn 0.6999603 0.5417774 0.4653310
v 0.0365812 0.0285008 0.1075116
vn 0.5648368 0.3806893 0.7321442
v 0.0341516 0.0224739 0.1135239
vn -0.6320298 -0.0536943 0.7730817
v -0.0374517 -0.0031333 0.1163575
vn 0.0449523 0.6757247 0.7357821
v 0.0029433 0.0404966 0.1138125
vn -0.1806434 0.4728100 0.8624492
v -0.0117918 0.0286979 0.1209592
vn 0.2035256 0.6531394 0.7293739
v 0.0120300 0.0394531 0.1131504
vn 0.3382452 0.6239139 0.7045010
v 0.0204365 0.0372159 0.1119365
vn 0.1681516 0.8759320 0.4521815
v 0.0087420 0.0456755 0.1073092
vn 0.4647188 0.4126281 0.7834376
v 0.0277535 0.0252894 0.1163089
vn 0.3993117 0.3125250 0.8619038
v 0.0242468 0.0191170 0.1209844
vn 0.6572359 0.2388355 0.7148418
v 0.0393956 0.0156438 0.1119802
vn 0.3989787 0.8942346 0.2028804
v 0.0200004 0.0467444 0.0881052
vn 0.5095833 0.7436812 0.4327393
v 0.0260410 0.0386960 0.1069445
vn 0.3614843 0.8175393 0.4482840
v 0.0196621 0.0420999 0.1072950
vn 0.4244274 0.5239491 0.7384706
v 0.0249062 0.0313688 0.1143757
vn 0.6103899 0.6527630 0.4486922
v 0.0317282 0.0340296 0.1071274
# 152 vertices, 0 vertices normals

f 1//1 2//2 3//3
f 1//1 4//4 2//2
f 5//5 6//6 1//1
f 6//6 7//7 1//1
f 5//5 8//8 6//6
f 9//9 1//1 10//10
f 11//11 12//12 13//13
f 14//14 15//15 16//16
f 17//17 18//18 19//19
f 20//20 18//18 17//17
f 21//21 22//22 23//23
f 24//24 25//25 26//26
f 25//25 24//24 27//27
f 28//28 25//25 29//29
f 28//28 26//26 25//25
f 16//16 30//30 14//14
f 8//8 31//31 6//6
f 29//29 31//31 8//8
f 29//29 25//25 31//31
f 7//7 4//4 1//1
f 5//5 1//1 9//9
f 32//32 33//33 34//34
f 35//35 12//12 36//36
f 37//37 35//35 38//38
f 39//39 35//35 40//40
f 16//16 41//41 30//30
f 42//42 41//41 16//16
f 16//16 43//43 42//42
f 44//44 42//42 43//43
f 44//44 45//45 42//42
f 46//46 40//40 35//35
f 3//3 47//47 1//1
f 48//48 49//49 50//50
f 49//49 51//51 50//50
f 49//49 19//19 51//51
f 52//52 21//21 23//23
f 53//53 54//54 55//55
f 53//53 56//56 54//54
f 52//52 23//23 56//56
f 57//57 58//58 59//59
f 18//18 20//20 60//60
f 28//28 45//45 26//26
f 7//7 6//6 61//61
f 2//2 4//4 62//62
f 4//4 7//7 63//63
f 8//8 5//5 64//64
f 9//9 65//65 66//66
f 10//10 65//65 9//9
f 66//66 5//5 9//9
f 33//33 67//67 37//37
f 67//67 68//68 37//37
f 36//36 11//11 38//38
f 32//32 69//69 60//60
f 36//36 12//12 11//11
f 38//38 35//35 36//36
f 68//68 35//35 37//37
f 70//70 39//39 40//40
f 15//15 71//71 72//72
f 41//41 42//42 45//45
f 41//41 45//45 28//28
f 73//73 43//43 74//74
f 73//73 74//74 75//75
f 76//76 43//43 15//15
f 15//15 77//77 76//76
f 43//43 16//16 15//15
f 78//78 26//26 45//45
f 78//78 24//24 26//26
f 79//79 47//47 3//3
f 1//1 47//47 10//10
f 80//80 51//51 22//22
f 80//80 50//50 51//51
f 81//81 49//49 48//48
f 82//82 83//83 80//80
f 21//21 80//80 22//22
f 56//56 23//23 54//54
f 55//55 3//3 2//2
f 2//2 62//62 55//55
f 84//84 57//57 48//48
f 57//57 81//81 48//48
f 33//33 37//37 34//34
f 85//85 57//57 59//59
f 69//69 18//18 60//60
f 86//86 41//41 87//87
f 53//53 55//55 62//62
f 31//31 61//61 6//6
f 61//61 31//31 88//88
f 31//31 25//25 88//88
f 32//32 34//34 69//69
f 35//35 39//39 89//89
f 14//14 71//71 15//15
f 44//44 78//78 45//45
f 79//79 10//10 47//47
f 90//90 91//91 84//84
f 49//49 17//17 19//19
f 92//92 48//48 50//50
f 49//49 81//81 17//17
f 93//93 94//94 95//95
f 80//80 21//21 82//82
f 96//96 97//97 53//53
f 96//96 98//98 97//97
f 99//99 100//100 101//101
f 81//81 57//57 85//85
f 102//102 103//103 59//59
f 90//90 94//94 93//93
f 85//85 59//59 99//99
f 41//41 28//28 87//87
f 62//62 96//96 53//53
f 62//62 104//104 96//96
f 5//5 66//66 64//64
f 65//65 10//10 79//79
f 105//105 33//33 106//106
f 67//67 33//33 105//105
f 30//30 70//70 14//14
f 70//70 40//40 14//14
f 79//79 107//107 86//86
f 66//66 65//65 79//79
f 79//79 19//19 18//18
f 23//23 22//22 79//79
f 79//79 108//108 64//64
f 79//79 55//55 54//54
f 79//79 22//22 51//51
f 79//79 51//51 19//19
f 79//79 54//54 23//23
f 79//79 86//86 87//87
f 79//79 64//64 66//66
f 87//87 108//108 79//79
f 79//79 3//3 55//55
f 109//109 110//110 46//46
f 71//71 40//40 46//46
f 40//40 71//71 14//14
f 110//110 72//72 71//71
f 111//111 110//110 112//112
f 110//110 71//71 46//46
f 107//107 70//70 30//30
f 76//76 74//74 43//43
f 111//111 113//113 114//114
f 43//43 73//73 44//44
f 115//115 44//44 73//73
f 116//116 109//109 105//105
f 68//68 109//109 46//46
f 68//68 46//46 35//35
f 102//102 91//91 117//117
f 48//48 92//92 84//84
f 94//94 90//90 84//84
f 94//94 83//83 95//95
f 95//95 98//98 118//118
f 80//80 83//83 92//92
f 97//97 52//52 56//56
f 84//84 58//58 57//57
f 84//84 91//91 58//58
f 119//119 99//99 101//101
f 120//120 119//119 101//101
f 58//58 102//102 59//59
f 117//117 90//90 93//93
f 91//91 90//90 117//117
f 117//117 103//103 102//102
f 85//85 121//121 81//81
f 28//28 108//108 87//87
f 108//108 28//28 29//29
f 41//41 86//86 30//30
f 89//89 12//12 35//35
f 39//39 122//122 89//89
f 7//7 123//123 63//63
f 88//88 124//124 61//61
f 4//4 63//63 104//104
f 104//104 62//62 4//4
f 64//64 108//108 8//8
f 108//108 29//29 8//8
f 116//116 105//105 106//106
f 105//105 109//109 67//67
f 38//38 122//122 107//107
f 79//79 38//38 107//107
f 38//38 13//13 122//122
f 38//38 11//11 13//13
f 38//38 34//34 37//37
f 38//38 69//69 34//34
f 18//18 69//69 38//38
f 38//38 79//79 18//18
f 122//122 39//39 107//107
f 110//110 109//109 116//116
f 75//75 74//74 125//125
f 126//126 75//75 125//125
f 127//127 126//126 125//125
f 113//113 128//128 125//125
f 113//113 125//125 129//129
f 111//111 112//112 130//130
f 131//131 111//111 130//130
f 100//100 128//128 113//113
f 113//113 131//131 100//100
f 113//113 111//111 131//131
f 111//111 72//72 110//110
f 44//44 115//115 78//78
f 68//68 67//67 109//109
f 125//125 128//128 127//127
f 132//132 133//133 93//93
f 126//126 134//134 75//75
f 135//135 78//78 115//115
f 135//135 24//24 78//78
f 134//134 115//115 73//73
f 136//136 137//137 138//138
f 95//95 83//83 98//98
f 92//92 50//50 80//80
f 21//21 52//52 97//97
f 97//97 82//82 21//21
f 101//101 131//131 130//130
f 103//103 100//100 59//59
f 106//106 33//33 139//139
f 120//120 101//101 130//130
f 58//58 91//91 102//102
f 126//126 127//127 140//140
f 140//140 127//127 133//133
f 141//141 117//117 133//133
f 117//117 141//141 103//103
f 121//121 60//60 20//20
f 89//89 122//122 13//13
f 89//89 13//13 12//12
f 27//27 88//88 25//25
f 121//121 139//139 60//60
f 39//39 70//70 107//107
f 77//77 129//129 76//76
f 74//74 76//76 129//129
f 74//74 129//129 125//125
f 114//114 129//129 77//77
f 77//77 15//15 72//72
f 127//127 128//128 141//141
f 94//94 92//92 83//83
f 94//94 84//84 92//92
f 142//142 132//132 143//143
f 142//142 133//133 132//132
f 144//144 140//140 142//142
f 135//135 115//115 144//144
f 145//145 146//146 118//118
f 118//118 138//138 145//145
f 95//95 118//118 146//146
f 93//93 95//95 146//146
f 136//136 138//138 147//147
f 53//53 97//97 56//56
f 97//97 98//98 82//82
f 82//82 98//98 83//83
f 112//112 110//110 116//116
f 106//106 139//139 120//120
f 99//99 59//59 100//100
f 100//100 141//141 128//128
f 141//141 133//133 127//127
f 20//20 81//81 121//121
f 20//20 17//17 81//81
f 148//148 149//149 27//27
f 124//124 123//123 61//61
f 7//7 61//61 123//123
f 60//60 139//139 32//32
f 139//139 33//33 32//32
f 107//107 30//30 86//86
f 129//129 114//114 113//113
f 72//72 114//114 77//77
f 72//72 111//111 114//114
f 140//140 134//134 126//126
f 134//134 73//73 75//75
f 150//150 144//144 142//142
f 150//150 142//142 143//143
f 150//150 149//149 148//148
f 136//136 123//123 137//137
f 151//151 143//143 132//132
f 124//124 137//137 123//123
f 151//151 138//138 137//137
f 106//106 112//112 116//116
f 141//141 100//100 103//103
f 120//120 139//139 119//119
f 121//121 119//119 139//139
f 119//119 121//121 85//85
f 99//99 119//119 85//85
f 117//117 93//93 133//133
f 63//63 136//136 104//104
f 123//123 136//136 63//63
f 134//134 140//140 144//144
f 115//115 134//134 144//144
f 136//136 96//96 104//104
f 145//145 138//138 151//151
f 132//132 93//93 146//146
f 152//152 137//137 124//124
f 96//96 136//136 147//147
f 147//147 138//138 118//118
f 106//106 130//130 112//112
f 130//130 106//106 120//120
f 101//101 100//100 131//131
f 142//142 140//140 133//133
f 88//88 149//149 152//152
f 88//88 27//27 149//149
f 24//24 148//148 27//27
f 152//152 151//151 137//137
f 150//150 143//143 149//149
f 148//148 24//24 135//135
f 144//144 150//150 148//148
f 132//132 145//145 151//151
f 132//132 146//146 145//145
f 152//152 124//124 88//88
f 98//98 96//96 147//147
f 98//98 147//147 118//118
f 143//143 151//151 149//149
f 151//151 152//152 149//149
f 148//148 135//135 144//144
# 300 faces, 0 coords texture

# End of File
