solid structure
   facet normal -0.000000e+00 1.000000e+00 6.982963e-15
      outer loop
         vertex -1.200000e+03 1.000000e+02 1.500000e+02
         vertex -1.450000e+03 1.000000e+02 1.500000e+02
         vertex -1.200000e+03 1.000000e+02 2.400000e+03
      endloop
   endfacet
   facet normal 0.000000e+00 1.000000e+00 6.982963e-15
      outer loop
         vertex -1.200000e+03 1.000000e+02 2.400000e+03
         vertex -1.450000e+03 1.000000e+02 1.500000e+02
         vertex -1.450000e+03 1.000000e+02 2.600000e+03
      endloop
   endfacet
   facet normal 0.000000e+00 1.000000e+00 6.982963e-15
      outer loop
         vertex -1.200000e+03 1.000000e+02 2.400000e+03
         vertex -1.450000e+03 1.000000e+02 2.600000e+03
         vertex 1.200000e+03 1.000000e+02 2.400000e+03
      endloop
   endfacet
   facet normal 0.000000e+00 1.000000e+00 6.982963e-15
      outer loop
         vertex 1.200000e+03 1.000000e+02 2.400000e+03
         vertex -1.450000e+03 1.000000e+02 2.600000e+03
         vertex 1.450000e+03 1.000000e+02 2.600000e+03
      endloop
   endfacet
   facet normal 0.000000e+00 1.000000e+00 6.982963e-15
      outer loop
         vertex 1.200000e+03 1.000000e+02 2.400000e+03
         vertex 1.450000e+03 1.000000e+02 2.600000e+03
         vertex 1.200000e+03 1.000000e+02 1.500000e+02
      endloop
   endfacet
   facet normal 0.000000e+00 1.000000e+00 6.982963e-15
      outer loop
         vertex 1.200000e+03 1.000000e+02 1.500000e+02
         vertex 1.450000e+03 1.000000e+02 2.600000e+03
         vertex 1.450000e+03 1.000000e+02 1.500000e+02
      endloop
   endfacet
   facet normal 0.000000e+00 -1.000000e+00 -6.982963e-15
      outer loop
         vertex 1.200000e+03 -1.000000e+02 1.500000e+02
         vertex 1.450000e+03 -1.000000e+02 1.500000e+02
         vertex 1.200000e+03 -1.000000e+02 2.400000e+03
      endloop
   endfacet
   facet normal 0.000000e+00 -1.000000e+00 -6.982963e-15
      outer loop
         vertex 1.200000e+03 -1.000000e+02 2.400000e+03
         vertex 1.450000e+03 -1.000000e+02 1.500000e+02
         vertex 1.450000e+03 -1.000000e+02 2.600000e+03
      endloop
   endfacet
   facet normal 0.000000e+00 -1.000000e+00 -6.982963e-15
      outer loop
         vertex 1.200000e+03 -1.000000e+02 2.400000e+03
         vertex 1.450000e+03 -1.000000e+02 2.600000e+03
         vertex -1.200000e+03 -1.000000e+02 2.400000e+03
      endloop
   endfacet
   facet normal 0.000000e+00 -1.000000e+00 -6.982963e-15
      outer loop
         vertex -1.200000e+03 -1.000000e+02 2.400000e+03
         vertex 1.450000e+03 -1.000000e+02 2.600000e+03
         vertex -1.450000e+03 -1.000000e+02 2.600000e+03
      endloop
   endfacet
   facet normal 0.000000e+00 -1.000000e+00 -6.982963e-15
      outer loop
         vertex -1.200000e+03 -1.000000e+02 2.400000e+03
         vertex -1.450000e+03 -1.000000e+02 2.600000e+03
         vertex -1.200000e+03 -1.000000e+02 1.500000e+02
      endloop
   endfacet
   facet normal 0.000000e+00 -1.000000e+00 -6.982963e-15
      outer loop
         vertex -1.200000e+03 -1.000000e+02 1.500000e+02
         vertex -1.450000e+03 -1.000000e+02 2.600000e+03
         vertex -1.450000e+03 -1.000000e+02 1.500000e+02
      endloop
   endfacet
   facet normal 1.000000e+00 0.000000e+00 0.000000e+00
      outer loop
         vertex -1.200000e+03 -1.000000e+02 1.500000e+02
         vertex -1.200000e+03 -1.600000e+03 1.500000e+02
         vertex -1.200000e+03 -1.600000e+03 -1.117274e-11
      endloop
   endfacet
   facet normal 1.000000e+00 0.000000e+00 0.000000e+00
      outer loop
         vertex -1.200000e+03 1.600000e+03 1.117274e-11
         vertex -1.200000e+03 1.600000e+03 1.500000e+02
         vertex -1.200000e+03 1.000000e+02 1.500000e+02
      endloop
   endfacet
   facet normal 1.000000e+00 0.000000e+00 0.000000e+00
      outer loop
         vertex -1.200000e+03 1.000000e+02 2.400000e+03
         vertex -1.200000e+03 -1.000000e+02 2.400000e+03
         vertex -1.200000e+03 1.000000e+02 1.500000e+02
      endloop
   endfacet
   facet normal 1.000000e+00 0.000000e+00 0.000000e+00
      outer loop
         vertex -1.200000e+03 1.000000e+02 1.500000e+02
         vertex -1.200000e+03 -1.000000e+02 2.400000e+03
         vertex -1.200000e+03 -1.000000e+02 1.500000e+02
      endloop
   endfacet
   facet normal 1.000000e+00 0.000000e+00 0.000000e+00
      outer loop
         vertex -1.200000e+03 1.000000e+02 1.500000e+02
         vertex -1.200000e+03 -1.000000e+02 1.500000e+02
         vertex -1.200000e+03 1.600000e+03 1.117274e-11
      endloop
   endfacet
   facet normal 1.000000e+00 0.000000e+00 0.000000e+00
      outer loop
         vertex -1.200000e+03 1.600000e+03 1.117274e-11
         vertex -1.200000e+03 -1.000000e+02 1.500000e+02
         vertex -1.200000e+03 -1.600000e+03 -1.117274e-11
      endloop
   endfacet
   facet normal 1.224647e-16 6.982963e-15 -1.000000e+00
      outer loop
         vertex -1.450000e+03 -1.600000e+03 -1.134658e-11
         vertex -1.450000e+03 1.600000e+03 1.099890e-11
         vertex -1.200000e+03 -1.600000e+03 -1.131597e-11
      endloop
   endfacet
   facet normal 1.224647e-16 6.982963e-15 -1.000000e+00
      outer loop
         vertex -1.200000e+03 -1.600000e+03 -1.131597e-11
         vertex -1.450000e+03 1.600000e+03 1.099890e-11
         vertex -1.200000e+03 1.600000e+03 1.102951e-11
      endloop
   endfacet
   facet normal -1.000000e+00 0.000000e+00 -0.000000e+00
      outer loop
         vertex -1.450000e+03 1.600000e+03 1.106329e-11
         vertex -1.450000e+03 -1.600000e+03 -1.137720e-11
         vertex -1.450000e+03 -1.000000e+02 1.500000e+02
      endloop
   endfacet
   facet normal -1.000000e+00 0.000000e+00 -0.000000e+00
      outer loop
         vertex -1.450000e+03 -1.000000e+02 1.500000e+02
         vertex -1.450000e+03 -1.600000e+03 -1.137720e-11
         vertex -1.450000e+03 -1.600000e+03 1.500000e+02
      endloop
   endfacet
   facet normal -1.000000e+00 0.000000e+00 -0.000000e+00
      outer loop
         vertex -1.450000e+03 1.600000e+03 1.500000e+02
         vertex -1.450000e+03 1.600000e+03 1.106329e-11
         vertex -1.450000e+03 1.000000e+02 1.500000e+02
      endloop
   endfacet
   facet normal -1.000000e+00 0.000000e+00 -0.000000e+00
      outer loop
         vertex -1.450000e+03 1.000000e+02 1.500000e+02
         vertex -1.450000e+03 1.600000e+03 1.106329e-11
         vertex -1.450000e+03 -1.000000e+02 1.500000e+02
      endloop
   endfacet
   facet normal -1.000000e+00 0.000000e+00 -0.000000e+00
      outer loop
         vertex -1.450000e+03 1.000000e+02 1.500000e+02
         vertex -1.450000e+03 -1.000000e+02 1.500000e+02
         vertex -1.450000e+03 1.000000e+02 2.600000e+03
      endloop
   endfacet
   facet normal -1.000000e+00 0.000000e+00 -0.000000e+00
      outer loop
         vertex -1.450000e+03 1.000000e+02 2.600000e+03
         vertex -1.450000e+03 -1.000000e+02 1.500000e+02
         vertex -1.450000e+03 -1.000000e+02 2.600000e+03
      endloop
   endfacet
   facet normal -0.000000e+00 -6.982963e-15 1.000000e+00
      outer loop
         vertex 1.450000e+03 -1.000000e+02 2.600000e+03
         vertex 1.450000e+03 1.000000e+02 2.600000e+03
         vertex -1.450000e+03 -1.000000e+02 2.600000e+03
      endloop
   endfacet
   facet normal 0.000000e+00 -6.982963e-15 1.000000e+00
      outer loop
         vertex -1.450000e+03 -1.000000e+02 2.600000e+03
         vertex 1.450000e+03 1.000000e+02 2.600000e+03
         vertex -1.450000e+03 1.000000e+02 2.600000e+03
      endloop
   endfacet
   facet normal 1.000000e+00 0.000000e+00 0.000000e+00
      outer loop
         vertex 1.450000e+03 -1.000000e+02 1.500000e+02
         vertex 1.450000e+03 -1.600000e+03 1.500000e+02
         vertex 1.450000e+03 -1.600000e+03 -1.117274e-11
      endloop
   endfacet
   facet normal 1.000000e+00 0.000000e+00 0.000000e+00
      outer loop
         vertex 1.450000e+03 1.600000e+03 1.117274e-11
         vertex 1.450000e+03 1.600000e+03 1.500000e+02
         vertex 1.450000e+03 1.000000e+02 1.500000e+02
      endloop
   endfacet
   facet normal 1.000000e+00 0.000000e+00 0.000000e+00
      outer loop
         vertex 1.450000e+03 1.000000e+02 2.600000e+03
         vertex 1.450000e+03 -1.000000e+02 2.600000e+03
         vertex 1.450000e+03 1.000000e+02 1.500000e+02
      endloop
   endfacet
   facet normal 1.000000e+00 0.000000e+00 0.000000e+00
      outer loop
         vertex 1.450000e+03 1.000000e+02 1.500000e+02
         vertex 1.450000e+03 -1.000000e+02 2.600000e+03
         vertex 1.450000e+03 -1.000000e+02 1.500000e+02
      endloop
   endfacet
   facet normal 1.000000e+00 0.000000e+00 0.000000e+00
      outer loop
         vertex 1.450000e+03 1.000000e+02 1.500000e+02
         vertex 1.450000e+03 -1.000000e+02 1.500000e+02
         vertex 1.450000e+03 1.600000e+03 1.117274e-11
      endloop
   endfacet
   facet normal 1.000000e+00 0.000000e+00 0.000000e+00
      outer loop
         vertex 1.450000e+03 1.600000e+03 1.117274e-11
         vertex 1.450000e+03 -1.000000e+02 1.500000e+02
         vertex 1.450000e+03 -1.600000e+03 -1.117274e-11
      endloop
   endfacet
   facet normal 1.224647e-16 6.982963e-15 -1.000000e+00
      outer loop
         vertex 1.200000e+03 -1.600000e+03 -1.099534e-11
         vertex 1.200000e+03 1.600000e+03 1.135014e-11
         vertex 1.450000e+03 -1.600000e+03 -1.096472e-11
      endloop
   endfacet
   facet normal 1.224647e-16 6.982963e-15 -1.000000e+00
      outer loop
         vertex 1.450000e+03 -1.600000e+03 -1.096472e-11
         vertex 1.200000e+03 1.600000e+03 1.135014e-11
         vertex 1.450000e+03 1.600000e+03 1.138076e-11
      endloop
   endfacet
   facet normal -1.000000e+00 0.000000e+00 -0.000000e+00
      outer loop
         vertex 1.200000e+03 1.600000e+03 1.149770e-11
         vertex 1.200000e+03 -1.600000e+03 -1.099534e-11
         vertex 1.200000e+03 -1.000000e+02 1.500000e+02
      endloop
   endfacet
   facet normal -1.000000e+00 0.000000e+00 -0.000000e+00
      outer loop
         vertex 1.200000e+03 -1.000000e+02 1.500000e+02
         vertex 1.200000e+03 -1.600000e+03 -1.099534e-11
         vertex 1.200000e+03 -1.600000e+03 1.500000e+02
      endloop
   endfacet
   facet normal -1.000000e+00 0.000000e+00 -0.000000e+00
      outer loop
         vertex 1.200000e+03 1.600000e+03 1.500000e+02
         vertex 1.200000e+03 1.600000e+03 1.149770e-11
         vertex 1.200000e+03 1.000000e+02 1.500000e+02
      endloop
   endfacet
   facet normal -1.000000e+00 0.000000e+00 -0.000000e+00
      outer loop
         vertex 1.200000e+03 1.000000e+02 1.500000e+02
         vertex 1.200000e+03 1.600000e+03 1.149770e-11
         vertex 1.200000e+03 -1.000000e+02 1.500000e+02
      endloop
   endfacet
   facet normal -1.000000e+00 0.000000e+00 -0.000000e+00
      outer loop
         vertex 1.200000e+03 1.000000e+02 1.500000e+02
         vertex 1.200000e+03 -1.000000e+02 1.500000e+02
         vertex 1.200000e+03 1.000000e+02 2.400000e+03
      endloop
   endfacet
   facet normal -1.000000e+00 0.000000e+00 -0.000000e+00
      outer loop
         vertex 1.200000e+03 1.000000e+02 2.400000e+03
         vertex 1.200000e+03 -1.000000e+02 1.500000e+02
         vertex 1.200000e+03 -1.000000e+02 2.400000e+03
      endloop
   endfacet
   facet normal 0.000000e+00 6.982963e-15 -1.000000e+00
      outer loop
         vertex -1.200000e+03 -1.000000e+02 2.400000e+03
         vertex -1.200000e+03 1.000000e+02 2.400000e+03
         vertex 1.200000e+03 -1.000000e+02 2.400000e+03
      endloop
   endfacet
   facet normal 0.000000e+00 6.982963e-15 -1.000000e+00
      outer loop
         vertex 1.200000e+03 -1.000000e+02 2.400000e+03
         vertex -1.200000e+03 1.000000e+02 2.400000e+03
         vertex 1.200000e+03 1.000000e+02 2.400000e+03
      endloop
   endfacet
   facet normal 0.000000e+00 -6.982963e-15 1.000000e+00
      outer loop
         vertex -1.450000e+03 -1.600000e+03 1.500000e+02
         vertex -1.200000e+03 -1.600000e+03 1.500000e+02
         vertex -1.450000e+03 -1.000000e+02 1.500000e+02
      endloop
   endfacet
   facet normal 0.000000e+00 -6.982963e-15 1.000000e+00
      outer loop
         vertex -1.450000e+03 -1.000000e+02 1.500000e+02
         vertex -1.200000e+03 -1.600000e+03 1.500000e+02
         vertex -1.200000e+03 -1.000000e+02 1.500000e+02
      endloop
   endfacet
   facet normal 0.000000e+00 -1.000000e+00 -6.982963e-15
      outer loop
         vertex -1.450000e+03 -1.600000e+03 1.500000e+02
         vertex -1.450000e+03 -1.600000e+03 -1.137720e-11
         vertex -1.200000e+03 -1.600000e+03 1.500000e+02
      endloop
   endfacet
   facet normal 0.000000e+00 -1.000000e+00 -6.982963e-15
      outer loop
         vertex -1.200000e+03 -1.600000e+03 1.500000e+02
         vertex -1.450000e+03 -1.600000e+03 -1.137720e-11
         vertex -1.200000e+03 -1.600000e+03 -1.133333e-11
      endloop
   endfacet
   facet normal 0.000000e+00 -6.982963e-15 1.000000e+00
      outer loop
         vertex 1.200000e+03 -1.600000e+03 1.500000e+02
         vertex 1.450000e+03 -1.600000e+03 1.500000e+02
         vertex 1.200000e+03 -1.000000e+02 1.500000e+02
      endloop
   endfacet
   facet normal 0.000000e+00 -6.982963e-15 1.000000e+00
      outer loop
         vertex 1.200000e+03 -1.000000e+02 1.500000e+02
         vertex 1.450000e+03 -1.600000e+03 1.500000e+02
         vertex 1.450000e+03 -1.000000e+02 1.500000e+02
      endloop
   endfacet
   facet normal 0.000000e+00 -1.000000e+00 -6.982963e-15
      outer loop
         vertex 1.450000e+03 -1.600000e+03 -1.099534e-11
         vertex 1.450000e+03 -1.600000e+03 1.500000e+02
         vertex 1.200000e+03 -1.600000e+03 -1.099534e-11
      endloop
   endfacet
   facet normal 0.000000e+00 -1.000000e+00 -6.982963e-15
      outer loop
         vertex 1.200000e+03 -1.600000e+03 -1.099534e-11
         vertex 1.450000e+03 -1.600000e+03 1.500000e+02
         vertex 1.200000e+03 -1.600000e+03 1.500000e+02
      endloop
   endfacet
   facet normal 0.000000e+00 -6.982963e-15 1.000000e+00
      outer loop
         vertex 1.450000e+03 1.600000e+03 1.500000e+02
         vertex 1.200000e+03 1.600000e+03 1.500000e+02
         vertex 1.450000e+03 1.000000e+02 1.500000e+02
      endloop
   endfacet
   facet normal 0.000000e+00 -6.982963e-15 1.000000e+00
      outer loop
         vertex 1.450000e+03 1.000000e+02 1.500000e+02
         vertex 1.200000e+03 1.600000e+03 1.500000e+02
         vertex 1.200000e+03 1.000000e+02 1.500000e+02
      endloop
   endfacet
   facet normal 0.000000e+00 1.000000e+00 6.982963e-15
      outer loop
         vertex 1.200000e+03 1.600000e+03 1.149770e-11
         vertex 1.200000e+03 1.600000e+03 1.500000e+02
         vertex 1.450000e+03 1.600000e+03 1.135113e-11
      endloop
   endfacet
   facet normal 0.000000e+00 1.000000e+00 6.982963e-15
      outer loop
         vertex 1.450000e+03 1.600000e+03 1.135113e-11
         vertex 1.200000e+03 1.600000e+03 1.500000e+02
         vertex 1.450000e+03 1.600000e+03 1.500000e+02
      endloop
   endfacet
   facet normal 0.000000e+00 -6.982963e-15 1.000000e+00
      outer loop
         vertex -1.200000e+03 1.600000e+03 1.500000e+02
         vertex -1.450000e+03 1.600000e+03 1.500000e+02
         vertex -1.200000e+03 1.000000e+02 1.500000e+02
      endloop
   endfacet
   facet normal 0.000000e+00 -6.982963e-15 1.000000e+00
      outer loop
         vertex -1.200000e+03 1.000000e+02 1.500000e+02
         vertex -1.450000e+03 1.600000e+03 1.500000e+02
         vertex -1.450000e+03 1.000000e+02 1.500000e+02
      endloop
   endfacet
   facet normal 0.000000e+00 1.000000e+00 6.982963e-15
      outer loop
         vertex -1.450000e+03 1.600000e+03 1.106329e-11
         vertex -1.450000e+03 1.600000e+03 1.500000e+02
         vertex -1.200000e+03 1.600000e+03 1.099701e-11
      endloop
   endfacet
   facet normal 0.000000e+00 1.000000e+00 6.982963e-15
      outer loop
         vertex -1.200000e+03 1.600000e+03 1.099701e-11
         vertex -1.450000e+03 1.600000e+03 1.500000e+02
         vertex -1.200000e+03 1.600000e+03 1.500000e+02
      endloop
   endfacet
endsolid