# Aspose.3D Wavefront OBJ Exporter
# Copyright 2004-2024 Aspose Pty Ltd.
# File created: 05/14/2024 13:21:33

g obj_34731582

#
# object obj_34731582
#

v -0.024373198 -0.015000001 0.005563024
v -0.029389264 -0.015000001 0.040450852
v -0.025 -0.015000001 3.0616171E-18
v -0.03535534 -0.015000001 0.03535534
v -0.024373198 -0.015000001 -0.005563024
v -0.040450852 -0.015000001 0.029389264
v -0.05 -0.015000001 0
v -0.04455033 -0.015000001 0.022699527
v -0.047552828 -0.015000001 0.01545085
v -0.022699527 -0.015000001 0.04455033
v -0.022524223 -0.015000001 0.0108470945
v -0.019545788 -0.015000001 0.015587246
v -0.01545085 -0.015000001 0.047552828
v -0.015587246 -0.015000001 0.019545788
v -0.0108470945 -0.015000001 0.022524223
v -0.007821724 -0.015000001 0.049384423
v -0.005563024 -0.015000001 0.024373198
v -3.0616171E-18 -0.015000001 0.05
v 1.5308086E-18 -0.015000001 0.025
v 0.005563024 -0.015000001 0.024373198
v 0.007821724 -0.015000001 0.049384423
v 0.0108470945 -0.015000001 0.022524223
v 0.01545085 -0.015000001 0.047552828
v 0.015587246 -0.015000001 0.019545788
v 0.019545788 -0.015000001 0.015587246
v 0.022699527 -0.015000001 0.04455033
v 0.022524223 -0.015000001 0.0108470945
v 0.024373198 -0.015000001 0.005563024
v 0.029389264 -0.015000001 0.040450852
v 0.025 -0.015000001 0
v 0.03535534 -0.015000001 0.03535534
v 0.024373198 -0.015000001 -0.005563024
v 0.040450852 -0.015000001 0.029389264
v 0.05 -0.015000001 6.1232343E-18
v 0.04455033 -0.015000001 0.022699527
v 0.047552828 -0.015000001 0.01545085
v 0.049384423 -0.015000001 0.007821724
v 0.05 -0.015000001 -1
v 0.022524223 -0.015000001 -0.0108470945
v 0.019545788 -0.015000001 -0.015587246
v 0.015587246 -0.015000001 -0.019545788
v 0.0108470945 -0.015000001 -0.022524223
v 0.005563024 -0.015000001 -0.024373198
v 1.5308086E-18 -0.015000001 -0.025
v -0.05 -0.015000001 -1
v -0.005563024 -0.015000001 -0.024373198
v -0.0108470945 -0.015000001 -0.022524223
v -0.015587246 -0.015000001 -0.019545788
v -0.019545788 -0.015000001 -0.015587246
v -0.022524223 -0.015000001 -0.0108470945
v -0.049384423 -0.015000001 0.007821724
v -0.024373198 0.015000001 -0.005563024
v -0.025 0.015000001 3.0616171E-18
v -0.024373198 0.015000001 0.005563024
v -0.022524223 0.015000001 0.0108470945
v -0.019545788 0.015000001 0.015587246
v -0.015587246 0.015000001 0.019545788
v -0.0108470945 0.015000001 0.022524223
v -0.005563024 0.015000001 0.024373198
v 1.5308086E-18 0.015000001 0.025
v 0.005563024 0.015000001 0.024373198
v 0.0108470945 0.015000001 0.022524223
v 0.015587246 0.015000001 0.019545788
v 0.019545788 0.015000001 0.015587246
v 0.022524223 0.015000001 0.0108470945
v 0.024373198 0.015000001 0.005563024
v 0.025 0.015000001 0
v 0.024373198 0.015000001 -0.005563024
v 0.022524223 0.015000001 -0.0108470945
v 0.019545788 0.015000001 -0.015587246
v 0.015587246 0.015000001 -0.019545788
v 0.0108470945 0.015000001 -0.022524223
v 0.005563024 0.015000001 -0.024373198
v 1.5308086E-18 0.015000001 -0.025
v -0.005563024 0.015000001 -0.024373198
v -0.0108470945 0.015000001 -0.022524223
v -0.015587246 0.015000001 -0.019545788
v -0.019545788 0.015000001 -0.015587246
v -0.022524223 0.015000001 -0.0108470945
v -0.05 0.015000001 0
v -0.05 0.015000001 -1
v 0.05 0.015000001 -1
v 0.05 0.015000001 6.1232343E-18
v 0.049384423 0.015000001 0.007821724
v 0.047552828 0.015000001 0.01545085
v 0.04455033 0.015000001 0.022699527
v 0.040450852 0.015000001 0.029389264
v 0.03535534 0.015000001 0.03535534
v 0.029389264 0.015000001 0.040450852
v 0.022699527 0.015000001 0.04455033
v 0.01545085 0.015000001 0.047552828
v 0.007821724 0.015000001 0.049384423
v -3.0616171E-18 0.015000001 0.05
v -0.007821724 0.015000001 0.049384423
v -0.01545085 0.015000001 0.047552828
v -0.022699527 0.015000001 0.04455033
v -0.029389264 0.015000001 0.040450852
v -0.03535534 0.015000001 0.03535534
v -0.040450852 0.015000001 0.029389264
v -0.04455033 0.015000001 0.022699527
v -0.047552828 0.015000001 0.01545085
v -0.049384423 0.015000001 0.007821724
# 102 vertices

vn 0 -0.99999994 -2.9236892E-07
vn 0 -1 5.5183918E-08
vn 0 -1 0
vn 0 -1 5.3105268E-08
vn 0 -1 -3.6096647E-08
vn 0 -1 2.5710432E-07
vn 0 -0.99999994 0
vn 0 -0.99999994 -6.5948946E-08
vn 0 -1 -1.0994912E-07
vn 0 -1 -1.0673459E-07
vn 0 -1 -7.385961E-08
vn 0 -1 -3.6929805E-08
vn 0 -0.99999994 -2.5582295E-07
vn 0 -1 -5.131704E-08
vn 0 -1 1.06210514E-07
vn 0 -1 1.1057068E-08
vn 0 -1 -1.1825581E-08
vn 0 -1 -1.8381384E-08
vn 0 -1 8.335318E-09
vn 0 -1 2.13399E-08
vn 0 -1 1.3337438E-08
vn 0 -1 -2.4508516E-08
vn 0 -1 1.4488909E-08
vn 0.9937122 0 0.11196451
vn 0.9937122 0 -0.11196451
vn 0.9438834 0 -0.3302789
vn 0.94388336 0 -0.33027893
vn 0.8467241 0 -0.53203213
vn 0.8467244 0 -0.5320319
vn 0.7071066 0 -0.70710695
vn 0.70710695 0 -0.7071066
vn 0.53203166 0 -0.8467244
vn 0.5320322 0 -0.84672415
vn 0.3302787 0 -0.9438834
vn 0.33027935 0 -0.94388324
vn 0.111964665 0 -0.9937122
vn -0.111964665 0 -0.9937122
vn -0.33027935 0 -0.94388324
vn -0.3302787 0 -0.9438834
vn -0.5320322 0 -0.84672415
vn -0.53203166 0 -0.8467244
vn -0.70710695 0 -0.7071066
vn -0.7071066 0 -0.70710695
vn -0.8467244 0 -0.5320319
vn -0.8467241 0 -0.53203213
vn -0.94388336 0 -0.33027893
vn -0.9438834 0 -0.3302789
vn -0.9937122 0 -0.11196451
vn -0.9937122 0 0.11196451
vn -0.9438834 0 0.3302789
vn -0.94388336 0 0.33027893
vn -0.8467241 0 0.53203213
vn -0.8467244 0 0.5320319
vn -0.7071066 0 0.70710695
vn -0.70710695 0 0.7071066
vn -0.53203166 0 0.8467244
vn -0.5320322 0 0.84672415
vn -0.3302787 0 0.9438834
vn -0.33027935 0 0.94388324
vn -0.111964665 0 0.9937122
vn 0.111964665 0 0.9937122
vn 0.33027935 0 0.94388324
vn 0.3302787 0 0.9438834
vn 0.5320322 0 0.84672415
vn 0.53203166 0 0.8467244
vn 0.70710695 0 0.7071066
vn 0.7071066 0 0.70710695
vn 0.8467244 0 0.5320319
vn 0.8467241 0 0.53203213
vn 0.94388336 0 0.33027893
vn 0.9438834 0 0.3302789
vn -1 0 0
vn 0 0 -1
vn 1 0 0
vn 0.9969174 0 0.07845848
vn 0.9723698 0 0.2334458
vn 0.92387956 0 0.38268316
vn 0.85264 0 0.52249897
vn 0.8526402 0 0.5224984
vn 0.7604061 0 0.6494479
vn 0.7604056 0 0.6494484
vn 0.64944834 0 0.7604058
vn 0.52249897 0 0.85264
vn 0.5224982 0 0.85264033
vn 0.38268238 0 0.92388
vn 0.38268405 0 0.92387927
vn 0.23344655 0 0.9723697
vn 0.23344468 0 0.97237015
vn 0.07845882 0 0.9969173
vn -0.07845882 0 0.9969173
vn -0.23344468 0 0.97237015
vn -0.23344655 0 0.9723697
vn -0.38268405 0 0.92387927
vn -0.38268238 0 0.92388
vn -0.5224982 0 0.85264033
vn -0.52249897 0 0.85264
vn -0.64944834 0 0.7604058
vn -0.7604056 0 0.6494484
vn -0.7604061 0 0.6494479
vn -0.8526402 0 0.5224984
vn -0.85264 0 0.52249897
vn -0.92387956 0 0.38268316
vn -0.9723698 0 0.2334458
vn -0.9969174 0 0.07845848
vn 0 1 0
vn 0 1 5.5183918E-08
vn 0 0.99999994 -2.9236892E-07
vn 0 1 7.19052E-09
vn 0 1 -4.1218083E-08
vn 0 1 -1.0994912E-07
vn 0 1 -5.3367295E-08
vn 0 1 -9.906321E-16
vn 0 1 -7.559002E-08
vn 0 1 -4.4929274E-09
vn 0 1 5.3105268E-08
vn 0 1 -3.6096647E-08
vn 0 1 2.5710432E-07
vn 0 1 -1.892091E-08
vn 0 1 1.4488909E-08
vn 0 1 -1.8381384E-08
vn 0 1 1.3337438E-08
vn 0 1 8.335318E-09
vn 0 1 -2.4508516E-08
vn 0 1 -1.1825581E-08
vn 0 1 1.06210514E-07
# 125 vertex normals

s 1
f 1//1 2//1 3//1
f 3//2 2//2 4//2
f 3//3 4//3 5//3
f 5//4 4//4 6//4
f 5//5 6//5 7//5
f 7//6 6//6 8//6
f 7//3 8//3 9//3
f 2//3 1//3 10//3
f 10//3 1//3 11//3
f 10//3 11//3 12//3
f 10//7 12//7 13//7
f 13//8 12//8 14//8
f 13//9 14//9 15//9
f 13//3 15//3 16//3
f 16//10 15//10 17//10
f 16//11 17//11 18//11
f 18//3 17//3 19//3
f 18//3 19//3 20//3
f 18//12 20//12 21//12
f 21//10 20//10 22//10
f 21//3 22//3 23//3
f 23//9 22//9 24//9
f 23//8 24//8 25//8
f 23//7 25//7 26//7
f 26//3 25//3 27//3
f 26//3 27//3 28//3
f 26//3 28//3 29//3
f 29//13 28//13 30//13
f 29//3 30//3 31//3
f 31//14 30//14 32//14
f 31//15 32//15 33//15
f 33//3 32//3 34//3
f 33//6 34//6 35//6
f 35//3 34//3 36//3
f 36//3 34//3 37//3
f 34//3 32//3 38//3
f 38//16 32//16 39//16
f 38//17 39//17 40//17
f 40//3 41//3 38//3
f 38//18 41//18 42//18
f 38//19 42//19 43//19
f 43//20 44//20 38//20
f 38//3 44//3 45//3
f 45//21 44//21 46//21
f 45//19 46//19 47//19
f 47//22 48//22 45//22
f 45//23 48//23 49//23
f 45//17 49//17 50//17
f 50//3 5//3 45//3
f 45//3 5//3 7//3
f 9//3 51//3 7//3
f 5//24 52//24 3//24
f 3//24 52//24 53//24
f 3//25 53//25 1//25
f 1//25 53//25 54//25
f 1//26 54//26 11//26
f 11//27 54//27 55//27
f 11//28 55//28 12//28
f 12//29 55//29 56//29
f 12//30 56//30 14//30
f 14//31 56//31 57//31
f 14//32 57//32 15//32
f 15//33 57//33 58//33
f 15//34 58//34 17//34
f 17//35 58//35 59//35
f 17//36 59//36 19//36
f 19//36 59//36 60//36
f 19//37 60//37 20//37
f 20//37 60//37 61//37
f 20//38 61//38 22//38
f 22//39 61//39 62//39
f 22//40 62//40 24//40
f 24//41 62//41 63//41
f 24//42 63//42 25//42
f 25//43 63//43 64//43
f 25//44 64//44 27//44
f 27//45 64//45 65//45
f 27//46 65//46 28//46
f 28//47 65//47 66//47
f 28//48 66//48 30//48
f 30//48 66//48 67//48
f 30//49 67//49 32//49
f 32//49 67//49 68//49
f 32//50 68//50 39//50
f 39//51 68//51 69//51
f 39//52 69//52 40//52
f 40//53 69//53 70//53
f 40//54 70//54 41//54
f 41//55 70//55 71//55
f 41//56 71//56 42//56
f 42//57 71//57 72//57
f 42//58 72//58 43//58
f 43//59 72//59 73//59
f 43//60 73//60 44//60
f 44//60 73//60 74//60
f 44//61 74//61 46//61
f 46//61 74//61 75//61
f 46//62 75//62 47//62
f 47//63 75//63 76//63
f 47//64 76//64 48//64
f 48//65 76//65 77//65
f 48//66 77//66 49//66
f 49//67 77//67 78//67
f 49//68 78//68 50//68
f 50//69 78//69 79//69
f 50//70 79//70 5//70
f 5//71 79//71 52//71
f 80//72 81//72 7//72
f 7//72 81//72 45//72
f 81//73 82//73 45//73
f 45//73 82//73 38//73
f 82//74 83//74 38//74
f 38//74 83//74 34//74
f 34//75 83//75 37//75
f 37//75 83//75 84//75
f 37//76 84//76 36//76
f 36//76 84//76 85//76
f 36//77 85//77 35//77
f 35//77 85//77 86//77
f 35//78 86//78 33//78
f 33//79 86//79 87//79
f 33//80 87//80 31//80
f 31//81 87//81 88//81
f 31//82 88//82 29//82
f 29//82 88//82 89//82
f 29//83 89//83 26//83
f 26//84 89//84 90//84
f 26//85 90//85 23//85
f 23//86 90//86 91//86
f 23//87 91//87 21//87
f 21//88 91//88 92//88
f 21//89 92//89 18//89
f 18//89 92//89 93//89
f 18//90 93//90 16//90
f 16//90 93//90 94//90
f 16//91 94//91 13//91
f 13//92 94//92 95//92
f 13//93 95//93 10//93
f 10//94 95//94 96//94
f 10//95 96//95 2//95
f 2//96 96//96 97//96
f 2//97 97//97 4//97
f 4//97 97//97 98//97
f 4//98 98//98 6//98
f 6//99 98//99 99//99
f 6//100 99//100 8//100
f 8//101 99//101 100//101
f 8//102 100//102 9//102
f 9//102 100//102 101//102
f 9//103 101//103 51//103
f 51//103 101//103 102//103
f 51//104 102//104 7//104
f 7//104 102//104 80//104
f 52//105 98//105 53//105
f 53//106 98//106 97//106
f 53//107 97//107 54//107
f 54//105 97//105 96//105
f 54//108 96//108 55//108
f 55//105 96//105 56//105
f 56//105 96//105 95//105
f 56//109 95//109 57//109
f 57//110 95//110 58//110
f 58//105 95//105 94//105
f 58//111 94//111 59//111
f 59//105 94//105 93//105
f 59//112 93//112 60//112
f 60//105 93//105 61//105
f 61//105 93//105 92//105
f 61//111 92//111 62//111
f 62//105 92//105 91//105
f 62//113 91//113 63//113
f 63//105 91//105 64//105
f 64//105 91//105 90//105
f 64//114 90//114 65//114
f 65//105 90//105 66//105
f 66//105 90//105 89//105
f 66//107 89//107 67//107
f 67//106 89//106 88//106
f 67//105 88//105 68//105
f 68//115 88//115 87//115
f 68//116 87//116 83//116
f 83//117 87//117 86//117
f 83//105 86//105 85//105
f 79//105 81//105 52//105
f 52//105 81//105 80//105
f 52//116 80//116 99//116
f 99//117 80//117 100//117
f 100//105 80//105 101//105
f 101//105 80//105 102//105
f 79//118 78//118 81//118
f 81//119 78//119 77//119
f 81//120 77//120 76//120
f 76//105 75//105 81//105
f 81//121 75//121 74//121
f 81//105 74//105 82//105
f 82//121 74//121 73//121
f 82//122 73//122 72//122
f 72//123 71//123 82//123
f 82//119 71//119 70//119
f 82//124 70//124 69//124
f 69//105 68//105 82//105
f 82//105 68//105 83//105
f 99//125 98//125 52//125
f 85//105 84//105 83//105
#204 polygons

